<svg width="33" height="32" viewBox="0 0 33 32" fill="none" xmlns="http://www.w3.org/2000/svg">
<path id="github" fill-rule="evenodd" clip-rule="evenodd" d="M16.2829 0C7.27979 0 0 7.33313 0 16.4062C0 23.6593 4.6632 29.7958 11.133 31.9691C11.943 32.1324 12.2397 31.6158 12.2397 31.1825C12.2397 30.8025 12.213 29.4992 12.213 28.1392C7.68312 29.1158 6.73981 26.1826 6.73981 26.1826C6.01316 24.2826 4.93319 23.7927 4.93319 23.7927C3.4499 22.7894 5.03986 22.7894 5.03986 22.7894C6.68314 22.8994 7.54645 24.4726 7.54645 24.4726C9.00308 26.9726 11.3463 26.2659 12.293 25.8293C12.4263 24.7693 12.8596 24.036 13.3163 23.6293C9.70306 23.2493 5.90317 21.8361 5.90317 15.5362C5.90317 13.7429 6.54981 12.2763 7.57312 11.1364C7.40979 10.7297 6.84647 9.04641 7.73645 6.78981C7.73645 6.78981 9.10974 6.35649 12.213 8.47309C13.5396 8.1131 14.9096 7.92978 16.2829 7.92978C17.6562 7.92978 19.0595 8.11977 20.3528 8.47309C23.4527 6.35315 24.8293 6.78981 24.8293 6.78981C25.7193 9.04308 25.1526 10.7297 24.9926 11.1364C26.0426 12.2763 26.6626 13.7429 26.6626 15.5362C26.6626 21.8394 22.8627 23.2227 19.2228 23.6293C19.8161 24.146 20.3294 25.1226 20.3294 26.6726C20.3294 28.8725 20.3028 30.6391 20.3028 31.1825C20.3028 31.6158 20.5994 32.1324 21.4094 31.9691C27.8792 29.7958 32.5424 23.6593 32.5424 16.4062C32.5691 7.33313 25.2626 0 16.2862 0L16.2829 0Z" fill="#232021"/>
</svg>
