<svg width="32" height="32" viewBox="0 0 32 32" fill="none" xmlns="http://www.w3.org/2000/svg">
<path id="linkedin" d="M26.8826 2.66685C28.2356 2.66685 29.3325 3.76348 29.3328 5.11643V26.8829C29.3328 28.2359 28.2362 29.3328 26.8833 29.3331H5.11707C3.76412 29.3331 2.66717 28.2365 2.66685 26.8836V5.11707C2.66685 3.76412 3.76348 2.66717 5.11643 2.66685H26.8829M26.8826 0H5.11643C4.4262 0 3.75612 0.135999 3.12349 0.403516C2.5139 0.661433 1.96734 1.03007 1.49823 1.49918C1.02943 1.9683 0.660793 2.51518 0.403196 3.12477C0.135679 3.7574 0 4.42748 0 5.11707V26.8836C0 27.5738 0.135999 28.2439 0.403516 28.8765C0.661433 29.4861 1.03007 30.0327 1.49918 30.5018C1.9683 30.9706 2.51518 31.3392 3.12477 31.5968C3.75708 31.8643 4.42748 32 5.11707 32H26.8836C27.5738 32 28.2439 31.864 28.8765 31.5965C29.4861 31.3386 30.0327 30.9699 30.5018 30.5008C30.9706 30.0317 31.3392 29.4848 31.5968 28.8752C31.8643 28.2429 32 27.5725 32 26.8829V5.11643C32 4.4262 31.864 3.75612 31.5965 3.12349C31.3386 2.5139 30.9699 1.96734 30.5008 1.49823C30.0317 1.02943 29.4848 0.660793 28.8752 0.403196C28.2429 0.135679 27.5725 0 26.8829 0H26.8826ZM7.98104 5.84218C9.04631 5.84218 9.90998 6.70585 9.90998 7.77112C9.90998 8.83639 9.04631 9.70006 7.98104 9.70006C6.91577 9.70006 6.0521 8.83639 6.0521 7.77112C6.0521 6.70585 6.91577 5.84218 7.98104 5.84218ZM10.1689 25.5665C10.1689 25.8925 9.90486 26.1569 9.57878 26.1572H6.3833C6.05722 26.1572 5.7929 25.8929 5.7929 25.5668V12.5362C5.7929 12.2101 6.0569 11.9458 6.38298 11.9455H9.57846C9.90454 11.9455 10.1689 12.2098 10.1689 12.5359V25.5665ZM26.2068 26.1572H21.7134V18.0222C21.7294 16.6469 20.6273 15.5192 19.252 15.5032C17.8766 15.4872 16.749 16.5893 16.733 17.9646C16.733 17.9838 16.733 18.003 16.733 18.0222V25.5665C16.733 25.8925 16.4686 26.1572 16.1422 26.1572H12.9477C12.6216 26.1572 12.357 25.8929 12.357 25.5665V12.2408C12.357 11.9148 12.6213 11.7074 12.9477 11.7074H16.1422C16.4686 11.7074 16.733 11.9138 16.733 12.2408V13.5461C17.1467 13.0274 17.6497 12.5874 18.2187 12.2463C18.5601 12.0412 18.9291 11.8856 19.3144 11.7842H19.3179C19.5492 11.733 19.7857 11.7074 20.0225 11.7077H21.3662C24.0388 11.7071 26.2058 13.8735 26.2065 16.5461V26.1569L26.2068 26.1572Z" fill="#232021"/>
</svg>
