<svg width="138" height="32" viewBox="0 0 138 32" fill="none" xmlns="http://www.w3.org/2000/svg">
<path d="M126.628 0.910272H128.023L128.006 5.7137H129.175V0.910272H130.56V0H126.628V0.910272ZM131.467 5.7137H132.535V1.50948L134.287 5.7137H135.115L136.883 1.57495L136.899 5.7137H137.987V0H136.562L134.745 4.3352L132.977 0H131.467V5.7137Z" fill="white"/>
<path d="M28.4114 7.94664L23.6898 25.5625L18.3298 7.94664H13.4838L15.2617 13.6014L11.2932 26.4433L6.38829 7.94336H0.0131836L7.662 31.9933H13.6311L17.3671 20.1795L21.1228 31.9933H27.0362L34.7309 7.94336H28.4147L28.4114 7.94664Z" fill="white"/>
<path d="M97.4768 0H91.5503V32H97.4768V0Z" fill="white"/>
<path d="M87.2313 20.1599C87.2313 12.9302 82.2314 7.87793 75.0476 7.87793C67.8637 7.87793 63.2043 12.8287 63.2043 19.8685C63.2043 26.9083 68.2992 31.9049 75.4372 31.9049C79.3664 31.9639 83.0631 30.0549 85.293 26.8166L80.5976 25.2024C79.3271 26.3255 77.6769 26.9181 75.9808 26.8625C72.5624 26.8625 70.2671 24.9012 69.5958 21.3747H69.6122C69.6122 21.3747 69.6122 21.3682 69.6122 21.3649H87.1855L87.2346 20.1567L87.2313 20.1599ZM69.6089 17.8286C69.9003 15.0258 72.3299 12.94 75.1425 13.0743C78.001 12.9204 80.4961 14.993 80.8693 17.8286H69.6089Z" fill="white"/>
<path d="M60.1134 20.1599C60.1134 12.9302 55.1135 7.87793 47.9297 7.87793C40.7458 7.87793 36.0864 12.8287 36.0864 19.8685C36.0864 26.9083 41.1813 31.9049 48.3193 31.9049C52.2485 31.9639 55.9452 30.0549 58.175 26.8166L53.4796 25.2024C52.2092 26.3255 50.559 26.9181 48.8629 26.8625C45.4445 26.8625 43.1492 24.9012 42.4779 21.3747H42.4943C42.4943 21.3747 42.4943 21.3682 42.4943 21.3649H60.0676L60.1134 20.1567V20.1599ZM42.4943 17.8286C42.7857 15.0258 45.2153 12.94 48.0279 13.0743C50.8864 12.9204 53.3814 14.993 53.7547 17.8286H42.4943Z" fill="white"/>
<path d="M114.516 7.86461C107.853 7.8908 102.473 13.3164 102.503 19.9796C102.529 26.6429 107.955 32.0226 114.618 31.9931C121.261 31.9669 126.631 26.5708 126.631 19.9272C126.69 13.3229 121.383 7.92027 114.778 7.86133C114.693 7.86133 114.605 7.86133 114.52 7.86133L114.516 7.86461ZM114.516 26.5839C111.003 26.6658 108.089 23.8826 108.007 20.3693C108.004 20.2219 108.007 20.0778 108.014 19.9305C107.928 16.3386 110.774 13.3557 114.366 13.2738C117.958 13.1887 120.941 16.034 121.022 19.626C121.022 19.7275 121.022 19.829 121.022 19.9305C121.183 23.4438 118.465 26.4202 114.952 26.5774C114.808 26.5839 114.66 26.5872 114.513 26.5806L114.516 26.5839Z" fill="white"/>
</svg>
