<?xml version="1.0" encoding="UTF-8"?>
<svg id="Layer_1" xmlns="http://www.w3.org/2000/svg" version="1.1" viewBox="0 0 32 32">
  <!-- Generator: Adobe Illustrator 29.1.0, SVG Export Plug-In . SVG Version: 2.1.0 Build 142)  -->
  <path d="M15.9,16.6c-.5-.7-1.2-1.3-2.1-1.7.6-.4,1.1-.8,1.4-1.3.5-.7.7-1.6.7-2.6s-.2-1.8-.5-2.4c-.3-.7-.8-1.2-1.4-1.6-.6-.4-1.3-.7-2.1-.8-.8-.2-1.6-.3-2.6-.3H.3C.1,5.9,0,6,0,6.2v19.3C0,25.6.1,25.8.3,25.8h9.4c.9,0,1.8-.1,2.6-.3.9-.2,1.6-.6,2.3-1.1.7-.5,1.2-1.1,1.6-1.9.4-.8.6-1.7.6-2.7s-.3-2.4-.9-3.3h0ZM4.9,9.8h3.7c.4,0,.7,0,1,0,.3,0,.6.1.8.3.2.1.4.3.5.5.1.2.2.6.2.9,0,.7-.2,1.2-.6,1.5-.4.3-1,.5-1.7.5h-4v-3.8s0,0,0,0ZM11.7,20.8c-.1.3-.3.5-.6.6-.2.2-.5.3-.9.4-.3,0-.7.1-1.1.1h-4.2v-4.7h4.3c.8,0,1.5.2,2,.6.5.4.7,1,.7,1.9s0,.8-.2,1.1h0ZM28.6,9.7h-7.8c-.2,0-.3-.1-.3-.3v-1.9c0-.2.1-.3.3-.3h7.8c.2,0,.3.1.3.3v1.9c0,.2-.1.3-.3.3ZM32,19.4c0-1.1,0-2.2-.3-3.2-.3-1-.7-2-1.3-2.8-.6-.8-1.4-1.5-2.3-1.9-.9-.5-2-.7-3.2-.7s-2.1.2-3,.6c-.9.4-1.7.9-2.4,1.6-.6.7-1.2,1.5-1.5,2.4-.4.9-.5,2-.5,3s.2,2.2.5,3.1c.4.9.9,1.8,1.5,2.4.7.7,1.4,1.2,2.4,1.6.9.4,2,.6,3.1.6,1.6,0,3.1-.4,4.2-1.1,1.2-.8,2.1-2,2.6-3.8,0,0,0-.2,0-.3,0,0-.2-.1-.3-.1h-3.4c-.1,0-.3,0-.3.2-.1.4-.4.7-.9,1.1-.5.4-1.1.5-1.8.5s-1.7-.2-2.2-.7h0c0,0,0,0,0,0-.4-.4-.8-1.3-.8-2.1h9.7c.2,0,.3-.1.3-.3h0ZM21.9,16.7c0-.2,0-.3.1-.5,0-.3.2-.6.4-.9.2-.3.5-.5.9-.7.4-.2.8-.3,1.4-.3.9,0,1.5.2,1.9.7.4.4.6,1,.8,1.7h-5.5Z"/>
</svg>