<svg width="160" height="32" viewBox="0 0 160 32" fill="none" xmlns="http://www.w3.org/2000/svg">
<path d="M12.5555 2.95179C13.7021 3.46754 14.5863 4.20434 15.208 5.15758C15.8297 6.11081 16.1382 7.23902 16.1382 8.53763C16.1382 9.83623 15.8297 10.946 15.208 11.9085C14.5863 12.8709 13.7021 13.6031 12.5555 14.1143C11.4089 14.6254 10.055 14.8787 8.49391 14.8787H4.94809V19.7139H0.872681V2.17815H8.49391C10.055 2.17815 11.4043 2.43603 12.5555 2.9564V2.95179ZM11.0589 10.7803C11.6944 10.2553 12.0121 9.50467 12.0121 8.53763C12.0121 7.57058 11.6944 6.79695 11.0589 6.27199C10.4234 5.74702 9.48859 5.48452 8.26828 5.48452H4.94809V11.5723H8.26828C9.4932 11.5723 10.4234 11.3098 11.0589 10.7849V10.7803ZM29.4282 6.53446C30.2248 6.2029 31.1412 6.03252 32.1819 6.03252V9.64282C31.7445 9.61059 31.4543 9.59217 31.3024 9.59217C30.1788 9.59217 29.2992 9.90531 28.6637 10.5316C28.0282 11.1579 27.7105 12.0973 27.7105 13.3498V19.7139H23.7871V6.23514H27.5355V8.01267C28.0052 7.35876 28.6361 6.87062 29.4328 6.53446H29.4282ZM48.1152 16.4674C48.6585 16.2602 49.1651 15.9286 49.6348 15.4773L51.7209 17.7338C50.4453 19.1843 48.5849 19.9119 46.1396 19.9119C44.6154 19.9119 43.2661 19.6172 42.0918 19.0232C40.9176 18.4291 40.015 17.6094 39.3749 16.5549C38.7394 15.5004 38.4171 14.3077 38.4171 12.9722C38.4171 11.6368 38.7302 10.4625 39.3611 9.40337C39.992 8.34422 40.8531 7.51532 41.9491 6.92128C43.0451 6.32723 44.2838 6.03252 45.6561 6.03252C46.9455 6.03252 48.1198 6.30422 49.1789 6.84761C50.2334 7.391 51.0762 8.17384 51.707 9.20075C52.3379 10.2277 52.6511 11.4434 52.6511 12.8479L42.6444 14.7774C42.9299 15.4451 43.3766 15.947 43.9891 16.2786C44.6016 16.6148 45.3522 16.7805 46.2409 16.7805C46.9455 16.7805 47.5672 16.6746 48.1152 16.4674ZM43.2477 9.94214C42.626 10.5776 42.2991 11.4526 42.2668 12.5716L48.8566 11.296C48.6724 10.596 48.2947 10.0342 47.7237 9.61519C47.1527 9.19614 46.4666 8.98892 45.6607 8.98892C44.6706 8.98892 43.8648 9.30665 43.2477 9.94214ZM62.9754 19.0232C61.8288 18.4291 60.9308 17.6094 60.2861 16.5549C59.6414 15.5004 59.3191 14.3077 59.3191 12.9722C59.3191 11.6368 59.6414 10.4395 60.2861 9.38955C60.9308 8.33962 61.8288 7.51532 62.9754 6.92128C64.1221 6.32723 65.4207 6.03252 66.862 6.03252C68.3034 6.03252 69.5329 6.32723 70.5967 6.92128C71.6604 7.51532 72.434 8.36264 72.9222 9.46323L69.8783 11.0934C69.1737 9.85925 68.1606 9.23758 66.8344 9.23758C65.8121 9.23758 64.9648 9.57375 64.2971 10.2415C63.6247 10.9092 63.2932 11.821 63.2932 12.9722C63.2932 14.1235 63.6293 15.0353 64.2971 15.703C64.9648 16.3707 65.8121 16.7069 66.8344 16.7069C68.1744 16.7069 69.1875 16.0898 69.8783 14.851L72.9222 16.5042C72.434 17.5726 71.6604 18.4107 70.5967 19.0093C69.5329 19.6126 68.285 19.9119 66.862 19.9119C65.4391 19.9119 64.1267 19.6172 62.9754 19.0232ZM80.4145 3.73003C79.9632 3.31098 79.7375 2.79522 79.7375 2.17815C79.7375 1.56109 79.9632 1.04533 80.4145 0.626277C80.8658 0.207224 81.4552 0 82.1736 0C82.8919 0 83.4814 0.202618 83.9327 0.603251C84.384 1.00388 84.6096 1.50582 84.6096 2.10447C84.6096 2.75377 84.384 3.29256 83.9327 3.72082C83.4814 4.14448 82.8919 4.36091 82.1736 4.36091C81.4552 4.36091 80.8658 4.15369 80.4145 3.73464V3.73003ZM80.2119 6.23514H84.1353V19.7139H80.2119V6.23514ZM94.0682 19.5021C92.9953 19.2258 92.1387 18.8804 91.5033 18.4614L92.8111 15.6569C93.4143 16.0437 94.1465 16.3569 94.9984 16.5963C95.855 16.8404 96.6931 16.9601 97.5128 16.9601C99.1705 16.9601 100.004 16.5503 100.004 15.7306C100.004 15.3484 99.7784 15.0721 99.3271 14.9017C98.8758 14.7359 98.1805 14.5932 97.2411 14.478C96.1359 14.3123 95.2195 14.1189 94.5011 13.9024C93.7781 13.686 93.1564 13.3038 92.6269 12.7512C92.0973 12.1986 91.8348 11.4157 91.8348 10.398C91.8348 9.54612 92.0835 8.7909 92.5762 8.13239C93.069 7.47388 93.7919 6.95812 94.7406 6.58972C95.6892 6.22132 96.8082 6.03713 98.0976 6.03713C99.0508 6.03713 100.004 6.14304 100.953 6.35026C101.901 6.55749 102.684 6.8476 103.306 7.216L101.998 9.99741C100.81 9.32969 99.5067 8.99352 98.1022 8.99352C97.2641 8.99352 96.6332 9.10865 96.2142 9.3435C95.7951 9.57835 95.5879 9.87767 95.5879 10.2461C95.5879 10.6651 95.8135 10.9552 96.2648 11.121C96.7161 11.2868 97.4391 11.448 98.4291 11.5953C99.5343 11.7795 100.442 11.9776 101.146 12.1848C101.851 12.392 102.463 12.7742 102.983 13.3268C103.504 13.8794 103.762 14.6484 103.762 15.6293C103.762 16.4674 103.508 17.2088 103.006 17.8581C102.505 18.5074 101.768 19.014 100.805 19.3731C99.8429 19.7323 98.6962 19.9119 97.3746 19.9119C96.251 19.9119 95.1504 19.7738 94.0821 19.4975L94.0682 19.5021ZM111.397 3.73003C110.945 3.31098 110.72 2.79522 110.72 2.17815C110.72 1.56109 110.945 1.04533 111.397 0.626277C111.848 0.207224 112.438 0 113.156 0C113.874 0 114.464 0.202618 114.915 0.603251C115.366 1.00388 115.592 1.50582 115.592 2.10447C115.592 2.75377 115.366 3.29256 114.915 3.72082C114.464 4.14909 113.874 4.36091 113.156 4.36091C112.438 4.36091 111.848 4.15369 111.397 3.73464V3.73003ZM111.194 6.23514H115.118V19.7139H111.194V6.23514ZM126.395 19.0232C125.262 18.4291 124.378 17.6094 123.743 16.5549C123.107 15.5004 122.785 14.3077 122.785 12.9722C122.785 11.6368 123.103 10.4395 123.743 9.38955C124.378 8.33962 125.262 7.51532 126.395 6.92128C127.528 6.32723 128.804 6.03252 130.231 6.03252C131.659 6.03252 132.93 6.32723 134.053 6.92128C135.177 7.51532 136.056 8.33501 136.692 9.38955C137.327 10.4441 137.645 11.6368 137.645 12.9722C137.645 14.3077 137.327 15.5004 136.692 16.5549C136.056 17.6048 135.172 18.4291 134.053 19.0232C132.93 19.6172 131.654 19.9119 130.231 19.9119C128.808 19.9119 127.528 19.6172 126.395 19.0232ZM132.709 15.6938C133.353 15.0168 133.676 14.1097 133.676 12.9768C133.676 11.844 133.353 10.9368 132.709 10.2599C132.064 9.58295 131.24 9.2468 130.231 9.2468C129.223 9.2468 128.394 9.58756 127.74 10.2599C127.086 10.9322 126.759 11.844 126.759 12.9768C126.759 14.1097 127.086 15.0168 127.74 15.6938C128.394 16.3707 129.223 16.7069 130.231 16.7069C131.24 16.7069 132.064 16.3661 132.709 15.6938ZM157.58 7.53836C158.612 8.54224 159.127 10.0296 159.127 11.996V19.7139H155.204V12.5992C155.204 11.5309 154.969 10.7342 154.499 10.2046C154.03 9.67966 153.353 9.41718 152.464 9.41718C151.474 9.41718 150.686 9.7211 150.102 10.3336C149.512 10.9414 149.222 11.8486 149.222 13.0505V19.7139H145.299V6.23514H149.047V7.81464C149.567 7.24823 150.212 6.80616 150.981 6.49763C151.75 6.18909 152.598 6.03252 153.523 6.03252C155.199 6.03252 156.553 6.53447 157.585 7.53375L157.58 7.53836ZM62.2386 31.7882C61.8058 31.65 61.465 31.475 61.2209 31.2632L61.4834 30.8257C61.7275 31.0237 62.0406 31.1849 62.4274 31.3138C62.8096 31.4474 63.2149 31.5119 63.6339 31.5119C64.2326 31.5119 64.6793 31.4152 64.9648 31.231C65.2503 31.0422 65.393 30.7797 65.393 30.4435C65.393 30.2041 65.3148 30.0152 65.1582 29.8771C65.0016 29.7389 64.8082 29.6376 64.5826 29.5732C64.3523 29.5087 64.0392 29.4396 63.6339 29.366C63.1596 29.2877 62.782 29.2002 62.4919 29.1035C62.2018 29.0114 61.9577 28.8548 61.7505 28.6476C61.5433 28.4357 61.442 28.1456 61.442 27.7772C61.442 27.3259 61.64 26.9529 62.0314 26.6582C62.4228 26.3635 62.98 26.2161 63.703 26.2161C64.0852 26.2161 64.4582 26.2668 64.8312 26.3681C65.2042 26.4694 65.5082 26.603 65.743 26.7733L65.4805 27.2108C65.2365 27.045 64.9602 26.9161 64.647 26.8286C64.3339 26.7411 64.0161 26.6997 63.6892 26.6997C63.132 26.6997 62.7129 26.7964 62.432 26.9944C62.1511 27.1924 62.0084 27.4503 62.0084 27.768C62.0084 28.0213 62.0867 28.2193 62.2478 28.3621C62.409 28.5048 62.6024 28.6107 62.8373 28.6798C63.0675 28.7489 63.3945 28.8226 63.8135 28.9055C64.2786 28.9837 64.6516 29.0712 64.9371 29.1633C65.2226 29.2554 65.4621 29.4028 65.6601 29.6054C65.8581 29.808 65.9548 30.0889 65.9548 30.4435C65.9548 30.9178 65.7476 31.2954 65.3378 31.5763C64.9279 31.8618 64.3477 32 63.6017 32C63.1228 32 62.6669 31.9309 62.2294 31.7928L62.2386 31.7882ZM74.2991 31.6224C73.8478 31.3737 73.4886 31.033 73.2307 30.5909C72.9728 30.1534 72.8439 29.6561 72.8439 29.1035C72.8439 28.5509 72.9728 28.0535 73.2307 27.6161C73.4886 27.174 73.8432 26.8332 74.2991 26.5845C74.7504 26.3359 75.2615 26.2161 75.8233 26.2161C76.3851 26.2161 76.8963 26.3405 77.3476 26.5845C77.7989 26.8332 78.158 27.174 78.4159 27.6161C78.6738 28.0535 78.8027 28.5509 78.8027 29.1035C78.8027 29.6561 78.6738 30.1534 78.4159 30.5909C78.158 31.033 77.7989 31.3737 77.3476 31.6224C76.8963 31.8711 76.3851 31.9908 75.8233 31.9908C75.2615 31.9908 74.7504 31.8665 74.2991 31.6224ZM77.0482 31.1987C77.4074 30.9961 77.6929 30.7106 77.9048 30.3468C78.112 29.983 78.2179 29.5686 78.2179 29.1035C78.2179 28.6384 78.112 28.2239 77.9048 27.8601C77.6975 27.4963 77.412 27.2108 77.0482 27.0082C76.6844 26.8056 76.2792 26.7043 75.8187 26.7043C75.3582 26.7043 74.953 26.8056 74.5892 27.0082C74.2254 27.2108 73.9399 27.4963 73.7327 27.8601C73.5254 28.2239 73.4195 28.6384 73.4195 29.1035C73.4195 29.5686 73.5254 29.983 73.7327 30.3468C73.9399 30.7106 74.2254 30.9961 74.5892 31.1987C74.953 31.4013 75.3582 31.5027 75.8187 31.5027C76.2792 31.5027 76.6844 31.4013 77.0482 31.1987ZM86.9075 31.5855C86.6404 31.3138 86.5069 30.9362 86.5069 30.4573V23.8584H87.0779V30.3929C87.0779 30.7613 87.1654 31.0468 87.3404 31.2356C87.5154 31.429 87.7778 31.5257 88.1278 31.5257C88.3258 31.5257 88.5146 31.4888 88.6988 31.4152L88.7449 31.8711C88.5331 31.9493 88.3028 31.9908 88.0587 31.9908C87.5568 31.9908 87.1746 31.8526 86.9075 31.5809V31.5855ZM101.063 26.2576V31.9493H100.515V30.729C100.317 31.1297 100.022 31.4382 99.6356 31.6638C99.2488 31.8849 98.7883 31.9954 98.2634 31.9954C97.4851 31.9954 96.8773 31.7882 96.4352 31.3737C95.9931 30.9593 95.7721 30.3652 95.7721 29.587V26.2622H96.3431V29.5455C96.3431 30.1856 96.5135 30.6738 96.8542 31.0053C97.195 31.3369 97.6785 31.5073 98.3048 31.5073C98.9725 31.5073 99.5067 31.3047 99.8981 30.9086C100.29 30.508 100.488 29.9692 100.488 29.2969V26.2668H101.059L101.063 26.2576ZM112.193 31.5902C112.051 31.7191 111.866 31.8204 111.65 31.8895C111.434 31.9585 111.208 31.9908 110.969 31.9908C110.453 31.9908 110.052 31.8526 109.771 31.5809C109.49 31.3093 109.348 30.927 109.348 30.4389V25.0096H109.919V26.253H111.811V26.7227H109.919V30.3883C109.919 30.7567 110.011 31.0422 110.199 31.231C110.384 31.4244 110.66 31.5211 111.028 31.5211C111.397 31.5211 111.71 31.4152 111.954 31.2033L112.193 31.5855V31.5902ZM119.672 24.7472C119.58 24.6643 119.534 24.5583 119.534 24.434C119.534 24.3097 119.58 24.2038 119.672 24.1163C119.764 24.0288 119.875 23.9873 120.003 23.9873C120.132 23.9873 120.243 24.0288 120.335 24.1117C120.427 24.1946 120.473 24.3005 120.473 24.4248C120.473 24.5491 120.427 24.6551 120.335 24.7425C120.243 24.83 120.132 24.8715 120.003 24.8715C119.875 24.8715 119.764 24.83 119.672 24.7472ZM119.718 26.2576H120.289V31.9493H119.718V26.2576ZM129.439 31.6224C128.988 31.3737 128.629 31.033 128.371 30.5909C128.113 30.1534 127.984 29.6561 127.984 29.1035C127.984 28.5509 128.113 28.0535 128.371 27.6161C128.629 27.174 128.983 26.8332 129.439 26.5845C129.89 26.3359 130.402 26.2161 130.963 26.2161C131.525 26.2161 132.036 26.3405 132.488 26.5845C132.939 26.8332 133.298 27.174 133.556 27.6161C133.814 28.0535 133.943 28.5509 133.943 29.1035C133.943 29.6561 133.814 30.1534 133.556 30.5909C133.298 31.033 132.939 31.3737 132.488 31.6224C132.036 31.8711 131.525 31.9908 130.963 31.9908C130.402 31.9908 129.89 31.8665 129.439 31.6224ZM132.188 31.1987C132.547 30.9961 132.833 30.7106 133.045 30.3468C133.252 29.983 133.358 29.5686 133.358 29.1035C133.358 28.6384 133.252 28.2239 133.045 27.8601C132.838 27.4963 132.552 27.2108 132.188 27.0082C131.824 26.8056 131.419 26.7043 130.959 26.7043C130.498 26.7043 130.093 26.8056 129.729 27.0082C129.365 27.2108 129.08 27.4963 128.873 27.8601C128.665 28.2239 128.56 28.6384 128.56 29.1035C128.56 29.5686 128.665 29.983 128.873 30.3468C129.08 30.7106 129.365 30.9961 129.729 31.1987C130.093 31.4013 130.498 31.5027 130.959 31.5027C131.419 31.5027 131.824 31.4013 132.188 31.1987ZM146.33 26.8378C146.763 27.2523 146.979 27.8463 146.979 28.6245V31.9493H146.408V28.666C146.408 28.0259 146.238 27.5378 145.902 27.2062C145.566 26.8747 145.091 26.7043 144.479 26.7043C143.779 26.7043 143.226 26.9069 142.826 27.3029C142.421 27.7036 142.218 28.2423 142.218 28.9147V31.9447H141.647V26.253H142.195V27.4871C142.402 27.0865 142.706 26.7734 143.111 26.5477C143.516 26.3221 144 26.2115 144.557 26.2115C145.303 26.2115 145.893 26.4188 146.326 26.8332L146.33 26.8378ZM155.402 31.7882C154.969 31.65 154.628 31.475 154.384 31.2632L154.647 30.8257C154.891 31.0237 155.204 31.1849 155.591 31.3138C155.973 31.4474 156.378 31.5119 156.797 31.5119C157.396 31.5119 157.843 31.4152 158.128 31.231C158.414 31.0422 158.556 30.7797 158.556 30.4435C158.556 30.2041 158.478 30.0152 158.321 29.8771C158.165 29.7389 157.972 29.6376 157.746 29.5732C157.516 29.5087 157.202 29.4396 156.797 29.366C156.323 29.2877 155.945 29.2002 155.655 29.1035C155.365 29.0114 155.121 28.8548 154.914 28.6476C154.707 28.4357 154.605 28.1456 154.605 27.7772C154.605 27.3259 154.803 26.9529 155.195 26.6582C155.586 26.3635 156.143 26.2161 156.866 26.2161C157.249 26.2161 157.622 26.2668 157.995 26.3681C158.368 26.4694 158.671 26.603 158.906 26.7733L158.644 27.2108C158.4 27.045 158.123 26.9161 157.81 26.8286C157.497 26.7411 157.179 26.6997 156.853 26.6997C156.295 26.6997 155.876 26.7964 155.595 26.9944C155.314 27.1924 155.172 27.4503 155.172 27.768C155.172 28.0213 155.25 28.2193 155.411 28.3621C155.572 28.5048 155.766 28.6107 156.001 28.6798C156.231 28.7489 156.558 28.8226 156.977 28.9055C157.442 28.9837 157.815 29.0712 158.1 29.1633C158.386 29.2554 158.625 29.4028 158.823 29.6054C159.021 29.808 159.118 30.0889 159.118 30.4435C159.118 30.9178 158.911 31.2954 158.501 31.5763C158.091 31.8618 157.511 32 156.765 32C156.286 32 155.83 31.9309 155.393 31.7928L155.402 31.7882Z" fill="#DEC4DF"/>
</svg>
