<?xml version="1.0" encoding="UTF-8"?>
<svg id="Layer_1" xmlns="http://www.w3.org/2000/svg" version="1.1" viewBox="0 0 138 32">
  <!-- Generator: Adobe Illustrator 29.1.0, SVG Export Plug-In . SVG Version: 2.1.0 Build 142)  -->
  <defs>
    <style>
      .st0 {
        fill: #140064;
      }
    </style>
  </defs>
  <path class="st0" d="M126.6.9h1.4v4.8s1.2,0,1.2,0V.9h1.4v-.9h-3.9v.9ZM131.5,5.7h1.1V1.5l1.8,4.2h.8l1.8-4.1v4.1h1.1V0h-1.4l-1.8,4.3-1.8-4.3h-1.5v5.7Z"/>
  <path class="st0" d="M28.4,7.9l-4.7,17.6-5.4-17.6h-4.8l1.8,5.7-4,12.8L6.4,7.9H0l7.6,24h6l3.7-11.8,3.8,11.8h5.9l7.7-24h-6.3Z"/>
  <path class="st0" d="M97.5,0h-5.9v32h5.9V0Z"/>
  <path class="st0" d="M87.2,20.2c0-7.2-5-12.3-12.2-12.3s-11.8,5-11.8,12,5.1,12,12.2,12c3.9,0,7.6-1.9,9.9-5.1l-4.7-1.6c-1.3,1.1-2.9,1.7-4.6,1.7-3.4,0-5.7-2-6.4-5.5h0s17.6,0,17.6,0v-1.2s0,0,0,0ZM69.6,17.8c.3-2.8,2.7-4.9,5.5-4.8,2.9-.2,5.4,1.9,5.7,4.8h-11.3Z"/>
  <path class="st0" d="M60.1,20.2c0-7.2-5-12.3-12.2-12.3s-11.8,5-11.8,12,5.1,12,12.2,12c3.9,0,7.6-1.9,9.9-5.1l-4.7-1.6c-1.3,1.1-2.9,1.7-4.6,1.7-3.4,0-5.7-2-6.4-5.5h0s17.6,0,17.6,0v-1.2s0,0,0,0ZM42.5,17.8c.3-2.8,2.7-4.9,5.5-4.8,2.9-.2,5.4,1.9,5.7,4.8h-11.3Z"/>
  <path class="st0" d="M114.5,7.9c-6.7,0-12,5.5-12,12.1,0,6.7,5.5,12,12.1,12,6.6,0,12-5.4,12-12.1,0-6.6-5.2-12-11.9-12.1h-.3ZM114.5,26.6c-3.5,0-6.4-2.7-6.5-6.2,0-.1,0-.3,0-.4,0-3.6,2.8-6.6,6.4-6.7,3.6,0,6.6,2.8,6.7,6.4v.3c.2,3.5-2.6,6.5-6.1,6.6-.1,0-.3,0-.4,0h0Z"/>
</svg>