<?xml version="1.0" encoding="UTF-8"?>
<svg id="Layer_1" xmlns="http://www.w3.org/2000/svg" version="1.1" viewBox="0 0 160 32">
  <!-- Generator: Adobe Illustrator 29.1.0, SVG Export Plug-In . SVG Version: 2.1.0 Build 142)  -->
  <defs>
    <style>
      .st0 {
        fill: #02779e;
      }
    </style>
  </defs>
  <path class="st0" d="M12.6,3c1.1.5,2,1.3,2.7,2.2.6,1,.9,2.1.9,3.4s-.3,2.4-.9,3.4c-.6,1-1.5,1.7-2.7,2.2-1.1.5-2.5.8-4.1.8h-3.5v4.8H.9V2.2h7.6c1.6,0,2.9.3,4.1.8h0ZM11.1,10.8c.6-.5,1-1.3,1-2.2s-.3-1.7-1-2.3c-.6-.5-1.6-.8-2.8-.8h-3.3v6.1h3.3c1.2,0,2.2-.3,2.8-.8h0ZM29.4,6.5c.8-.3,1.7-.5,2.8-.5v3.6c-.4,0-.7,0-.9,0-1.1,0-2,.3-2.6.9-.6.6-1,1.6-1,2.8v6.4h-3.9V6.2h3.7v1.8c.5-.7,1.1-1.1,1.9-1.5h0ZM48.1,16.5c.5-.2,1-.5,1.5-1l2.1,2.3c-1.3,1.5-3.1,2.2-5.6,2.2s-2.9-.3-4-.9c-1.2-.6-2.1-1.4-2.7-2.5-.6-1.1-1-2.2-1-3.6s.3-2.5.9-3.6c.6-1.1,1.5-1.9,2.6-2.5,1.1-.6,2.3-.9,3.7-.9s2.5.3,3.5.8c1.1.5,1.9,1.3,2.5,2.4.6,1,.9,2.2.9,3.6l-10,1.9c.3.7.7,1.2,1.3,1.5.6.3,1.4.5,2.3.5s1.3-.1,1.9-.3ZM43.2,9.9c-.6.6-.9,1.5-1,2.6l6.6-1.3c-.2-.7-.6-1.3-1.1-1.7-.6-.4-1.3-.6-2.1-.6s-1.8.3-2.4,1ZM63,19c-1.1-.6-2-1.4-2.7-2.5-.6-1.1-1-2.2-1-3.6s.3-2.5,1-3.6c.6-1,1.5-1.9,2.7-2.5,1.1-.6,2.4-.9,3.9-.9s2.7.3,3.7.9c1.1.6,1.8,1.4,2.3,2.5l-3,1.6c-.7-1.2-1.7-1.9-3-1.9s-1.9.3-2.5,1c-.7.7-1,1.6-1,2.7s.3,2.1,1,2.7c.7.7,1.5,1,2.5,1s2.4-.6,3-1.9l3,1.7c-.5,1.1-1.3,1.9-2.3,2.5-1.1.6-2.3.9-3.7.9s-2.7-.3-3.9-.9ZM80.4,3.7c-.5-.4-.7-.9-.7-1.6s.2-1.1.7-1.6c.5-.4,1-.6,1.8-.6s1.3.2,1.8.6c.5.4.7.9.7,1.5s-.2,1.2-.7,1.6c-.5.4-1,.6-1.8.6s-1.3-.2-1.8-.6h0ZM80.2,6.2h3.9v13.5h-3.9V6.2ZM94.1,19.5c-1.1-.3-1.9-.6-2.6-1l1.3-2.8c.6.4,1.3.7,2.2.9.9.2,1.7.4,2.5.4,1.7,0,2.5-.4,2.5-1.2s-.2-.7-.7-.8c-.5-.2-1.1-.3-2.1-.4-1.1-.2-2-.4-2.7-.6-.7-.2-1.3-.6-1.9-1.2-.5-.6-.8-1.3-.8-2.4s.2-1.6.7-2.3c.5-.7,1.2-1.2,2.2-1.5.9-.4,2.1-.6,3.4-.6s1.9.1,2.9.3c.9.2,1.7.5,2.4.9l-1.3,2.8c-1.2-.7-2.5-1-3.9-1s-1.5.1-1.9.3c-.4.2-.6.5-.6.9s.2.7.7.9,1.2.3,2.2.5c1.1.2,2,.4,2.7.6.7.2,1.3.6,1.8,1.1.5.6.8,1.3.8,2.3s-.3,1.6-.8,2.2c-.5.6-1.2,1.2-2.2,1.5-1,.4-2.1.5-3.4.5s-2.2-.1-3.3-.4h0ZM111.4,3.7c-.5-.4-.7-.9-.7-1.6s.2-1.1.7-1.6c.5-.4,1-.6,1.8-.6s1.3.2,1.8.6c.5.4.7.9.7,1.5s-.2,1.2-.7,1.6c-.5.4-1,.6-1.8.6s-1.3-.2-1.8-.6h0ZM111.2,6.2h3.9v13.5h-3.9V6.2ZM126.4,19c-1.1-.6-2-1.4-2.7-2.5-.6-1.1-1-2.2-1-3.6s.3-2.5,1-3.6c.6-1,1.5-1.9,2.7-2.5,1.1-.6,2.4-.9,3.8-.9s2.7.3,3.8.9c1.1.6,2,1.4,2.6,2.5.6,1.1,1,2.2,1,3.6s-.3,2.5-1,3.6c-.6,1-1.5,1.9-2.6,2.5-1.1.6-2.4.9-3.8.9s-2.7-.3-3.8-.9ZM132.7,15.7c.6-.7,1-1.6,1-2.7s-.3-2-1-2.7c-.6-.7-1.5-1-2.5-1s-1.8.3-2.5,1c-.7.7-1,1.6-1,2.7s.3,2,1,2.7c.7.7,1.5,1,2.5,1s1.8-.3,2.5-1ZM157.6,7.5c1,1,1.5,2.5,1.5,4.5v7.7h-3.9v-7.1c0-1.1-.2-1.9-.7-2.4-.5-.5-1.1-.8-2-.8s-1.8.3-2.4.9c-.6.6-.9,1.5-.9,2.7v6.7h-3.9V6.2h3.7v1.6c.5-.6,1.2-1,1.9-1.3.8-.3,1.6-.5,2.5-.5,1.7,0,3,.5,4.1,1.5h0ZM62.2,31.8c-.4-.1-.8-.3-1-.5l.3-.4c.2.2.6.4.9.5.4.1.8.2,1.2.2.6,0,1,0,1.3-.3.3-.2.4-.5.4-.8s0-.4-.2-.6c-.2-.1-.4-.2-.6-.3-.2,0-.5-.1-.9-.2-.5,0-.9-.2-1.1-.3-.3,0-.5-.2-.7-.5-.2-.2-.3-.5-.3-.9s.2-.8.6-1.1c.4-.3.9-.4,1.7-.4s.8,0,1.1.2c.4.1.7.2.9.4l-.3.4c-.2-.2-.5-.3-.8-.4-.3,0-.6-.1-1-.1-.6,0-1,0-1.3.3s-.4.5-.4.8,0,.5.2.6c.2.1.4.2.6.3.2,0,.6.1,1,.2.5,0,.8.2,1.1.3s.5.2.7.4c.2.2.3.5.3.8s-.2.9-.6,1.1c-.4.3-1,.4-1.7.4s-.9,0-1.4-.2h0ZM74.3,31.6c-.5-.2-.8-.6-1.1-1-.3-.4-.4-.9-.4-1.5s.1-1.1.4-1.5c.3-.4.6-.8,1.1-1,.5-.2,1-.4,1.5-.4s1.1.1,1.5.4c.5.2.8.6,1.1,1,.3.4.4.9.4,1.5s-.1,1-.4,1.5c-.3.4-.6.8-1.1,1-.5.2-1,.4-1.5.4s-1.1-.1-1.5-.4ZM77,31.2c.4-.2.6-.5.9-.9.2-.4.3-.8.3-1.2s-.1-.9-.3-1.2c-.2-.4-.5-.6-.9-.9s-.8-.3-1.2-.3-.9.1-1.2.3-.6.5-.9.9c-.2.4-.3.8-.3,1.2s.1.9.3,1.2c.2.4.5.6.9.9s.8.3,1.2.3.9-.1,1.2-.3ZM86.9,31.6c-.3-.3-.4-.6-.4-1.1v-6.6h.6v6.5c0,.4,0,.7.3.8.2.2.4.3.8.3s.4,0,.6-.1v.5c-.2,0-.4.1-.6.1-.5,0-.9-.1-1.2-.4h0ZM101.1,26.3v5.7h-.5v-1.2c-.2.4-.5.7-.9.9-.4.2-.8.3-1.4.3-.8,0-1.4-.2-1.8-.6-.4-.4-.7-1-.7-1.8v-3.3h.6v3.3c0,.6.2,1.1.5,1.5.3.3.8.5,1.5.5s1.2-.2,1.6-.6c.4-.4.6-.9.6-1.6v-3h.6ZM112.2,31.6c-.1.1-.3.2-.5.3-.2,0-.4.1-.7.1-.5,0-.9-.1-1.2-.4-.3-.3-.4-.7-.4-1.1v-5.4h.6v1.2h1.9v.5h-1.9v3.7c0,.4,0,.7.3.8.2.2.5.3.8.3s.7-.1.9-.3l.2.4h0ZM119.7,24.7c0,0-.1-.2-.1-.3s0-.2.1-.3c0,0,.2-.1.3-.1s.2,0,.3.1c0,0,.1.2.1.3s0,.2-.1.3c0,0-.2.1-.3.1s-.2,0-.3-.1ZM119.7,26.3h.6v5.7h-.6v-5.7ZM129.4,31.6c-.5-.2-.8-.6-1.1-1-.3-.4-.4-.9-.4-1.5s.1-1.1.4-1.5c.3-.4.6-.8,1.1-1,.5-.2,1-.4,1.5-.4s1.1.1,1.5.4c.5.2.8.6,1.1,1,.3.4.4.9.4,1.5s-.1,1-.4,1.5c-.3.4-.6.8-1.1,1-.5.2-1,.4-1.5.4s-1.1-.1-1.5-.4ZM132.2,31.2c.4-.2.6-.5.9-.9.2-.4.3-.8.3-1.2s-.1-.9-.3-1.2-.5-.6-.9-.9-.8-.3-1.2-.3-.9.1-1.2.3-.6.5-.9.9c-.2.4-.3.8-.3,1.2s.1.9.3,1.2c.2.4.5.6.9.9s.8.3,1.2.3.9-.1,1.2-.3ZM146.3,26.8c.4.4.6,1,.6,1.8v3.3h-.6v-3.3c0-.6-.2-1.1-.5-1.5-.3-.3-.8-.5-1.4-.5s-1.3.2-1.7.6c-.4.4-.6.9-.6,1.6v3h-.6v-5.7h.5v1.2c.2-.4.5-.7.9-.9.4-.2.9-.3,1.4-.3s1.3.2,1.8.6h0ZM155.4,31.8c-.4-.1-.8-.3-1-.5l.3-.4c.2.2.6.4.9.5.4.1.8.2,1.2.2.6,0,1,0,1.3-.3.3-.2.4-.5.4-.8s0-.4-.2-.6c-.2-.1-.3-.2-.6-.3-.2,0-.5-.1-.9-.2-.5,0-.9-.2-1.1-.3-.3,0-.5-.2-.7-.5-.2-.2-.3-.5-.3-.9s.2-.8.6-1.1c.4-.3.9-.4,1.7-.4s.8,0,1.1.2c.4.1.7.2.9.4l-.3.4c-.2-.2-.5-.3-.8-.4s-.6-.1-1-.1c-.6,0-1,0-1.3.3s-.4.5-.4.8,0,.5.2.6c.2.1.4.2.6.3.2,0,.6.1,1,.2.5,0,.8.2,1.1.3.3,0,.5.2.7.4s.3.5.3.8-.2.9-.6,1.1c-.4.3-1,.4-1.7.4s-.9,0-1.4-.2h0Z"/>
</svg>