<svg width="156" height="28" viewBox="0 0 156 28" fill="none" xmlns="http://www.w3.org/2000/svg">
<path d="M0.737305 27.7219V27.4128C2.93157 27.4128 3.117 26.6402 3.117 25.404V2.59603C3.117 1.35982 2.99338 0.587196 0.737305 0.587196V0.278146H5.83664L17.5188 24.6004L29.1082 0.278146H34.2075V0.587196C32.0132 0.587196 31.8278 1.35982 31.8278 2.59603V25.3731C31.8278 26.6711 31.9514 27.3819 34.2075 27.3819V27.6909H26.3267V27.3819C28.521 27.3819 28.7682 26.6093 28.7682 25.3731V2.13245L16.4989 27.9382H15.7263L3.58057 2.4415V25.3422C3.58057 26.6402 3.70419 27.351 5.96026 27.351V27.66H0.737305V27.7219ZM36.4018 0.278146H44.2826V0.525386C42.0883 0.525386 41.8411 1.29801 41.8411 2.53422V25.3113C41.8411 26.5475 42.0265 27.3201 44.2826 27.3201V27.6291H36.4018V27.3201C38.596 27.3201 38.7815 26.5475 38.7815 25.3113V2.59603C38.7815 1.35982 38.6578 0.587196 36.4018 0.587196V0.339956V0.278146ZM46.415 0.278146H54.2958V0.525386C52.1015 0.525386 51.8543 1.29801 51.8543 2.53422V27.1038H56.8918C63.8455 27.1038 65.8543 24.1369 66.6269 18.8521H66.9978L65.6998 27.5673H46.415V27.3201C48.6093 27.3201 48.7947 26.5475 48.7947 25.3113V2.59603C48.7947 1.35982 48.6711 0.587196 46.415 0.587196V0.339956V0.278146ZM69.1611 0.278146H77.0419V0.525386C74.8477 0.525386 74.6004 1.29801 74.6004 2.53422V27.1038H79.638C86.5916 27.1038 88.6004 24.1369 89.3731 18.8521H89.7439L88.4459 27.5673H69.1611V27.3201C71.3554 27.3201 71.5408 26.5475 71.5408 25.3113V2.59603C71.5408 1.35982 71.4172 0.587196 69.1611 0.587196V0.339956V0.278146ZM92.0927 0.432671H99.9735V0.679912C97.7793 0.679912 97.532 1.45254 97.532 2.68874V25.4658C97.532 26.702 97.7174 27.4746 99.9735 27.4746V27.7837H92.0927V27.4746C94.287 27.4746 94.4724 26.702 94.4724 25.4658V2.75055C94.4724 1.51435 94.3488 0.741722 92.0927 0.741722V0.494481V0.432671ZM115.611 0C122.256 0 128.901 4.69757 128.901 14C128.901 23.3024 122.256 28 115.611 28C108.967 28 102.322 23.2406 102.322 14C102.322 4.75938 108.967 0 115.611 0ZM105.598 14C105.598 23.5497 110.636 27.4746 115.581 27.4746C120.525 27.4746 125.563 23.5497 125.563 14C125.563 4.45033 120.525 0.525386 115.581 0.525386C110.636 0.525386 105.598 4.45033 105.598 14ZM131.28 0.278146H136.38L152.358 23.0552V2.59603C152.358 1.35982 152.172 0.587196 149.916 0.587196V0.278146H155.263V0.587196C153.068 0.587196 152.883 1.35982 152.883 2.59603V27.9382H152.11L134.247 2.4106V25.3113C134.247 26.6093 134.433 27.3201 136.689 27.3201V27.6291H131.342V27.3201C133.536 27.3201 133.722 26.5475 133.722 25.3113V2.59603C133.722 1.35982 133.598 0.587196 131.342 0.587196V0.278146H131.28Z" fill="#F9F9F9"/>
</svg>
