<svg width="127" height="231" viewBox="0 0 127 231" fill="none" xmlns="http://www.w3.org/2000/svg">
<g style="mix-blend-mode:multiply">
<path d="M89.8186 224.484H28.1913C27.1946 224.484 26.3838 225.734 26.3838 227.274C26.3838 228.814 27.1946 230.063 28.1913 230.063H89.8186C90.8154 230.063 91.6261 228.814 91.6261 227.274C91.6261 225.734 90.8154 224.484 89.8186 224.484Z" fill="#E8E0E4"/>
</g>
<path d="M82.2459 95.5544C81.1971 95.6139 80.1334 95.4726 79.1069 95.123C76.9944 94.4089 75.2836 92.9212 74.2943 90.9203L57.6471 57.3581C56.5239 55.0894 57.4463 52.3372 59.715 51.214C61.9837 50.0908 64.7359 51.0132 65.8591 53.2819L82.1418 86.115L104.316 75.1136C106.584 73.9904 109.337 74.9128 110.46 77.1815C111.583 79.4502 110.661 82.2024 108.392 83.3256L85.4891 94.6841C84.4626 95.1973 83.3617 95.48 82.2459 95.547V95.5544Z" fill="black"/>
<path d="M112.957 68.6683L107.064 71.5869C106.431 71.9005 106.172 72.6681 106.486 73.3013L109.771 79.9335C110.085 80.5667 110.852 80.8257 111.485 80.5121L117.378 77.5935C118.011 77.2799 118.27 76.5124 117.956 75.8792L114.671 69.2469C114.358 68.6138 113.59 68.3547 112.957 68.6683Z" fill="#F8A69D"/>
<path d="M106.816 73.7273L102.283 75.9724C102.247 75.9906 102.232 76.0352 102.25 76.072L106.324 84.2973C106.342 84.3341 106.387 84.3492 106.424 84.331L110.956 82.0859C110.993 82.0677 111.008 82.023 110.99 81.9862L106.916 73.7609C106.897 73.7241 106.853 73.7091 106.816 73.7273Z" fill="#222222"/>
<path d="M125.612 72.9565L112.379 73.1351C112.097 73.1351 111.874 73.3731 111.881 73.6558L112.008 78.7734C112.008 79.0486 112.246 79.2718 112.521 79.2718L121.179 79.1527C123.983 79.1156 126.207 76.7948 126.14 73.9979L126.126 73.4549C126.126 73.1797 125.888 72.9565 125.612 72.9565Z" fill="#F8A69D"/>
<path d="M71.1181 220.944C68.1204 220.944 65.6881 218.511 65.6881 215.514V194.151C65.6881 179.794 63.8285 165.475 60.1613 151.595L51.9195 120.376C51.1534 117.475 52.8865 114.5 55.7875 113.734C58.6885 112.968 61.6639 114.701 62.43 117.602L70.6718 148.821C74.577 163.601 76.5556 178.857 76.5556 194.151V215.514C76.5556 218.511 74.1232 220.944 71.1255 220.944H71.1181Z" fill="#00A6D1"/>
<path d="M84.7449 227.192C78.333 227.222 71.9136 227.244 65.4943 227.274C63.2107 224.775 64.2967 221.063 65.3083 218.132C69.0796 218.11 72.8806 218.095 76.637 218.073C76.6668 218.63 76.7784 218.891 77.3809 219.203C78.9355 219.999 83.1829 221.792 85.8756 223.793C87.3261 224.871 86.5524 227.177 84.7449 227.185V227.192Z" fill="#C66950"/>
<path d="M65.1382 218.556C69.0657 218.556 72.9932 218.571 76.9132 218.578C77.0397 218.578 77.1364 218.474 77.1364 218.348C77.1364 217.775 77.1364 217.202 77.1364 216.622C77.1364 216.496 77.0322 216.391 76.9132 216.391C72.9857 216.391 69.0582 216.391 65.1382 216.391C65.0117 216.391 64.915 216.496 64.915 216.615C64.915 217.18 64.915 217.753 64.915 218.318C64.915 218.444 65.0192 218.541 65.1382 218.541V218.556Z" fill="#604C61"/>
<path d="M38.7837 220.944C38.7465 220.944 38.7018 220.944 38.6646 220.944C35.667 220.877 33.2867 218.392 33.3536 215.395C33.3611 214.993 34.2314 175.257 34.2314 162.284C34.2314 151.209 33.3611 118.167 33.3536 117.84C33.2718 114.842 35.6446 112.343 38.6423 112.261C38.6944 112.261 38.739 112.261 38.7911 112.261C41.7218 112.261 44.1393 114.597 44.2211 117.55C44.2583 118.911 45.1063 151.067 45.1063 162.284C45.1063 175.376 44.2286 215.231 44.2211 215.633C44.1542 218.593 41.7367 220.944 38.7911 220.944H38.7837Z" fill="#00A6D1"/>
<path d="M52.3289 227.192C45.917 227.222 39.4976 227.244 33.0783 227.274C30.7947 224.775 31.8807 221.063 32.8923 218.132C36.6636 218.11 40.4646 218.095 44.221 218.073C44.2508 218.63 44.3624 218.891 44.9649 219.203C46.5195 219.999 50.7668 221.792 53.4595 223.793C54.91 224.871 54.1364 227.177 52.3289 227.185V227.192Z" fill="#C66950"/>
<path d="M32.7212 218.556C36.6487 218.556 40.5762 218.571 44.4962 218.578C44.6227 218.578 44.7194 218.474 44.7194 218.348C44.7194 217.775 44.7194 217.202 44.7194 216.622C44.7194 216.496 44.6152 216.391 44.4962 216.391C40.5687 216.391 36.6412 216.391 32.7212 216.391C32.5947 216.391 32.498 216.496 32.498 216.615C32.498 217.18 32.498 217.753 32.498 218.318C32.498 218.444 32.6022 218.541 32.7212 218.541V218.556Z" fill="#604C61"/>
<path d="M61.5823 127.859C56.7399 132.955 41.0374 132.27 36.6264 127.859C31.4641 122.697 36.6264 98.6561 36.6264 98.6561H61.5823C61.5823 98.6561 66.6106 122.571 61.5823 127.859Z" fill="#00A6D1"/>
<path d="M36.455 104.495H62.0878V50.3362L45.0241 46.5947L35.9492 49.1312L36.455 104.495Z" fill="#222222"/>
<path d="M43.2464 104.213C43.2464 104.213 51.2278 106.593 60.1688 106.251C61.0539 106.214 62.3854 106.169 62.3854 106.169C62.3854 106.169 62.3854 106.176 62.3854 106.184L62.5937 104.614L62.549 104.503C62.549 104.503 61.2176 104.547 60.3324 104.585C51.3914 104.927 43.41 102.547 43.41 102.547C43.41 102.547 37.5262 104.525 39.0288 106.615C40.1668 105.247 43.2389 104.213 43.2389 104.213H43.2464Z" fill="#00A6D1"/>
<path d="M53.1623 58.883L40.3311 49.6966V17.8899H52.0763V48.4469L53.1623 58.883Z" fill="#FFB8A7"/>
<path d="M50.2237 42.7862H58.83C62.4897 42.7862 65.4502 39.8182 65.4502 36.166V15.9781C65.4502 11.6341 61.9243 8.10828 57.5803 8.10828H51.4734C47.1293 8.10828 43.6035 11.6341 43.6035 15.9781V36.166C43.6035 39.8257 46.5715 42.7862 50.2237 42.7862Z" fill="#FFB8A7"/>
<path d="M45.9837 13.5236H40.3379V22.2637H45.9837V13.5236Z" fill="#D79A80"/>
<path d="M45.9397 13.583H40.2939V26.4292H45.9397V13.583Z" fill="#222222"/>
<path d="M52.0759 36.5677H50.0824C47.8211 36.5677 45.9838 34.7304 45.9838 32.4692V31.0112H43.6035V38.1521V39.2679C43.6035 44.3186 47.3153 48.5064 52.1577 49.2428L52.0759 48.4469V36.5677Z" fill="#F8A69D"/>
<path d="M39.6613 27.3813H43.6036V25.3804C43.6036 23.2009 41.8407 21.438 39.6613 21.438C38.0248 21.438 36.6934 22.7695 36.6934 24.4059C36.6934 26.0424 38.0248 27.3738 39.6613 27.3738V27.3813Z" fill="#FFB8A7"/>
<path d="M39.6611 26.0201C40.5686 26.0201 41.3124 25.2837 41.3124 24.3687C41.3124 23.4612 40.576 22.7174 39.6611 22.7174C38.7536 22.7174 38.0098 23.4538 38.0098 24.3687C38.0098 25.2762 38.7462 26.0201 39.6611 26.0201Z" fill="#F8A69D"/>
<path d="M62.1107 16.536H40.3311C40.3311 9.96788 45.657 4.64197 52.2251 4.64197H70.2633V8.39093C70.2633 12.8912 66.6184 16.536 62.1182 16.536H62.1107Z" fill="black"/>
<path d="M54.8654 16.5361H50.3057C50.3057 9.09029 56.3457 3.05029 63.7915 3.05029H67.7041V3.69743C67.7041 10.7862 61.9542 16.5361 54.8654 16.5361Z" fill="#222222"/>
<path d="M48.208 16.5361V13.1218C48.208 5.99584 53.9802 0.223633 61.1062 0.223633V3.63787C61.1062 10.7639 55.334 16.5361 48.208 16.5361Z" fill="black"/>
<path d="M43.6035 37.1777C43.6035 40.8374 46.5715 43.7979 50.2237 43.7979H58.83C62.4897 43.7979 65.4502 40.8299 65.4502 37.1777V34.4627C65.4502 32.5584 63.903 31.0112 61.9987 31.0112H48.2823C45.6937 31.0112 43.6035 33.1089 43.6035 35.69V37.1777Z" fill="black"/>
<path d="M59.9836 38.7695H53.1551C51.6823 38.7695 50.4922 37.5794 50.4922 36.1066C50.4922 33.9345 52.2551 32.1716 54.4271 32.1716H59.9985C61.687 32.1716 63.0557 33.5403 63.0557 35.2288V35.7049C63.0557 37.4008 61.6796 38.7769 59.9836 38.7769V38.7695Z" fill="#FFB8A7"/>
<path d="M45.9838 35.1099H43.6035V24.6143C44.9201 24.6143 45.9838 25.678 45.9838 26.9946V35.1099Z" fill="black"/>
<path d="M52.9685 48.7147L52.4999 48.6031C52.2916 48.551 52.0908 48.7221 52.1057 48.9378L52.7975 58.035C52.7975 58.035 52.7082 57.9086 52.6561 57.8491C52.5743 57.7375 52.4925 57.6185 52.4032 57.5069C48.6691 52.5975 42.168 49.3321 40.2786 48.4469V48.6626L39.5496 48.8783C39.1331 48.9973 39.0736 49.5701 39.4604 49.7709C45.2475 52.8579 50.5511 58.0796 52.3958 59.9988C52.8272 60.4451 53.4669 60.6236 54.0694 60.4599C54.2108 60.4227 54.3075 60.2889 54.3 60.1401L53.8091 49.7412C53.7868 49.2502 53.4372 48.8263 52.9537 48.7147H52.9685Z" fill="black"/>
<path d="M40.2939 17.3098V13.8955C40.2939 6.76953 46.0662 0.997314 53.1922 0.997314V4.41155C53.1922 11.5376 47.4199 17.3098 40.2939 17.3098Z" fill="#222222"/>
<path d="M52.3212 23.9224H51.4658C50.6401 23.9224 49.9707 24.5918 49.9707 25.4175V26.8085C49.9707 27.6342 50.6401 28.3036 51.4658 28.3036H52.3212C53.147 28.3036 53.8164 27.6342 53.8164 26.8085V25.4175C53.8164 24.5918 53.147 23.9224 52.3212 23.9224Z" fill="#EEECF1"/>
<path d="M52.0987 24.8373H51.1838C50.5963 24.8373 50.1201 25.3135 50.1201 25.901V27.2399C50.1201 27.8274 50.5963 28.3036 51.1838 28.3036H52.0987C52.6862 28.3036 53.1624 27.8274 53.1624 27.2399V25.901C53.1624 25.3135 52.6862 24.8373 52.0987 24.8373Z" fill="#222222"/>
<path d="M54.7612 21.6909H48.6171C48.4446 21.6909 48.3047 21.8308 48.3047 22.0033V23.0001C48.3047 23.1726 48.4446 23.3125 48.6171 23.3125H54.7612C54.9338 23.3125 55.0737 23.1726 55.0737 23.0001V22.0033C55.0737 21.8308 54.9338 21.6909 54.7612 21.6909Z" fill="#222222"/>
<path d="M63.6279 23.9224H62.7725C61.9467 23.9224 61.2773 24.5918 61.2773 25.4175V26.8085C61.2773 27.6342 61.9467 28.3036 62.7725 28.3036H63.6279C64.4536 28.3036 65.123 27.6342 65.123 26.8085V25.4175C65.123 24.5918 64.4536 23.9224 63.6279 23.9224Z" fill="#EEECF1"/>
<path d="M63.1807 24.8373H62.3401C61.7321 24.8373 61.2393 25.3302 61.2393 25.9382V27.2027C61.2393 27.8107 61.7321 28.3036 62.3401 28.3036H63.1807C63.7887 28.3036 64.2816 27.8107 64.2816 27.2027V25.9382C64.2816 25.3302 63.7887 24.8373 63.1807 24.8373Z" fill="#222222"/>
<path d="M60.3325 23.3051H66.4767C66.6492 23.3051 66.7891 23.1652 66.7891 22.9926V21.9959C66.7891 21.8233 66.6492 21.6835 66.4767 21.6835H60.3325C60.16 21.6835 60.0201 21.8233 60.0201 21.9959V22.9926C60.0201 23.1652 60.16 23.3051 60.3325 23.3051Z" fill="#222222"/>
<path d="M60.5402 35.8536C60.8601 35.3701 61.0907 34.7974 61.2022 34.1651C61.2841 33.7114 60.9196 33.3022 60.4584 33.3022H55.4077C54.9465 33.3022 54.5821 33.7188 54.6639 34.1725C54.7978 34.8494 55.0655 35.4668 55.4375 35.9726C56.0028 35.1321 56.8359 34.5668 57.8029 34.4924C58.874 34.4106 59.8633 34.9461 60.5253 35.8536H60.5402Z" fill="#DCFCEC"/>
<path d="M60.541 35.8536C59.879 34.9461 58.8897 34.4031 57.8185 34.4923C56.8515 34.5667 56.0184 35.132 55.4531 35.9726C56.0705 36.8057 56.9706 37.3412 57.9673 37.3412C59.0087 37.3412 59.9385 36.7611 60.5484 35.8536H60.541Z" fill="#FB9B97"/>
<path d="M65.1745 29.0326H62.7793C62.3397 29.0326 61.9834 29.3873 61.9834 29.8248C61.9834 30.2623 62.3397 30.617 62.7793 30.617H65.1745C65.614 30.617 65.9704 30.2623 65.9704 29.8248C65.9704 29.3873 65.614 29.0326 65.1745 29.0326Z" fill="#F8A69D"/>
<path d="M52.8864 29.0326H50.4912C50.0517 29.0326 49.6953 29.3873 49.6953 29.8248C49.6953 30.2623 50.0517 30.617 50.4912 30.617H52.8864C53.326 30.617 53.6823 30.2623 53.6823 29.8248C53.6823 29.3873 53.326 29.0326 52.8864 29.0326Z" fill="#F8A69D"/>
<path d="M37.5708 99.8761L40.8288 98.0017L39.6163 95.8966C39.2519 95.2569 38.4411 95.0412 37.8014 95.4057L35.6963 96.6181L37.5708 99.8761Z" fill="#F29E9E"/>
<path d="M43.3359 108.579C53.7497 111.183 63.1592 109.873 63.1592 109.873L62.8766 107.077L62.6683 106.058C62.6683 106.058 60.9649 106.139 60.0797 106.177C51.1388 106.519 35.8528 102.264 35.8528 102.264C35.8528 102.264 35.0792 103.848 35.228 105.864C35.7264 106.556 40.7399 107.939 43.3284 108.579H43.3359Z" fill="#222222"/>
<path d="M55.0885 110.684C55.0885 110.684 55.029 110.684 54.9992 110.684L51.4065 110.402C50.7891 110.349 50.3279 109.806 50.38 109.189L50.5883 106.489C50.6329 105.872 51.1759 105.403 51.7933 105.448L55.386 105.73C55.6836 105.753 55.9588 105.894 56.1522 106.124C56.3456 106.355 56.4423 106.645 56.42 106.95L56.2117 109.65C56.1894 109.948 56.0481 110.223 55.8249 110.424C55.6241 110.602 55.3637 110.692 55.096 110.692L55.0885 110.684ZM51.704 106.072C51.4511 106.072 51.2354 106.273 51.2131 106.534L51.0048 109.234C50.9825 109.509 51.1908 109.747 51.4586 109.769L55.0513 110.052C55.1852 110.059 55.3117 110.022 55.4084 109.933C55.5051 109.844 55.572 109.725 55.5794 109.591L55.7877 106.891C55.7952 106.757 55.758 106.63 55.6687 106.526C55.5794 106.422 55.4604 106.362 55.334 106.355L51.7412 106.072C51.7412 106.072 51.7189 106.072 51.704 106.072Z" fill="#BFBFBF"/>
<path d="M34.7893 99.7572C34.6703 100.337 34.5141 100.865 34.3281 101.371C37.3184 102.509 42.5996 104.295 47.8586 105.016C48.0222 94.1858 47.9776 80.4842 46.3337 70.6655C44.6898 60.8765 37.8391 49.2875 37.8391 49.2875L40.2268 48.5957V46.9965C40.2268 46.9965 23.9664 48.1717 22.8804 53.4084C20.7828 63.48 26.8674 73.8417 31.509 82.4405C36.1505 91.0468 35.8084 94.6618 34.7893 99.7572Z" fill="black"/>
<path d="M52.9686 48.789C53.1992 48.789 53.4223 48.8783 53.5934 49.0419C54.2926 49.7412 56.1894 51.7272 57.0299 53.5124C60.764 61.4344 60.764 81.1834 59.4102 96.4098C59.1573 99.2215 59.0086 102.427 58.9193 105.507C60.9426 105.455 62.5195 105.299 63.8138 105.083C63.3526 102.978 62.9435 100.91 62.8319 98.9017C62.4897 92.7055 63.9328 85.572 64.87 81.161C65.8073 76.75 67.5032 55.3497 64.5279 51.7049C62.5046 49.2205 56.6431 47.6658 53.0429 47.2493C52.7826 47.2195 51.9941 47.1526 51.9941 47.1526V48.8411L52.9686 48.789Z" fill="black"/>
<path d="M38.5753 49.0717L40.2192 48.5956V47.7328C40.2192 47.7328 36.1429 48.2832 33.0783 49.2949C33.0113 49.3172 32.9146 49.3692 32.8551 49.4064C32.5353 49.6296 31.7617 50.2321 31.4939 50.8718C31.4939 50.8718 31.4939 50.8792 31.4939 50.8867C31.2856 51.3925 31.4046 51.9281 32.3344 52.3223C32.3344 52.3223 32.3493 52.3223 32.3567 52.3297C32.5725 52.419 32.8254 52.5008 33.1303 52.5752C36.9314 53.4901 37.7124 54.6728 37.7124 54.6728L32.989 56.8746C32.2675 57.2986 32.0295 58.2284 32.4534 58.9499C32.7063 59.3739 36.9834 61.1443 37.2735 61.2633C50.7073 66.6636 47.903 96.9528 47.9254 97.771C47.9328 88.5251 47.6353 78.3939 46.341 70.6654C44.9351 62.26 39.6836 52.538 38.2257 49.9494C38.0323 49.6073 38.2108 49.1833 38.5827 49.0717H38.5753Z" fill="#424242"/>
<path d="M63.7611 59.783C63.8801 59.664 65.3752 57.2911 64.8546 56.9564L59.6402 54.1C59.6402 54.1 61.1949 53.1628 61.2841 52.5082C61.3734 51.8536 57.855 49.2799 53.3845 47.9782C53.1837 47.9187 52.8341 47.8518 52.6481 47.8369C52.2911 47.7997 52.001 47.7997 52.001 47.7997V48.7964L52.9754 48.7816C53.206 48.7816 53.4291 48.8708 53.6002 49.0345C54.2994 49.7337 56.1962 51.7197 57.0368 53.5049C60.6891 61.2483 60.7709 80.2609 59.5063 95.3386C61.2246 89.1275 57.7211 65.823 63.7685 59.783H63.7611Z" fill="#424242"/>
<path d="M30.4454 105.076C29.9991 105.076 29.5528 105.009 29.1065 104.875L7.42349 98.2694C4.51507 97.3842 2.23892 95.2419 1.18266 92.3856C0.126406 89.5367 0.453702 86.4274 2.08272 83.8537L21.4152 53.3562C22.769 51.214 25.603 50.5817 27.7378 51.9355C29.8726 53.2893 30.5123 56.1233 29.1586 58.2581L9.82611 88.7556C9.79636 88.8077 9.69222 88.9639 9.78148 89.1871C9.8633 89.4177 10.0418 89.4697 10.1013 89.4846L31.7843 96.0899C34.2092 96.8263 35.5705 99.3926 34.8341 101.81C34.2316 103.789 32.4166 105.061 30.4528 105.061L30.4454 105.076Z" fill="black"/>
<path d="M12.9124 93.8437C12.9124 93.8437 8.73199 80.4694 12.057 75.508C15.3819 70.5391 14.4224 69.5424 14.4224 69.5424C14.4224 69.5424 18.8036 65.2132 23.0658 64.2983C27.328 63.3759 35.6888 61.8139 43.4025 67.9134C51.1161 74.0129 50.5508 85.3713 50.6549 88.6442C50.759 91.9171 49.8218 97.0124 47.3448 101.089C44.8678 105.158 45.8497 105.723 43.9752 106.779C42.1007 107.835 39.356 107.679 34.3276 105.44C29.2992 103.201 20.7525 99.0134 19.3392 98.4257C17.9184 97.8381 14.0728 95.2272 12.9198 93.8586L12.9124 93.8437Z" fill="#D25158"/>
<path d="M20.1346 76.4676C20.1346 76.4676 30.2434 78.7066 39.5191 78.9372C48.7948 79.1678 50.2974 79.1008 50.2974 79.1008C50.2974 79.1008 50.9371 83.0432 50.9074 86.2715C50.8776 89.4997 49.561 95.8596 49.561 95.8596C49.561 95.8596 46.5931 98.3961 36.6182 95.5844C26.6432 92.7726 20.2388 89.2766 18.8403 86.874C17.4419 84.4788 15.3666 76.1701 20.1346 76.4676Z" fill="#222222"/>
<path d="M34.4169 97.4129L32.2555 104.491C32.0491 105.167 32.4297 105.882 33.1055 106.089L39.3944 108.009C40.0702 108.215 40.7853 107.835 40.9917 107.159L43.1531 100.08C43.3594 99.4047 42.9789 98.6895 42.3031 98.4832L36.0142 96.5629C35.3384 96.3565 34.6233 96.7371 34.4169 97.4129Z" fill="#FFB8A7"/>
<path d="M29.5978 95.4435L26.9172 104.222C26.9052 104.262 26.9274 104.303 26.9667 104.315L31.8043 105.792C31.8436 105.804 31.8851 105.782 31.8971 105.743L34.5778 96.9641C34.5898 96.9248 34.5676 96.8832 34.5283 96.8712L29.6907 95.394C29.6514 95.382 29.6098 95.4042 29.5978 95.4435Z" fill="#222222"/>
<path d="M31.7839 96.1049L12.325 90.1765C8.20408 89.1128 3.27241 86.8366 0.572266 89.0682C0.572266 90.1839 0.780535 91.2997 1.18221 92.3857C2.23847 95.2346 4.51462 97.3843 7.42304 98.2695L29.106 104.875C29.5523 105.009 29.9986 105.076 30.445 105.076C32.4087 105.076 34.2237 103.804 34.8262 101.825C35.5626 99.4001 34.2013 96.8413 31.7764 96.1049H31.7839Z" fill="black"/>
<path d="M9.82611 88.7631L29.1586 58.2656C30.5123 56.1233 29.8801 53.2967 27.7378 51.9429C25.5956 50.5891 22.769 51.2214 21.4152 53.3637L2.08272 83.8612C0.453702 86.4274 0.126406 89.5367 1.18266 92.393C1.867 94.2378 3.05715 95.7775 4.5969 96.8784C5.28868 96.2536 6.0697 95.242 6.96975 93.7543C8.026 92.0062 8.94837 90.4739 9.75916 89.1276C9.72196 88.9416 9.78891 88.8152 9.81866 88.7705L9.82611 88.7631Z" fill="black"/>
</svg>
