<svg width="320" height="638" viewBox="0 0 320 638" fill="none" xmlns="http://www.w3.org/2000/svg">
<g style="mix-blend-mode:multiply">
<path d="M292.018 621.716H126.881C124.206 621.716 122.025 625.173 122.025 629.442C122.025 633.711 124.206 637.169 126.881 637.169H292.018C294.692 637.169 296.873 633.711 296.873 629.442C296.873 625.173 294.692 621.716 292.018 621.716Z" fill="#E8E0E4"/>
</g>
<path d="M305.135 219.174C304.059 217.34 302.78 215.656 301.326 214.153C299.756 213.131 298.012 212.379 296.006 212.019C288.447 210.636 284.318 233.453 284.26 233.604L262.135 292.106C259.664 298.63 262.775 305.995 269.113 308.551C273.299 310.234 277.835 309.392 281.12 306.747C282.806 305.394 284.173 303.56 285.016 301.336L307.141 242.833C310.106 234.987 309.379 226.359 305.135 219.143V219.174Z" fill="black"/>
<path d="M256.067 302.073L249.661 319.044C248.973 320.869 249.845 322.926 251.61 323.638L270.081 331.093C271.846 331.805 273.835 330.903 274.524 329.078L280.93 312.107C281.619 310.281 280.746 308.224 278.981 307.512L260.51 300.058C258.745 299.345 256.756 300.248 256.067 302.073Z" fill="#FFB8A7"/>
<path d="M264.125 286.304L259.199 299.355C259.158 299.463 259.21 299.585 259.315 299.627L282.227 308.874C282.332 308.917 282.45 308.863 282.491 308.755L287.417 295.704C287.458 295.596 287.406 295.474 287.301 295.432L264.388 286.185C264.284 286.142 264.166 286.196 264.125 286.304Z" fill="#222222"/>
<path d="M283.793 234.836C283.793 234.836 284.346 234.476 284.433 233.814C284.52 233.153 284.142 232.792 284.026 232.672L214.133 163.497C209.22 158.657 209.074 150.6 213.755 145.55C218.436 140.469 226.228 140.319 231.112 145.159L301.005 214.334C306.906 220.166 309.756 228.313 308.825 236.67C307.895 245.058 283.764 234.836 283.764 234.836H283.793Z" fill="black"/>
<path d="M217.388 261.923C217.388 261.923 206.195 224.886 215.092 211.117C224.017 197.348 221.43 194.582 221.43 194.582C221.43 194.582 233.175 182.587 244.572 180.032C255.998 177.476 278.384 173.147 299.056 190.043C319.727 206.938 318.215 238.414 318.477 247.493C318.767 256.572 316.238 270.701 309.609 281.975C302.98 293.249 305.597 294.812 300.596 297.728C295.567 300.644 288.211 300.223 274.75 294C261.289 287.777 238.379 276.203 234.571 274.58C230.762 272.956 220.47 265.711 217.359 261.923H217.388Z" fill="#D25158"/>
<path d="M236.753 213.762C236.753 213.762 263.85 219.955 288.708 220.617C313.565 221.248 317.578 221.068 317.578 221.068C317.578 221.068 319.293 231.98 319.206 240.939C319.118 249.898 315.601 267.515 315.601 267.515C315.601 267.515 307.634 274.55 280.916 266.763C254.197 258.977 237.015 249.267 233.294 242.623C229.543 235.979 223.99 212.981 236.753 213.792V213.762Z" fill="#222222"/>
<path d="M242.807 611.916C234.754 611.916 228.241 605.182 228.241 596.854V537.661C228.241 497.887 223.27 458.204 213.443 419.754L191.347 333.263C189.283 325.236 193.935 316.999 201.697 314.864C209.46 312.73 217.426 317.54 219.49 325.567L241.586 412.058C252.053 453.033 257.344 495.272 257.344 537.661V596.854C257.344 605.182 250.831 611.916 242.778 611.916H242.807Z" fill="#00A6D1"/>
<path d="M156.16 611.916C156.16 611.916 155.957 611.916 155.841 611.916C147.787 611.735 141.42 604.851 141.595 596.524C141.595 595.411 143.95 485.291 143.95 449.366C143.95 418.671 141.624 327.13 141.595 326.198C141.391 317.87 147.729 310.956 155.753 310.745C155.899 310.745 156.015 310.745 156.16 310.745C164.01 310.745 170.494 317.239 170.697 325.416C170.784 329.204 173.081 418.28 173.081 449.366C173.081 485.621 170.726 596.073 170.726 597.185C170.552 605.392 164.068 611.916 156.189 611.916H156.16Z" fill="#00A6D1"/>
<path d="M217.243 353.976C204.276 368.105 158.544 365.7 146.74 353.464C132.901 339.155 150.374 273.046 150.374 273.046H217.272C217.272 273.046 230.733 339.305 217.272 353.976H217.243Z" fill="#00A6D1"/>
<path d="M151.861 281.223C177.853 286.815 208.496 296.075 218.643 289.25V139.176L172.911 128.834L148.576 135.839L151.861 281.254V281.223Z" fill="#222222"/>
<path d="M168.108 288.439C168.108 288.439 189.506 295.023 213.463 294.091C215.847 294 219.394 293.88 219.394 293.88V293.91L219.975 289.551L219.859 289.22C219.859 289.22 216.283 289.341 213.928 289.431C189.972 290.363 168.574 283.779 168.574 283.779C168.574 283.779 152.816 289.281 156.828 295.053C159.881 291.265 168.108 288.409 168.108 288.409V288.439Z" fill="#00A6D1"/>
<path d="M168.572 300.764C196.482 307.98 221.689 304.372 221.689 304.372L220.933 296.616L220.381 293.79C220.381 293.79 215.816 294.03 213.461 294.121C189.505 295.052 148.54 283.268 148.54 283.268C148.54 283.268 146.476 287.657 146.883 293.249C148.221 295.173 161.653 298.991 168.601 300.795L168.572 300.764Z" fill="#222222"/>
<path d="M200.088 306.597C200.088 306.597 199.943 306.597 199.856 306.597L190.233 305.815C188.575 305.695 187.354 304.161 187.471 302.448L188.023 294.962C188.139 293.249 189.593 291.956 191.25 292.076L200.873 292.858C201.658 292.918 202.385 293.309 202.909 293.94C203.432 294.571 203.694 295.383 203.606 296.225L203.054 303.71C202.996 304.552 202.618 305.304 202.007 305.845C201.455 306.326 200.786 306.597 200.059 306.597H200.088ZM190.988 293.79C190.291 293.79 189.709 294.331 189.68 295.052L189.128 302.538C189.07 303.29 189.622 303.951 190.349 304.011L199.972 304.793C200.321 304.793 200.67 304.703 200.932 304.462C201.193 304.222 201.368 303.891 201.397 303.53L201.949 296.044C201.949 295.684 201.862 295.323 201.629 295.052C201.397 294.782 201.077 294.601 200.728 294.571L191.105 293.79C191.105 293.79 191.047 293.79 190.988 293.79Z" fill="#BFBFBF"/>
<path d="M194.691 162.836L160.326 137.402V49.2579H191.784V133.915L194.691 162.836Z" fill="#FFB8A7"/>
<path d="M186.831 118.222H209.886C219.684 118.222 227.65 110.015 227.65 99.8537V43.9367C227.65 31.8814 218.201 22.1411 206.572 22.1411H190.203C178.545 22.1411 169.125 31.9115 169.125 43.9367V99.8838C169.125 110.015 177.062 118.252 186.889 118.252L186.831 118.222Z" fill="#FFB8A7"/>
<path d="M175.473 37.1425H160.326V61.3431H175.473V37.1425Z" fill="#D79A80"/>
<path d="M175.352 37.3226H160.205V72.9171H175.352V37.3226Z" fill="#222222"/>
<path d="M191.781 100.996H186.431C180.355 100.996 175.441 95.9151 175.441 89.632V85.5735H169.074V105.355V108.451C169.074 122.461 179.017 134.035 192.013 136.079L191.781 133.885V100.966V100.996Z" fill="#F8A69D"/>
<path d="M158.519 75.5627H169.073V70.0311C169.073 63.9885 164.334 59.1183 158.519 59.1183C154.129 59.1183 150.553 62.816 150.553 67.3555C150.553 71.895 154.1 75.5928 158.519 75.5928V75.5627Z" fill="#FFB8A7"/>
<path d="M158.515 71.7749C160.957 71.7749 162.934 69.7306 162.934 67.2053C162.934 64.68 160.957 62.6357 158.515 62.6357C156.073 62.6357 154.096 64.68 154.096 67.2053C154.096 69.7306 156.073 71.7749 158.515 71.7749Z" fill="#F8A69D"/>
<path d="M218.668 45.4998H160.289C160.289 27.3117 174.564 12.5508 192.154 12.5508L240.474 12.5508V22.9225C240.474 35.3986 230.705 45.4998 218.639 45.4998H218.668Z" fill="black"/>
<path d="M199.246 45.4999H187.035C187.035 24.8466 203.229 8.13165 223.173 8.13165H233.64V9.93543C233.64 29.5966 218.231 45.5299 199.217 45.5299L199.246 45.4999Z" fill="#222222"/>
<path d="M181.424 45.5001V36.0303C181.424 16.2789 196.891 0.285461 215.992 0.285461V9.75529C215.992 29.5066 200.525 45.5001 181.424 45.5001Z" fill="black"/>
<path d="M169.074 102.71C169.074 112.841 177.011 121.078 186.838 121.078H209.893C219.691 121.078 227.657 112.871 227.657 102.71V95.1939C227.657 89.9028 223.529 85.6339 218.412 85.6339H181.663C174.744 85.6339 169.103 91.436 169.103 98.621V102.74L169.074 102.71Z" fill="black"/>
<path d="M212.967 107.099H194.679C190.725 107.099 187.527 103.792 187.527 99.7031C187.527 93.6905 192.237 88.7902 198.081 88.7902H213.025C217.531 88.7902 221.223 92.5781 221.223 97.268V98.5907C221.223 103.281 217.531 107.099 212.996 107.099H212.967Z" fill="#FFB8A7"/>
<path d="M175.465 96.9677H169.098V67.8668C172.616 67.8668 175.465 70.813 175.465 74.4506V96.9377V96.9677Z" fill="black"/>
<path d="M194.191 134.667L192.941 134.366C192.389 134.216 191.837 134.697 191.895 135.298L193.755 160.521C193.755 160.521 193.523 160.19 193.377 160.01C193.145 159.679 192.941 159.378 192.709 159.078C182.707 145.489 165.263 136.41 160.234 133.975V134.576L158.286 135.178C157.152 135.508 157.007 137.102 158.053 137.673C173.578 146.211 187.766 160.701 192.709 166.022C193.872 167.255 195.587 167.766 197.186 167.285C197.564 167.165 197.826 166.804 197.826 166.383L196.517 137.553C196.459 136.17 195.529 135.027 194.221 134.697L194.191 134.667Z" fill="black"/>
<path d="M160.205 47.6346V38.1648C160.205 18.4135 175.672 2.41998 194.773 2.41998V11.8898C194.773 31.6412 179.306 47.6346 160.205 47.6346Z" fill="#222222"/>
<path d="M192.42 65.9729H190.153C187.937 65.9729 186.141 67.8303 186.141 70.1216V73.9696C186.141 76.2609 187.937 78.1183 190.153 78.1183H192.42C194.636 78.1183 196.433 76.2609 196.433 73.9696V70.1216C196.433 67.8303 194.636 65.9729 192.42 65.9729Z" fill="#EEECF1"/>
<path d="M190.061 67.8968H187.619C186.045 67.8968 184.77 69.2158 184.77 70.843V74.5407C184.77 76.1678 186.045 77.4869 187.619 77.4869H190.061C191.634 77.4869 192.91 76.1678 192.91 74.5407V70.843C192.91 69.2158 191.634 67.8968 190.061 67.8968Z" fill="#222222"/>
<path d="M198.986 59.7801H182.531C182.065 59.7801 181.688 60.1704 181.688 60.6519V63.4177C181.688 63.8992 182.065 64.2895 182.531 64.2895H198.986C199.452 64.2895 199.829 63.8992 199.829 63.4177V60.6519C199.829 60.1704 199.452 59.7801 198.986 59.7801Z" fill="#222222"/>
<path d="M222.737 65.9729H220.469C218.253 65.9729 216.457 67.8303 216.457 70.1216V73.9696C216.457 76.2609 218.253 78.1183 220.469 78.1183H222.737C224.953 78.1183 226.749 76.2609 226.749 73.9696V70.1216C226.749 67.8303 224.953 65.9729 222.737 65.9729Z" fill="#EEECF1"/>
<path d="M220.089 67.8968H217.88C216.242 67.8968 214.914 69.2697 214.914 70.9632V74.4204C214.914 76.114 216.242 77.4869 217.88 77.4869H220.089C221.727 77.4869 223.055 76.114 223.055 74.4204V70.9632C223.055 69.2697 221.727 67.8968 220.089 67.8968Z" fill="#222222"/>
<path d="M213.928 64.2594H230.383C230.849 64.2594 231.227 63.8691 231.227 63.3876V60.6218C231.227 60.1403 230.849 59.75 230.383 59.75H213.928C213.462 59.75 213.085 60.1403 213.085 60.6218V63.3876C213.085 63.8691 213.462 64.2594 213.928 64.2594Z" fill="#222222"/>
<path d="M214.453 99.042C215.326 97.7192 215.936 96.1259 216.227 94.3822C216.43 93.1196 215.471 91.9772 214.25 91.9772H200.731C199.481 91.9772 198.521 93.1196 198.754 94.3822C199.103 96.2762 199.829 97.9597 200.847 99.3727C202.359 97.0578 204.597 95.4945 207.185 95.2841C210.063 95.0436 212.709 96.5467 214.482 99.072L214.453 99.042Z" fill="#DCFCEC"/>
<path d="M214.45 99.0418C212.676 96.5466 210.031 95.0434 207.152 95.2539C204.565 95.4643 202.326 97.0276 200.814 99.3424C202.472 101.657 204.885 103.13 207.559 103.13C210.351 103.13 212.851 101.537 214.479 99.0117L214.45 99.0418Z" fill="#FB9B97"/>
<path d="M226.924 80.1324H220.47C219.298 80.1324 218.348 81.1149 218.348 82.327C218.348 83.539 219.298 84.5216 220.47 84.5216H226.924C228.096 84.5216 229.047 83.539 229.047 82.327C229.047 81.1149 228.096 80.1324 226.924 80.1324Z" fill="#F8A69D"/>
<path d="M193.987 80.1324H187.533C186.36 80.1324 185.41 81.1149 185.41 82.327C185.41 83.539 186.36 84.5216 187.533 84.5216H193.987C195.159 84.5216 196.109 83.539 196.109 82.327C196.109 81.1149 195.159 80.1324 193.987 80.1324Z" fill="#F8A69D"/>
<path d="M38.4721 218.572C34.5472 218.572 30.6223 217.52 27.0463 215.386C19.8361 211.117 15.5332 203.421 15.5332 194.823L15.5332 132.682C15.5332 125.678 21.0281 119.966 27.8313 119.966C34.6344 119.966 40.1293 125.648 40.1293 132.682V191.876L114.615 147.053C120.488 143.535 127.989 145.579 131.42 151.652C134.821 157.725 132.844 165.481 126.972 169.029L50.0143 215.355C46.4092 217.52 42.4552 218.602 38.4721 218.602V218.572Z" fill="black"/>
<path d="M40.4178 119.815C40.4178 123.453 38.6443 126.399 36.4347 126.399H19.2233C17.0137 126.399 15.2402 123.453 15.2402 119.815V105.956C15.2402 102.319 17.0137 99.3725 19.2233 99.3725H36.4347C38.6443 99.3725 40.4178 102.319 40.4178 105.956V119.815Z" fill="#FFB8A7"/>
<path d="M30.5974 110.947L21.9045 111.067L21.6719 94.1418C21.6719 92.4282 22.9802 90.9852 24.6374 90.9852L30.3067 90.895L30.5683 110.947H30.5974Z" fill="#FFB8A7"/>
<path d="M85.8656 87.1073C88.8311 87.1674 91.186 89.9332 91.1279 93.2702L90.6918 119.515C90.6336 122.852 88.1914 125.528 85.226 125.438L35.1325 124.295C32.167 124.235 29.812 121.469 29.8702 118.132L30.3063 91.8873C30.3644 88.5503 32.8066 85.8747 35.7721 85.9649L85.8656 87.1073Z" fill="#00A6D1"/>
<path d="M87.4928 92.5183C87.6091 93.6006 86.8822 94.5626 85.8356 94.7129C84.789 94.8632 83.8586 94.0816 83.7132 92.9993C83.5679 91.9171 84.3238 90.9551 85.3414 90.8047C86.3589 90.6544 87.3183 91.4361 87.4637 92.4883L87.4928 92.5183Z" fill="#78768F"/>
<path d="M15.2673 116.629C15.0347 120.296 17.8549 123.483 21.5762 123.724L33.758 123.874C37.4794 124.114 40.6484 121.349 40.881 117.681L41.2299 112.029C41.4625 108.361 42.1021 97.9897 30.6181 96.2461L23.2916 96.4265C19.5702 96.186 16.4012 98.9518 16.1686 102.619L15.2964 116.629H15.2673Z" fill="#FFB8A7"/>
<path d="M56.6411 103.161L33.615 102.499C32.016 102.439 30.7367 101.056 30.7949 99.4029C30.853 97.7495 32.1904 96.4267 33.7894 96.4868L56.8156 97.1482C58.4146 97.2083 59.6939 98.5912 59.6357 100.245C59.5776 101.898 58.2402 103.221 56.6411 103.161Z" fill="#FFB8A7"/>
<path d="M51.729 110.707L28.7029 110.045C27.1039 109.985 25.8246 108.602 25.8828 106.949C25.9409 105.295 27.2783 103.973 28.8773 104.033L51.9035 104.694C53.5025 104.754 54.7817 106.137 54.7236 107.791C54.6654 109.444 53.3281 110.767 51.729 110.707Z" fill="#FFB8A7"/>
<path d="M15.879 125.528H40.1262C40.3588 125.528 40.5623 125.768 40.5623 126.009L40.5042 140.108C40.5042 140.349 40.3007 140.559 40.0681 140.559H15.8209C15.5883 140.559 15.3848 140.319 15.3848 140.078L15.4429 125.979C15.4429 125.738 15.6464 125.528 15.879 125.528Z" fill="#222222"/>
<path d="M40.5604 40.0585C40.5604 38.1657 39.0765 36.6313 37.246 36.6313C35.4155 36.6313 33.9316 38.1657 33.9316 40.0585V67.3557C33.9316 69.2484 35.4155 70.7828 37.246 70.7828C39.0765 70.7828 40.5604 69.2484 40.5604 67.3557V40.0585Z" fill="#FFE241"/>
<path d="M19.0796 73.6386C17.684 74.8712 15.5907 74.6908 14.3987 73.2478L0.792382 56.9838C-0.399628 55.5407 -0.225188 53.3762 1.17034 52.1436C2.56586 50.9111 4.65914 51.0914 5.85115 52.5344L19.4575 68.7985C20.6495 70.2415 20.4751 72.406 19.0796 73.6386Z" fill="#FFE241"/>
<path d="M145.669 276.293C145.349 277.917 144.942 279.36 144.447 280.773C152.472 283.929 166.601 288.89 180.702 290.874C181.138 260.871 181.022 222.902 176.603 195.695C172.213 168.578 153.838 136.441 153.838 136.441L160.234 134.517V130.097C160.234 130.097 116.682 133.344 113.746 147.864C108.135 175.793 124.445 204.473 136.888 228.313C149.332 252.153 148.401 262.194 145.698 276.293H145.669Z" fill="black"/>
<path d="M194.392 135.058C195.032 135.058 195.613 135.298 196.049 135.749C197.91 137.673 202.998 143.175 205.266 148.135C215.267 170.081 215.267 224.795 211.633 267.004C210.964 274.79 210.557 283.689 210.324 292.197C215.761 292.046 219.977 291.625 223.437 291.024C222.186 285.192 221.111 279.45 220.82 273.888C219.919 256.722 223.785 236.941 226.286 224.735C228.786 212.5 233.351 153.216 225.384 143.114C219.977 136.23 204.248 131.901 194.625 130.759C193.927 130.668 191.805 130.488 191.805 130.488V135.178L194.421 135.058H194.392Z" fill="black"/>
<path d="M155.812 135.839L160.231 134.516V132.111C160.231 132.111 149.299 133.645 141.101 136.44C140.926 136.501 140.664 136.651 140.49 136.741C139.647 137.372 137.554 139.026 136.827 140.8C136.827 140.8 136.827 140.8 136.827 140.83C136.274 142.243 136.594 143.716 139.094 144.828C139.094 144.828 139.124 144.828 139.153 144.828C139.734 145.068 140.403 145.309 141.217 145.519C151.393 148.045 153.515 151.352 153.515 151.352L140.868 157.454C138.949 158.627 138.28 161.212 139.414 163.196C140.083 164.369 151.538 169.269 152.323 169.6C188.316 184.571 180.786 268.507 180.873 270.762C180.873 245.148 180.088 217.069 176.628 195.664C172.849 172.396 158.806 145.429 154.881 138.244C154.358 137.312 154.823 136.11 155.841 135.809L155.812 135.839Z" fill="#424242"/>
<path d="M223.295 165.541C223.615 165.211 227.627 158.627 226.231 157.695L212.247 149.788C212.247 149.788 216.404 147.203 216.666 145.369C216.928 143.535 207.479 136.41 195.501 132.833C194.977 132.682 194.047 132.502 193.524 132.442C192.564 132.352 191.779 132.352 191.779 132.352V135.118L194.396 135.088C195.036 135.088 195.617 135.328 196.053 135.779C197.914 137.703 203.002 143.205 205.269 148.165C215.038 169.6 215.271 222.3 211.898 264.088C216.492 246.861 207.13 182.286 223.324 165.541H223.295Z" fill="#424242"/>
<path d="M279.317 629.232C262.134 629.322 244.923 629.382 227.74 629.473C221.635 622.528 224.513 612.246 227.246 604.16C237.364 604.099 247.539 604.069 257.599 604.009C257.686 605.573 257.977 606.264 259.605 607.136C263.791 609.36 275.159 614.321 282.369 619.852C286.265 622.829 284.172 629.232 279.346 629.262L279.317 629.232Z" fill="#C66950"/>
<path d="M226.779 605.302C237.303 605.302 247.828 605.362 258.352 605.362C258.701 605.362 258.963 605.092 258.963 604.731C258.963 603.137 258.963 601.544 258.963 599.951C258.963 599.59 258.701 599.319 258.352 599.319C247.828 599.319 237.303 599.319 226.779 599.319C226.459 599.319 226.168 599.59 226.168 599.951C226.168 601.514 226.168 603.107 226.168 604.671C226.168 605.031 226.43 605.302 226.779 605.302Z" fill="#604C61"/>
<path d="M192.471 629.232C175.288 629.322 158.077 629.382 140.895 629.473C134.789 622.528 137.667 612.246 140.4 604.16C150.518 604.099 160.694 604.069 170.753 604.009C170.84 605.573 171.131 606.264 172.759 607.136C176.946 609.36 188.313 614.321 195.524 619.852C199.419 622.829 197.326 629.232 192.5 629.262L192.471 629.232Z" fill="#C66950"/>
<path d="M139.909 605.302C150.434 605.302 160.959 605.362 171.483 605.362C171.832 605.362 172.094 605.092 172.094 604.731C172.094 603.137 172.094 601.544 172.094 599.951C172.094 599.59 171.832 599.319 171.483 599.319C160.959 599.319 150.434 599.319 139.909 599.319C139.59 599.319 139.299 599.59 139.299 599.951C139.299 601.514 139.299 603.107 139.299 604.671C139.299 605.031 139.56 605.302 139.909 605.302Z" fill="#604C61"/>
</svg>
