<svg width="137" height="225" viewBox="0 0 137 225" fill="none" xmlns="http://www.w3.org/2000/svg">
<path d="M84.8495 55.0136C82.9452 55.0136 81.3981 53.5185 81.3906 51.6812C81.3906 49.8365 82.9304 48.3339 84.8421 48.3265L122.979 48.2298C123.083 48.2298 123.172 48.1926 123.247 48.1257C123.321 48.0513 123.358 47.9694 123.358 47.8653L123.291 22.6863C123.291 20.8415 124.831 19.339 126.743 19.3315H126.75C128.654 19.3315 130.202 20.8267 130.209 22.664L130.276 47.843C130.276 49.7249 129.525 51.5027 128.156 52.8342C126.78 54.1731 124.95 54.9095 123.001 54.9095L84.8644 55.0062H84.8569L84.8495 55.0136Z" fill="#E49286"/>
<path d="M84.4035 56.1666L98.4695 56.0625C98.953 56.0625 100.27 57.2303 101.251 57.1039C102.159 56.9849 102.992 56.1071 103.55 56.003C104.324 55.8617 104.361 57.0369 106.116 57.0593C106.629 57.0593 107.358 55.9658 107.834 55.9658H109.359C111.636 55.9435 113.577 54.2178 113.607 52.016C113.636 49.777 111.762 47.9546 109.456 47.9695H107.797C106.912 47.9398 106.414 46.6901 105.291 46.9728C104.51 47.1736 104.093 47.9695 103.572 48.0141C102.36 48.1257 102.293 46.7794 101.14 46.8314C100.307 46.8686 99.9572 47.9695 98.4398 48.0662L84.2324 48.1703C81.9265 48.1852 80.0669 50.0225 80.1264 52.2615C80.1785 54.4632 82.1422 56.1741 84.4184 56.1592L84.4035 56.1666Z" fill="#376F80"/>
<path d="M108.534 47.2926L114.373 47.2628C114.812 47.2628 115.177 47.605 115.177 48.029L115.221 55.8319C115.221 56.2559 114.864 56.6055 114.425 56.6129L108.586 56.6427C108.147 56.6427 107.783 56.3005 107.783 55.8765L107.738 48.0736C107.738 47.6496 108.095 47.3 108.534 47.2926Z" fill="#27515E"/>
<path d="M127.338 10.2121C126.862 12.942 126.386 15.6644 125.91 18.3943C125.68 19.7109 127.792 20.0605 128.023 18.7365C128.499 16.0066 128.975 13.2841 129.451 10.5542C129.681 9.23762 127.569 8.88801 127.338 10.2121Z" fill="#E49286"/>
<path d="M130.805 11.7742C129.965 14.4149 129.124 17.0629 128.291 19.7036C127.882 20.983 129.935 21.5929 130.344 20.3135C131.184 17.6729 132.025 15.0248 132.858 12.3842C133.267 11.1048 131.214 10.4948 130.805 11.7742Z" fill="#E49286"/>
<path d="M123.523 11.0973C123.344 13.8569 123.173 16.6166 122.994 19.3762C122.913 20.7077 125.047 20.8416 125.137 19.5027C125.315 16.743 125.486 13.9834 125.665 11.2237C125.747 9.89226 123.612 9.75837 123.523 11.0973Z" fill="#E49286"/>
<path d="M134.695 15.3744C133.029 17.6208 131.356 19.8672 129.689 22.1136C129.042 22.9839 130.537 23.8021 131.177 22.9392C132.843 20.6928 134.517 18.4464 136.183 16.2C136.83 15.3297 135.335 14.5115 134.695 15.3744Z" fill="#E49286"/>
<path d="M119.409 20.2094C120.502 21.7268 121.596 23.2442 122.696 24.7617C123.485 25.8551 125.233 24.6575 124.444 23.5566C123.351 22.0392 122.258 20.5218 121.157 19.0043C120.368 17.9109 118.62 19.1085 119.409 20.2094Z" fill="#E49286"/>
<path d="M130.203 18.0969C131.452 18.1936 132.419 18.863 132.36 19.592L132.003 23.6683C131.943 24.3972 129.831 26.5023 129.526 26.48L124.743 26.1229C123.493 26.0262 122.526 25.3568 122.586 24.6278L123.047 18.8928C123.106 18.1638 124.17 17.6431 125.42 17.7398L130.203 18.0969Z" fill="#E49286"/>
<path d="M89.0231 14.0503C90.7637 15.3743 87.8404 17.1446 88.3165 19.2348C88.7925 21.325 90.8158 20.8936 91.2918 22.9838C91.7679 25.074 89.7372 25.5054 90.2132 27.5956C90.6893 29.6858 92.7126 29.2544 93.1886 31.352C93.6647 33.4422 91.1802 33.8662 90.8232 34.5059C90.2207 35.5696 91.2769 37.5556 89.038 38.4334C86.799 39.3111 86.018 37.4515 83.779 38.3292C81.5401 39.207 82.3211 41.0666 80.0821 41.9443C77.8432 42.822 77.0621 40.9624 74.8232 41.8402C72.5842 42.7179 73.2388 45.2916 70.8362 45.5222C68.1881 45.7751 68.2699 43.127 65.6442 42.7179C63.0184 42.3088 62.6837 44.2874 60.0579 43.8857C57.4321 43.4766 57.7594 41.498 55.1262 41.0889C52.5005 40.6798 52.1657 42.6584 49.54 42.2567C46.9142 41.8476 48.2903 39.7202 46.3563 37.9499C45.5158 37.1763 42.8454 38.6045 42.2355 36.4845C41.6255 34.3646 43.6264 33.8364 43.0239 31.7165C42.4214 29.604 40.48 30.1172 39.818 28.0196C39.6618 27.5212 39.1262 24.7021 40.6064 23.2516C42.2057 21.6895 43.3066 23.4301 45.6125 21.9945C46.6836 21.3325 46.5349 19.8076 49.0862 18.4092C50.5962 17.5835 53.2741 18.2158 54.8064 17.2413C56.7924 15.9694 55.5205 14.3478 58.2057 11.7518C60.6307 9.40868 63.6432 7.54908 66.5591 8.03257C69.4749 8.51607 68.1583 10.4724 71.0742 10.9633C73.9901 11.4468 73.6405 13.4254 76.5563 13.9089C79.4722 14.3924 79.5466 13.0684 82.4996 12.8899C85.8618 12.6816 86.7098 12.3022 89.038 14.0726L89.0231 14.0503Z" fill="#5A3D5B"/>
<path d="M52.627 40.0773C52.3815 38.902 54.4197 38.5078 54.1742 37.3325C53.9287 36.1573 51.898 36.5441 51.6526 35.3688C51.4071 34.1935 53.4452 33.7993 53.1998 32.624C52.9543 31.4488 50.1872 31.0248 50.7897 29.9759C52.2477 27.432 54.5461 29.0982 56.6512 27.0303C58.7637 24.9625 57.2835 23.5492 59.396 21.4813C61.501 19.4134 62.9813 20.8193 65.0938 18.7514C67.2063 16.6835 65.7261 15.2702 67.8311 13.2023C69.5271 11.5361 70.8139 12.1237 72.3537 11.3353C71.9967 11.1642 71.5801 11.0229 71.0445 10.941C68.1287 10.4575 66.76 5.5705 63.8441 5.087C60.9283 4.60351 61.1812 8.06981 58.7711 10.4352C54.6205 14.5115 56.7553 15.9545 54.7693 17.2265C53.2444 18.2009 50.5666 17.5687 49.0491 18.3943C46.4978 19.7928 46.6465 21.3102 45.5754 21.9796C43.2695 23.4153 42.1686 21.6747 40.5693 23.2367C39.0891 24.6872 39.6247 27.5064 39.7809 28.0048C40.4503 30.1024 42.3843 29.5817 42.9868 31.7017C43.5893 33.8142 41.5958 34.3497 42.1984 36.4697C42.8009 38.5822 45.4713 37.1615 46.3192 37.9351C48.2532 39.7054 46.8771 41.8328 49.5029 42.2419C50.4922 42.3981 51.1542 42.2121 51.7418 41.9444C52.4485 41.6171 52.7683 40.8509 52.6047 40.1071V40.0922L52.627 40.0773Z" fill="#754962"/>
<path d="M93.1809 31.3447C92.7049 29.2545 90.6816 29.6859 90.2056 27.5883C89.7295 25.4981 91.7602 25.0667 91.2841 22.9765C90.8081 20.8863 88.7848 21.3177 88.3088 19.2275C87.8327 17.1373 90.756 15.367 89.0154 14.0429C86.6872 12.2726 85.8392 12.652 82.4771 12.8602C79.524 13.0462 79.4496 14.3628 76.5338 13.8793C76.2213 13.8272 75.9536 13.7528 75.7007 13.671C75.7676 13.8719 75.8197 14.0727 75.8271 14.2735C75.8792 15.6794 73.8708 17.2266 73.9526 18.6548C74.0345 20.1499 76.2065 21.4665 76.3255 22.798C76.4817 24.4939 74.6146 26.2717 74.8378 27.3428C75.0684 28.4363 77.3297 29.009 77.59 29.9537C77.8876 31.0472 76.2213 32.639 76.5486 33.5539C76.9429 34.6548 79.2711 34.8928 79.6653 35.7482C80.186 36.8789 78.8694 38.7311 79.3306 39.4749C79.7248 40.1072 80.1265 40.3154 80.5431 40.3675C81.2274 40.4568 81.882 40.0923 82.2465 39.527C82.5514 39.0509 82.968 38.612 83.7639 38.2996C86.0029 37.4219 86.7839 39.2815 89.0229 38.4038C91.2618 37.526 90.2056 35.54 90.8081 34.4763C91.1651 33.844 93.6496 33.42 93.1735 31.3224L93.1809 31.3447Z" fill="#754962"/>
<path d="M88.0041 30.7942C88.4652 30.3776 89.1049 29.7974 89.1049 28.704C89.1049 27.6105 88.4727 27.0303 88.0041 26.6138C87.5875 26.2419 87.4015 26.0559 87.4015 25.6319C87.4015 25.2079 87.5875 25.0294 88.0041 24.65C88.4652 24.2335 89.1049 23.6533 89.1049 22.5598C89.1049 21.4664 88.4727 20.8862 88.0041 20.4697C87.7511 20.2465 87.5875 20.0903 87.4982 19.9118C87.3272 19.577 86.9106 19.406 86.5164 19.5398C86.0626 19.6961 85.8841 20.2167 86.1073 20.6259C86.3304 21.035 86.6577 21.3399 86.9329 21.5854C87.3495 21.9573 87.5354 22.1433 87.5354 22.5598C87.5354 22.9764 87.3495 23.1624 86.9329 23.5417C86.4717 23.9583 85.832 24.5385 85.832 25.6319C85.832 26.7254 86.4643 27.3056 86.9329 27.7221C87.3495 28.094 87.5354 28.28 87.5354 28.704C87.5354 29.128 87.3495 29.3065 86.9329 29.6858C86.4717 30.1024 85.832 30.6826 85.832 31.776C85.832 32.8695 86.4643 33.4497 86.9329 33.8662C87.1784 34.082 87.342 34.2382 87.4313 34.4167C87.5726 34.677 87.8404 34.8481 88.1379 34.8481C88.7181 34.8481 89.1049 34.253 88.8446 33.7547C88.614 33.3158 88.2793 33.0108 88.0041 32.7579C87.5875 32.386 87.4015 32.2 87.4015 31.776C87.4015 31.3521 87.5875 31.1735 88.0041 30.7942Z" fill="#5A3D5B"/>
<path d="M80.8857 8.93273H85.7505C87.915 8.93273 89.6705 10.6882 89.6705 12.8528V14.1322C89.6705 18.5134 86.1149 22.0615 81.7412 22.0615H80.8932V8.92529L80.8857 8.93273Z" fill="#754962"/>
<path d="M88.2275 214.761C85.3637 214.761 83.0429 212.515 83.0429 209.748V188.712C83.0429 174.549 81.1461 160.416 77.4046 146.722L69.0141 115.979C68.2851 113.301 69.9364 110.556 72.7035 109.85C75.4706 109.143 78.3121 110.742 79.0411 113.42L87.4316 144.163C91.3963 158.698 93.4121 173.686 93.4121 188.712V209.748C93.4121 212.515 91.0913 214.761 88.2275 214.761Z" fill="#3E869C"/>
<path d="M102.099 221.247C95.5683 221.277 89.0299 221.3 82.499 221.329C80.1782 218.867 81.2791 215.215 82.3056 212.329C86.1438 212.306 90.0118 212.292 93.8426 212.269C93.8798 212.82 93.9839 213.073 94.6013 213.378C96.1857 214.166 100.507 215.929 103.252 217.9C104.725 218.964 103.937 221.233 102.099 221.24V221.247Z" fill="#703C49"/>
<path d="M82.276 212.381C86.1886 212.344 90.1012 212.321 94.0138 212.292C94.2072 212.292 94.3709 212.135 94.3709 211.942C94.3709 210.819 94.3857 209.696 94.4006 208.58C94.4006 208.386 94.237 208.223 94.0361 208.23C90.1235 208.267 86.2109 208.327 82.2983 208.364C82.1049 208.364 81.9413 208.52 81.9413 208.706C81.9338 209.815 81.9264 210.923 81.9189 212.031C81.9189 212.225 82.0826 212.381 82.2834 212.381H82.276Z" fill="#DEC2BE"/>
<path d="M55.3041 214.761C55.267 214.761 55.2298 214.761 55.1851 214.761C52.3213 214.702 50.0526 212.403 50.1121 209.636C50.1196 209.242 51.0122 170.101 51.0122 157.329C51.0122 146.417 50.127 113.874 50.1121 113.547C50.0378 110.779 52.299 108.474 55.1554 108.399C55.2 108.399 55.2521 108.399 55.2967 108.399C58.0936 108.399 60.4069 110.556 60.4813 113.286C60.5185 114.625 61.3813 146.29 61.3813 157.329C61.3813 170.212 60.4887 209.465 60.4813 209.859C60.4218 212.589 58.1084 214.769 55.2967 214.769L55.3041 214.761Z" fill="#3E869C"/>
<path d="M69.0963 221.247C62.5654 221.277 56.027 221.3 49.4961 221.329C47.1753 218.867 48.2762 215.215 49.3027 212.329C53.1409 212.306 57.0089 212.292 60.8397 212.269C60.8769 212.82 60.981 213.073 61.5984 213.378C63.1828 214.166 67.5045 215.929 70.2493 217.9C71.7221 218.964 70.9336 221.233 69.0963 221.24V221.247Z" fill="#703C49"/>
<path d="M49.2721 212.745C52.9839 212.716 59.433 212.664 61.0099 212.656C61.2033 212.656 61.3669 212.5 61.3669 212.306C61.3669 211.183 61.3818 210.06 61.3967 208.944C61.3967 208.751 61.2331 208.587 61.0322 208.595C57.1196 208.632 53.207 208.691 49.2944 208.729C49.101 208.729 48.9374 208.885 48.9374 209.071C48.9374 209.822 48.9225 211.63 48.915 212.396C48.915 212.589 49.0787 212.745 49.2795 212.745H49.2721Z" fill="#DEC2BE"/>
<path d="M78.1256 65.9556L56.5244 66.387V42.5469H68.7457C73.9229 42.5469 78.1256 46.6083 78.1256 51.6217V65.9556Z" fill="#B8C4E7"/>
<path d="M78.2672 66.0225L56.666 66.4539V42.6138H68.8873C74.0645 42.6138 78.2672 46.6751 78.2672 51.6886V66.0225Z" fill="#E49286"/>
<path d="M85.2668 98.0076C85.1478 95.8579 84.1956 93.8347 82.6113 92.3396C82.4327 91.9602 82.2319 91.5734 82.0013 91.1792C81.4806 90.294 81.2649 88.6055 81.1682 87.3633C81.1682 87.3409 81.1831 87.3112 81.2054 87.2814C82.6187 85.578 83.2807 83.406 82.6336 81.3158C82.1873 79.8728 81.8451 78.3405 81.9641 77.2396C82.0162 72.2335 83.3179 67.5473 84.1585 66.625C87.4685 62.9727 86.1817 60.1312 85.2965 57.3716C84.8205 55.8839 83.7865 49.9034 80.8707 46.0354C79.0259 43.5956 75.9688 42.5319 73.2909 42.2716C73.0901 42.2493 70.2486 42.2418 70.0403 42.2418C69.9957 42.2418 69.9585 42.2418 69.9139 42.2418H65.912L65.979 42.9038L69.3114 42.9262C71.7958 42.9262 73.5661 45.113 73.9604 45.3957C76.8019 47.4562 79.0334 53.9201 78.9962 54.5375C78.5945 61.3065 76.0506 68.3284 76.0506 68.3284C76.0655 68.3581 70.5833 58.9187 70.5462 58.9113C70.0478 58.7923 66.9608 54.7607 64.9376 52.4399C64.6624 52.1275 64.3574 51.7779 64.0301 51.4134C63.5764 50.9076 63.0854 50.372 62.6094 49.8439C62.2374 49.4348 61.873 49.0405 61.5233 48.6686C61.4787 48.624 61.4341 48.5719 61.3895 48.5198C61.3374 48.4678 61.2928 48.4083 61.2481 48.3562C60.8093 47.8578 60.4373 47.3074 60.1472 46.7197C60.0282 46.4817 59.9315 46.2437 59.8423 45.9908C59.6786 45.5594 59.5596 45.113 59.4778 44.6519L58.7711 44.0642C58.6893 43.5733 59.0761 43.127 59.5968 43.127H66.0162L66.1947 42.9113H65.2872L65.2202 42.2418H56.7181C48.8408 42.2418 47.8292 49.0777 47.8292 56.9699C47.8292 63.4413 53.3485 73.2451 55.1933 76.2056C56.2495 77.6412 55.5801 80.9067 54.7916 83.4878C54.4048 84.7673 54.8585 86.0467 55.6768 87.1178C55.7288 87.1847 55.7437 87.2814 55.6916 87.4005C55.7363 87.4153 55.7883 87.4302 55.833 87.4451C55.4164 89.0815 54.7767 90.8221 53.9585 91.8709C52.932 91.9379 52.0171 92.5255 51.5559 93.4181C51.0947 94.3107 50.5591 95.3744 50.4773 95.5455C44.8241 106.279 44.8985 114.454 44.8985 114.454C44.8985 114.454 45.1588 120.055 50.0012 123.149C54.8437 126.244 61.0622 127.077 61.0622 127.077H69.966C79.1673 127.077 86.4867 119.609 85.9883 110.72L85.2742 98.0076H85.2668Z" fill="#3E869C"/>
<path d="M84.6263 66.6176C85.6454 65.4944 86.233 64.4456 86.5231 63.4563C86.962 61.976 85.6305 60.5776 84.0759 60.8752L78.802 61.8868C75.0605 62.6455 71.2149 62.8835 67.4064 62.5711L62.7127 62.1917C60.0498 61.976 57.6918 63.8431 57.3794 66.4168L57.6026 77.1653C57.6174 77.7157 57.0893 78.1174 56.5314 78.0133C56.1074 77.9314 55.7206 77.9761 55.7206 78.3926C55.7206 79.9398 55.2743 81.8515 54.776 83.4954C54.3892 84.7599 54.7611 86.0988 55.6463 87.1104C55.7058 87.1848 55.7281 87.2815 55.676 87.408C55.7206 87.4229 55.7727 87.4377 55.8173 87.4526C55.4008 89.0891 54.7611 90.8297 53.9429 91.8785C52.9164 91.9454 52.0014 92.5331 51.5402 93.4257C51.0716 94.3406 50.5435 95.382 50.4617 95.553C44.8085 106.287 44.8829 114.462 44.8829 114.462C44.8829 114.462 45.1432 120.063 49.9856 123.157C54.828 126.251 61.0465 127.085 61.0465 127.085H69.9503C79.1516 127.085 86.4711 119.616 85.9727 110.727L85.2586 98.0152C85.1396 95.8655 84.1875 93.8422 82.6031 92.3471C82.4246 91.9677 82.2237 91.5809 81.9931 91.1867C81.4724 90.3015 81.2567 88.613 81.16 87.3708C81.16 87.3485 81.1749 87.3187 81.1972 87.289C82.6105 85.5856 83.2725 83.4135 82.6254 81.3234C82.1791 79.8803 82.313 78.348 82.4246 77.2471C82.4766 72.2411 83.7783 67.5548 84.6189 66.6325L84.6263 66.6176Z" fill="#3E869C"/>
<path d="M82.4328 91.9825C82.2989 91.7147 82.1576 91.447 81.9939 91.1717C81.4732 90.2866 81.2575 88.5981 81.1608 87.3558C78.0813 88.3898 73.7819 89.1783 68.3519 89.1783C62.9218 89.1783 58.7414 88.4121 55.6694 87.4005C55.2751 88.427 53.6535 91.7743 53.9362 91.871C58.0868 93.2471 63.2268 93.9537 68.3519 93.9537C73.4769 93.9537 78.3342 93.2843 82.4253 91.9825H82.4328Z" fill="#376F80"/>
<path d="M64.9077 67.8747L81.1607 67.2797H81.4508C81.7929 67.2574 82.1351 67.2053 82.4773 67.1235C82.6558 67.0788 82.8269 67.0342 83.0054 66.9747C84.389 66.4986 85.7502 65.4201 86.4271 63.7762C86.1072 64.6688 85.5419 65.6209 84.6344 66.6177C84.322 66.9598 83.8534 68.1946 83.6079 68.9831C83.1616 69.2434 82.0607 69.5261 81.5921 69.6153C81.4433 69.6451 81.2946 69.6674 81.1384 69.6748L80.1416 69.7418L65.6888 70.6642C61.1885 70.9543 56.4503 67.9194 54.665 63.0249C57.1569 66.6177 61.1067 68.0086 64.9003 67.8673L64.9077 67.8747Z" fill="black"/>
<path d="M51.9127 98.64L48.4464 90.2346C48.8853 89.632 49.0043 88.8436 48.7067 88.1146C48.3497 87.2369 47.4794 86.7087 46.557 86.7087L47.2339 88.3526L47.4645 88.918C47.472 89.275 47.2563 89.6097 46.8992 89.751C46.5422 89.8924 46.1405 89.7882 45.895 89.5279L45.6644 88.9626L44.9875 87.3187C44.3181 87.9286 44.0652 88.8882 44.4297 89.7659C44.7272 90.4949 45.3818 90.9858 46.1182 91.1272L49.5845 99.54C49.3093 100.024 49.2497 100.626 49.4729 101.184C49.7853 101.935 50.5292 102.396 51.3176 102.389L50.7374 100.976L50.5366 100.492C50.5366 100.187 50.7151 99.8971 51.0275 99.778C51.3399 99.659 51.6821 99.7483 51.8904 99.9714L52.0912 100.455L52.6714 101.868C53.2442 101.348 53.4599 100.514 53.1549 99.7632C52.9243 99.2053 52.4557 98.811 51.9127 98.6474V98.64Z" fill="#B4A3B0"/>
<path d="M54.487 99.2797C54.5167 99.5029 54.3456 99.7037 54.115 99.7335C53.8845 99.7558 53.6762 99.5996 53.6464 99.3764L52.7241 91.5586C52.6943 91.3355 52.8654 91.1347 53.096 91.1049C53.3266 91.0826 53.5349 91.2388 53.5646 91.4619L54.487 99.2797Z" fill="#C2C2C2"/>
<path d="M54.4717 93.1206C54.5089 93.4554 54.2634 93.7603 53.9138 93.7975L52.9245 93.9091C52.5749 93.9463 52.2625 93.7083 52.2253 93.3736L51.407 86.4037C51.3699 86.069 51.6153 85.7641 51.9649 85.7269L52.9542 85.6153C53.3038 85.5781 53.6163 85.8161 53.6534 86.1508L54.4717 93.1206Z" fill="#8BD2E8"/>
<path d="M47.1813 95.2704H59.0083C59.3877 95.2704 59.7001 95.5828 59.7001 95.9622V104.806C59.7001 107.031 57.8926 108.838 55.6685 108.838H49.2715C47.5309 108.838 46.125 107.425 46.125 105.692V96.3267C46.125 95.7465 46.6011 95.2704 47.1813 95.2704Z" fill="#27515E"/>
<path d="M46.1256 98.0077H59.7007V105.357C59.7007 107.276 58.1386 108.838 56.2195 108.838H47.8662C46.8992 108.838 46.1182 108.057 46.1182 107.09V98.0002L46.1256 98.0077Z" fill="#376F80"/>
<path d="M80.4396 95.2704H86.0557C86.3606 95.2704 86.6135 95.5233 86.6135 95.8283V106.845C86.6135 107.945 85.7209 108.838 84.62 108.838H84.5085C81.9199 108.838 79.8223 106.74 79.8223 104.152V95.8878C79.8223 95.5456 80.0975 95.2704 80.4396 95.2704Z" fill="#27515E"/>
<path d="M79.8291 98.0077H86.6204V108.02C86.6204 108.474 86.2559 108.838 85.8022 108.838H83.8607C81.6366 108.838 79.8365 107.03 79.8365 104.814V98.0077H79.8291Z" fill="#376F80"/>
<path d="M78.141 51.6144C76.1103 52.864 73.7523 53.4963 71.3571 53.4963C69.7281 53.4963 68.0842 53.1988 66.5222 52.6037L62.7881 51.1829L68.5082 57.1337L75.9838 69.4219H76.4004L80.0527 52.4698L79.0708 51.0342L78.1335 51.6069L78.141 51.6144Z" fill="#8BD2E8"/>
<path d="M76.5488 69.5855H75.8868L68.3666 57.2303L62.1406 50.7589L66.5814 52.4549C68.1137 53.0351 69.7204 53.3326 71.3568 53.3326C73.7594 53.3326 76.0728 52.6929 78.044 51.473L79.1225 50.811L80.2383 52.44L80.2234 52.5069L76.5414 69.593L76.5488 69.5855ZM76.0877 69.2508H76.2662L79.8738 52.4995L79.0258 51.2573L78.2374 51.7408C76.2067 52.9904 73.8264 53.6525 71.3643 53.6525C69.6832 53.6525 68.0393 53.3475 66.4623 52.7524L63.4349 51.5995L68.6567 57.0369L76.0877 69.2434V69.2508Z" fill="#8BD2E8"/>
<path d="M71.3569 53.4962C73.752 53.4962 76.11 52.8565 78.1407 51.6143L79.0779 51.0415L78.1035 49.6208L77.1737 50.1935C74.2207 52.0085 70.4568 52.3358 67.1095 51.0564L60.1025 48.386L62.7952 51.1828L66.5293 52.6036C68.0914 53.1986 69.7353 53.4962 71.3643 53.4962H71.3569Z" fill="#5BE5E5"/>
<path d="M74.6813 113.442C74.2498 113.465 73.9002 113.1 73.9597 112.684L74.3242 110.177C74.8226 106.74 74.9044 103.252 74.5474 99.793C74.0713 95.0993 74.2722 90.3685 75.1573 85.7344L75.864 82.0226C76.4888 78.7423 76.3549 74.3982 75.4772 69.0946C75.4177 68.7301 75.6706 68.388 76.0425 68.3285C76.4219 68.269 76.7789 68.5144 76.8384 68.8789C77.7459 74.3387 77.8724 78.839 77.2178 82.2681L76.5111 85.9798C75.6557 90.4726 75.4549 95.0621 75.9161 99.607C76.2805 103.215 76.1987 106.852 75.678 110.445L75.321 112.877C75.2763 113.197 75.0011 113.435 74.6738 113.45L74.6813 113.442Z" fill="#BAB9C7"/>
<path d="M75.5966 69.5856C74.4213 67.9864 73.2238 66.3871 72.0187 64.8027C71.4162 64.0142 70.7988 63.2258 70.174 62.4522C69.5566 61.6711 68.9243 60.8975 68.2772 60.1463C67.6301 59.395 66.9606 58.6586 66.2465 57.9966C66.068 57.8329 65.882 57.6767 65.6961 57.5354C65.5101 57.394 65.2944 57.2378 65.0936 57.0891L63.8811 56.1816C62.2521 54.984 60.6826 53.7195 59.0312 52.5516C59.9462 52.9979 60.8239 53.5112 61.6942 54.0468C62.5645 54.5749 63.4199 55.1105 64.2679 55.6609L65.5473 56.4791C65.763 56.6204 65.9713 56.7395 66.1944 56.8957C66.4176 57.0519 66.6259 57.2155 66.8267 57.3792C67.6226 58.0486 68.3367 58.7702 69.0434 59.5066C70.4418 60.9719 71.7509 62.5117 73.0229 64.0663C74.3023 65.6209 75.5297 67.1979 76.7347 68.8195L75.604 69.593L75.5966 69.5856Z" fill="#BAB9C7"/>
<path d="M75.5156 68.7151L83.4003 51.3539L76.8025 69.2061L75.5156 68.7151Z" fill="#BAB9C7"/>
<path d="M59.7454 44.8603C59.7454 44.8603 60.3851 42.242 59.7454 41.7882C57.6329 40.2931 49.778 44.8603 49.778 44.8603C48.8779 45.1355 48.8184 46.348 49.6961 46.705L53.4749 48.2373C53.6534 48.572 53.9955 48.7952 54.3898 48.8324L60.6455 49.4349L58.6222 50.4465C57.8784 50.8184 57.8412 51.8301 58.5627 52.2466C59.9909 53.0723 62.3191 54.5005 65.5325 56.7097C68.5451 58.785 75.8571 68.7748 75.8571 68.7748C75.8571 68.7748 70.8808 53.0351 59.7454 44.8603Z" fill="#27515E"/>
<path d="M82.9303 50.03L79.6499 48.2448L81.2938 46.6381C81.7773 46.162 81.636 45.3736 81.0186 45.0835C79.0846 44.1834 75.2166 42.2197 71.7131 41.4907L71.6982 42.0635V44.3099C71.6982 44.3099 79.3747 49.3606 77.9837 58.0486C76.7341 65.8515 76.377 68.388 76.377 68.388L83.3914 51.3169C83.5923 50.8408 83.3914 50.2904 82.9228 50.0375L82.9303 50.03Z" fill="#27515E"/>
<path d="M60.5191 67.8004L57.0528 59.3949C57.4917 58.7924 57.6107 58.004 57.3132 57.275C56.9561 56.3973 56.0859 55.8691 55.1635 55.8691L55.8404 57.513L56.071 58.0784C56.0784 58.4354 55.8627 58.7701 55.5057 58.9115C55.1486 59.0528 54.7469 58.9486 54.5015 58.6883L54.2709 58.123L53.594 56.4791C52.9245 57.089 52.6716 58.0486 53.0361 58.9263C53.3336 59.6553 53.9882 60.1462 54.7246 60.2876L58.1909 68.7004C57.9157 69.1839 57.8562 69.7864 58.0793 70.3443C58.3918 71.0956 59.1356 71.5568 59.9241 71.5493L59.3439 70.136L59.143 69.6525C59.143 69.3476 59.3216 69.0575 59.634 68.9384C59.9464 68.8194 60.2886 68.9087 60.4968 69.1318L60.6977 69.6153L61.2779 71.0286C61.8506 70.5079 62.0663 69.6748 61.7614 68.9236C61.5308 68.3657 61.0622 67.9714 60.5191 67.8078V67.8004Z" fill="#B4A3B0"/>
<path d="M53.3633 63.1438L54.5683 73.6692C54.6799 74.6436 55.513 75.3875 56.5246 75.4172L64.1267 75.6478C65.3168 75.685 66.2764 74.7329 66.2169 73.5799L65.6515 63.062L53.3633 63.1438Z" fill="#376F80"/>
<path d="M53.2588 62.8389L65.9413 62.7198L66.2983 64.9811C66.4471 65.9332 65.7107 66.8035 64.714 66.8407L55.1333 67.2052C54.2035 67.2424 53.4224 66.5283 53.4001 65.6208L53.3555 63.1438L53.2588 62.8389Z" fill="#27515E"/>
<path d="M60.2221 64.6316H59.694C59.4968 64.6316 59.3369 64.7914 59.3369 64.9886V65.7771C59.3369 65.9743 59.4968 66.1342 59.694 66.1342H60.2221C60.4193 66.1342 60.5791 65.9743 60.5791 65.7771V64.9886C60.5791 64.7914 60.4193 64.6316 60.2221 64.6316Z" fill="#BAB9C7"/>
<path d="M81.4285 75.5586H82.8418C83.2583 75.5586 83.6079 75.2833 83.6823 74.8891L85.5122 65.2563H81.9789L80.9822 75.0899C80.9598 75.3428 81.1607 75.5586 81.421 75.5586H81.4285Z" fill="#376F80"/>
<path d="M81.9044 62.7273H85.2666C85.6534 62.7273 85.9658 63.0323 85.9658 63.3967V65.9035C85.9658 66.3795 85.5716 66.7589 85.0806 66.7589H81.9119C81.7854 66.7589 81.6738 66.6548 81.6738 66.5283V62.9504C81.6738 62.824 81.778 62.7198 81.9119 62.7198L81.9044 62.7273Z" fill="#27515E"/>
<path d="M84.6789 63.9695H85.1326C85.326 63.9695 85.4897 64.1257 85.4897 64.3265V65.1224C85.4897 65.3158 85.3335 65.4795 85.1326 65.4795H84.6789C84.5822 65.4795 84.5078 65.4051 84.5078 65.3084V64.148C84.5078 64.0513 84.5822 63.9769 84.6789 63.9769V63.9695Z" fill="#BAB9C7"/>
<path d="M71.6989 41.4833H59.0312V44.3024H71.6989V41.4833Z" fill="#27515E"/>
<path d="M66.2766 49.0779C63.4054 49.0779 61.0771 46.824 61.0771 44.0421V23.8021H71.4835V44.0421C71.4835 46.824 69.1553 49.0779 66.284 49.0779H66.2766Z" fill="#E49286"/>
<path d="M71.4757 41.4832H70.6351C65.3539 41.4832 61.0693 37.34 61.0693 32.2298V16.6166H71.4757V41.4758V41.4832Z" fill="#D57D7B"/>
<path d="M76.9212 36.9011H75.5526C68.7092 36.9011 63.1602 31.5306 63.1602 24.9104V12.2948C63.1602 8.16651 66.619 4.82666 70.8812 4.82666H79.5842C83.8464 4.82666 87.3053 8.17395 87.3053 12.2948V26.8444C87.3053 32.3934 82.6562 36.8937 76.9138 36.8937L76.9212 36.9011Z" fill="#E49286"/>
<path d="M61.9844 22.1062L56.4502 21.9798L56.7477 12.1015C56.9411 5.69706 65.3689 0.691006 73.5437 0.921597L73.1123 9.33445C72.9709 13.9091 67.8235 22.2699 61.9844 22.1062Z" fill="#754962"/>
<path d="M72.1223 9.55752C70.8578 14.1991 65.8443 22.1061 61.0465 20.8862L60.7266 20.8044L60.6895 22.0392L65.398 22.1433C70.3594 22.2846 73.3943 13.485 73.5356 8.68722L73.7588 3.92664L72.1223 9.55752Z" fill="#5A3D5B"/>
<path d="M77.0626 5.04247H72.9863V6.32932C72.9863 11.8858 77.4196 16.3861 82.8869 16.3861H86.5986C88.2425 16.3861 89.3955 14.8166 88.845 13.3214C88.3318 11.923 87.6549 10.3981 86.9259 9.54272C84.5679 6.78306 81.0124 5.03503 77.0626 5.03503V5.04247Z" fill="#5A3D5B"/>
<path d="M88.4806 10.1154L84.9548 10.0261C79.9041 9.89966 75.8501 5.9573 75.3741 0.980999L72.4062 0.906616L72.369 2.19346C72.2202 7.74996 76.5345 12.3618 82.0017 12.4957L88.9194 12.6668C88.9194 12.5998 88.912 12.5403 88.9046 12.4734C88.8376 11.6626 88.6963 10.8741 88.4806 10.1154Z" fill="#754962"/>
<path d="M84.9547 10.0335L88.4805 10.1228C87.0151 4.94564 82.2099 1.15949 76.4749 1.01816L75.374 0.988403C75.8501 5.9647 79.9115 9.90707 84.9547 10.0335Z" fill="#5A3D5B"/>
<path d="M58.7936 25.4682H63.16V23.326C63.16 20.9978 61.2037 19.1084 58.7936 19.1084C56.9787 19.1084 55.5059 20.5291 55.5059 22.292C55.5059 24.0475 56.9787 25.4757 58.7936 25.4757V25.4682Z" fill="#E49286"/>
<path d="M58.7937 24.003C59.8053 24.003 60.6236 23.2145 60.6236 22.2326C60.6236 21.2582 59.8053 20.4623 58.7937 20.4623C57.7821 20.4623 56.9639 21.2508 56.9639 22.2326C56.9639 23.2071 57.7821 24.003 58.7937 24.003Z" fill="#D57D7B"/>
<path d="M64.4093 31.2926C64.8705 30.876 65.5102 30.2958 65.5102 29.2024C65.5102 28.1089 64.8779 27.5287 64.4093 27.1122C63.9928 26.7403 63.8068 26.5543 63.8068 26.1303C63.8068 25.7063 63.9928 25.5278 64.4093 25.1485C64.8705 24.7319 65.5102 24.1517 65.5102 23.0583C65.5102 21.9648 64.8779 21.3846 64.4093 20.9681C64.1564 20.7449 63.9928 20.5887 63.9035 20.4102C63.7324 20.0755 63.3159 19.9044 62.9216 20.0383C62.4679 20.1945 62.2894 20.7152 62.5125 21.1243C62.7357 21.5408 63.063 21.8384 63.3382 22.0838C63.7547 22.4557 63.9407 22.6417 63.9407 23.0583C63.9407 23.4748 63.7547 23.6608 63.3382 24.0401C62.877 24.4567 62.2373 25.0369 62.2373 26.1303C62.2373 27.2238 62.8696 27.804 63.3382 28.2205C63.7547 28.5924 63.9407 28.7784 63.9407 29.2024C63.9407 29.6264 63.7547 29.8049 63.3382 30.1843C62.877 30.6008 62.2373 31.181 62.2373 32.2745C62.2373 33.3679 62.8696 33.9481 63.3382 34.3647C63.5837 34.5804 63.7473 34.7366 63.8366 34.9151C63.9779 35.1754 64.2457 35.3465 64.5432 35.3465C65.1234 35.3465 65.5102 34.7515 65.2499 34.2531C65.0193 33.8142 64.6845 33.5092 64.4093 33.2563C63.9928 32.8844 63.8068 32.6984 63.8068 32.2745C63.8068 31.8505 63.9928 31.6719 64.4093 31.2926Z" fill="#754962"/>
<path d="M69.4082 24.2336V22.8649C69.4082 22.0541 70.0925 21.3921 70.9331 21.3921H71.8034C72.6439 21.3921 73.3282 22.0541 73.3282 22.8649V24.2336C73.3282 25.0444 72.6439 25.7064 71.8034 25.7064H70.9331C70.0925 25.7064 69.4082 25.0444 69.4082 24.2336Z" fill="#EBE8EF"/>
<path d="M69.8174 24.6575V23.3409C69.8174 22.7607 70.3009 22.2921 70.9034 22.2921H71.8332C72.4283 22.2921 72.9192 22.7607 72.9192 23.3409V24.6575C72.9192 25.2377 72.4357 25.7063 71.8332 25.7063H70.9034C70.3083 25.7063 69.8174 25.2377 69.8174 24.6575Z" fill="#402848"/>
<path d="M74.3027 19.1902H68.0321C67.8596 19.1902 67.7197 19.3301 67.7197 19.5026V20.477C67.7197 20.6496 67.8596 20.7894 68.0321 20.7894H74.3027C74.4753 20.7894 74.6151 20.6496 74.6151 20.477V19.5026C74.6151 19.3301 74.4753 19.1902 74.3027 19.1902Z" fill="#754962"/>
<path d="M84.8429 24.2336V22.8649C84.8429 22.0541 84.1586 21.3921 83.318 21.3921H82.4477C81.6072 21.3921 80.9229 22.0541 80.9229 22.8649V24.2336C80.9229 25.0444 81.6072 25.7064 82.4477 25.7064H83.318C84.1586 25.7064 84.8429 25.0444 84.8429 24.2336Z" fill="#EBE8EF"/>
<path d="M83.9801 24.6203V23.3781C83.9801 22.7756 83.4743 22.2921 82.8569 22.2921H82.0089C81.3916 22.2921 80.8857 22.7756 80.8857 23.3781V24.6203C80.8857 25.2228 81.3916 25.7063 82.0089 25.7063H82.8569C83.4743 25.7063 83.9801 25.2228 83.9801 24.6203Z" fill="#402848"/>
<path d="M79.9482 20.7896H86.2188C86.3914 20.7896 86.5312 20.6497 86.5312 20.4771V19.5027C86.5312 19.3302 86.3914 19.1903 86.2188 19.1903H79.9482C79.7757 19.1903 79.6358 19.3302 79.6358 19.5027V20.4771C79.6358 20.6497 79.7757 20.7896 79.9482 20.7896Z" fill="#754962"/>
<path d="M80.1636 31.8727C80.4983 31.4041 80.7512 30.8462 80.8702 30.2288C80.9595 29.7825 80.6025 29.3734 80.1338 29.3585L74.9939 29.2544C74.5253 29.2469 74.1459 29.6486 74.2203 30.0949C74.3393 30.7644 74.5997 31.3743 74.9716 31.8801C75.5666 31.0693 76.4295 30.5263 77.4114 30.4743C78.5048 30.4148 79.5016 30.9652 80.1562 31.8727H80.1636Z" fill="#D6FEE8"/>
<path d="M80.1641 31.8728C79.5095 30.9653 78.5127 30.4148 77.4193 30.4744C76.4374 30.5264 75.5746 31.0694 74.9795 31.8802C75.5894 32.7133 76.4969 33.2563 77.5086 33.2786C78.5722 33.301 79.5318 32.7505 80.1641 31.8728Z" fill="#F98786"/>
<path d="M84.9908 27.0006H82.3576C81.9633 27.0006 81.6436 27.3203 81.6436 27.7147V27.8486C81.6436 28.243 81.9633 28.5627 82.3576 28.5627H84.9908C85.3852 28.5627 85.7049 28.243 85.7049 27.8486V27.7147C85.7049 27.3203 85.3852 27.0006 84.9908 27.0006Z" fill="#F5948D"/>
<path d="M72.4801 27.0006H69.8469C69.4525 27.0006 69.1328 27.3203 69.1328 27.7147V27.8486C69.1328 28.243 69.4525 28.5627 69.8469 28.5627H72.4801C72.8745 28.5627 73.1942 28.243 73.1942 27.8486V27.7147C73.1942 27.3203 72.8745 27.0006 72.4801 27.0006Z" fill="#F5948D"/>
<path d="M38.7177 132.753L21.9961 132.611L22.0928 121.937C22.1077 120.412 23.3945 119.192 24.9715 119.2L35.9878 119.289C37.5573 119.304 38.8292 120.554 38.8144 122.071L38.7177 132.745V132.753ZM23.3945 131.287L37.349 131.406L37.4308 122.071C37.4308 121.29 36.7837 120.643 35.9729 120.635L24.9566 120.546C24.1458 120.546 23.4838 121.171 23.4763 121.952L23.3945 131.287Z" fill="#3C0614"/>
<path d="M37.0361 128.17L39.9073 128.193C40.2495 128.193 40.5247 127.932 40.5247 127.605V126.646C40.5396 126.318 40.2644 126.051 39.9296 126.051L37.0584 126.028C36.7162 126.028 36.441 126.289 36.441 126.616V127.575C36.4261 127.903 36.7013 128.17 37.0361 128.17Z" fill="#DEC2BE"/>
<path d="M4.63418 127.39L47.234 127.747C47.7472 127.747 48.2382 127.94 48.6101 128.282L50.9532 130.41C51.3698 130.789 51.6003 131.317 51.5929 131.867L51.4069 152.896C51.3995 153.989 50.4771 154.86 49.3465 154.852L47.7844 154.837L3.58536 154.465L2.02329 154.45C0.900094 154.443 -0.00739301 153.55 4.54033e-05 152.457L0.186006 131.429C0.186006 130.878 0.431474 130.357 0.855463 129.986L3.23576 127.895C3.61512 127.561 4.11349 127.382 4.62674 127.382L4.63418 127.39Z" fill="#D92737"/>
<path d="M21.2964 128.037L24.1677 128.059C24.5098 128.059 24.7851 127.799 24.7851 127.471V126.512C24.7999 126.184 24.5247 125.917 24.1826 125.917L21.3113 125.894C20.9692 125.894 20.6939 126.155 20.6939 126.482V127.442C20.6791 127.769 20.9543 128.037 21.2964 128.037Z" fill="#DEC2BE"/>
<path d="M27.8271 139.291L28.8834 140.012C29.285 140.288 29.828 140.295 30.2371 140.027L31.3008 139.328C31.6207 139.112 31.8215 138.763 31.8215 138.383L31.8587 133.995L27.3585 133.958L27.3213 138.346C27.3213 138.726 27.5072 139.083 27.8271 139.298V139.291Z" fill="#E5CED6"/>
<path d="M9.18648 139.135L10.2427 139.856C10.6444 140.131 11.1874 140.139 11.5965 139.871L12.6602 139.172C12.9801 138.956 13.1809 138.607 13.1809 138.227L13.2181 133.839L8.71786 133.801L8.68066 138.19C8.68066 138.569 8.86662 138.926 9.18648 139.142V139.135Z" fill="#E5CED6"/>
<path d="M45.3523 127.732L55.0297 127.813C55.543 127.813 56.0339 128.007 56.4058 128.349L58.7489 130.476C59.1655 130.856 59.3961 131.384 59.3886 131.934L59.2027 152.963C59.1952 154.056 58.2729 154.926 57.1422 154.919L55.5801 154.904L44.3109 154.807L42.7489 154.793C41.6257 154.785 40.7182 153.892 40.7256 152.799L40.9116 131.771C40.9116 131.22 41.1571 130.699 41.581 130.328L43.9613 128.237C44.3407 127.903 44.8391 127.724 45.3523 127.724V127.732Z" fill="#A31D29"/>
<path d="M0.148438 136.591L58.0863 137.074C58.3243 137.074 58.5177 136.888 58.5177 136.658C58.5177 136.427 58.3317 136.241 58.0937 136.234L0.155876 135.758V136.591H0.148438Z" fill="#8E0612"/>
<path d="M29.2701 138.168H29.8726C30.0214 138.168 30.1404 138.064 30.1404 137.922L30.1627 135.483C30.1627 135.341 30.0437 135.222 29.9024 135.222H29.2999C29.1511 135.222 29.0321 135.326 29.0321 135.468L29.0098 137.907C29.0098 138.049 29.1288 138.168 29.2701 138.168Z" fill="#EFE2E6"/>
<path d="M10.6295 138.012H11.232C11.3808 138.012 11.4998 137.907 11.4998 137.766L11.5221 135.326C11.5221 135.185 11.4031 135.066 11.2618 135.066H10.6592C10.5105 135.066 10.3915 135.17 10.3915 135.311L10.3691 137.751C10.3691 137.893 10.4882 138.012 10.6295 138.012Z" fill="#EFE2E6"/>
<path d="M2.99023 145.078L37.9136 145.368L37.9434 141.671C37.9434 141.418 37.7351 141.21 37.4747 141.21L3.49605 140.927C3.2357 140.927 3.01999 141.128 3.01999 141.381L2.99023 145.078Z" fill="#3C1317"/>
<path d="M2.93029 151.78L37.8537 152.07L37.8834 148.403C37.8834 148.135 37.6603 147.912 37.3776 147.905L3.46586 147.622C3.1832 147.622 2.95261 147.838 2.95261 148.105L2.92285 151.773L2.93029 151.78Z" fill="#3C1317"/>
<path d="M2.9623 141.655L2.94922 143.217L37.8788 143.509L37.8919 141.947L2.9623 141.655Z" fill="#E4CFD6"/>
<path d="M2.90176 148.458L2.88867 150.02L37.8183 150.313L37.8313 148.751L2.90176 148.458Z" fill="#E4CFD6"/>
<path d="M29.4189 124.161C27.5444 124.161 26.0047 122.711 25.9675 120.888L25.5584 101.251C25.4171 94.6381 27.0238 88.0477 30.1851 82.1862L45.2628 54.2921C46.1479 52.6557 48.2381 52.0234 49.9266 52.8788C51.6152 53.7343 52.2697 55.7575 51.3846 57.394L36.3069 85.288C33.6737 90.1527 32.3497 95.6274 32.4612 101.117L32.8704 120.754C32.9075 122.599 31.3901 124.131 29.4859 124.169C29.4636 124.169 29.4412 124.169 29.4115 124.169L29.4189 124.161Z" fill="#E49286"/>
<path d="M32.1119 119.668L34.9534 122.145L36.6047 120.368C37.1031 119.832 37.0585 119.006 36.5006 118.523L34.6633 116.924L32.1045 119.676L32.1119 119.668Z" fill="#D57D7B"/>
<path d="M26.1532 125.098L33.6808 124.957C34.4024 124.942 34.9751 124.369 34.9602 123.67L34.8263 117.206C34.8115 116.507 34.2164 115.957 33.4949 115.971L25.9672 116.113C25.2457 116.128 24.6729 116.7 24.6878 117.4L24.8217 123.864C24.8366 124.563 25.4316 125.113 26.1532 125.098Z" fill="#E49286"/>
<path d="M45.5531 50.6548L38.6874 63.8208C38.4494 64.2746 36.627 64.9217 36.27 65.8961C35.9352 66.7962 36.4038 68.0087 36.2253 68.5814C35.9799 69.3699 34.7971 68.8269 33.9045 70.4485C33.6442 70.9245 34.3732 72.1444 34.1426 72.5907L33.3987 74.0115C32.283 76.1388 33.0491 78.8092 35.2286 79.925C37.4452 81.0631 40.19 80.2151 41.3206 78.058L42.1314 76.5033C42.6075 75.6925 44.1026 75.8487 44.3778 74.6586C44.5638 73.8329 43.9762 73.0519 44.1844 72.5386C44.6754 71.3559 46.0515 71.9585 46.5647 70.8576C46.9366 70.0617 46.0143 69.1914 46.6689 67.726L53.6015 54.4335C54.7321 52.2764 53.8172 49.6358 51.5559 48.5795C49.3393 47.5381 46.6614 48.52 45.5457 50.6474L45.5531 50.6548Z" fill="#3E869C"/>
<path d="M42.4658 77.4926L39.5425 83.0714C39.3417 83.4508 38.8582 83.607 38.4714 83.4136L30.5495 79.5307C30.1553 79.3373 29.999 78.8687 30.1999 78.4893L33.1232 72.9105C33.324 72.5312 33.8075 72.375 34.1943 72.5684L42.1162 76.4512C42.5105 76.6446 42.6667 77.1132 42.4658 77.4926Z" fill="#27515E"/>
<g style="mix-blend-mode:multiply">
<path d="M105.968 218.599H45.7098C44.7354 218.599 43.9395 219.819 43.9395 221.329C43.9395 222.839 44.7279 224.059 45.7098 224.059H105.968C106.943 224.059 107.739 222.839 107.739 221.329C107.739 219.819 106.95 218.599 105.968 218.599Z" fill="#E8E0E4"/>
</g>
</svg>
