<svg width="124" height="239" viewBox="0 0 124 239" fill="none" xmlns="http://www.w3.org/2000/svg">
<path d="M15.6283 80.0151C17.3391 80.0151 19.0202 79.3903 20.3368 78.2001L45.3373 58.4883C46.9589 57.2089 47.2416 54.8584 45.9622 53.2294C44.6828 51.6078 42.3248 51.3251 40.7032 52.6045L16.0746 72.0262L16.4019 50.068C16.4316 48.0001 14.7803 46.3042 12.7124 46.267C10.6371 46.2372 8.94859 47.8886 8.9114 49.9565L8.56924 72.8519C8.52461 75.7008 10.1834 78.2745 12.8017 79.42C13.7092 79.8143 14.6762 80.0077 15.6283 80.0077V80.0151Z" fill="#E49286"/>
<path d="M49.8592 55.7732L38.0321 65.1084C37.623 65.4283 37.3403 67.3251 36.4328 67.8681C35.5923 68.3739 34.2906 68.1731 33.755 68.4557C33.0112 68.85 33.7922 69.8913 32.3417 71.0815C31.9177 71.4311 30.5491 70.9699 30.1474 71.2898L28.868 72.3014C26.9563 73.8114 24.1372 73.618 22.59 71.7361C21.013 69.817 21.318 66.9904 23.2594 65.4581L24.6504 64.3572C25.3645 63.7323 24.9107 62.3116 26.0488 61.8132C26.8373 61.4636 27.7373 61.8727 28.206 61.5678C29.292 60.8537 28.4142 59.6412 29.4184 58.9197C30.1399 58.3916 31.1962 59.1131 32.5351 58.1833L44.4738 48.7588C46.4078 47.2265 49.2344 47.5687 50.7369 49.5398C52.2172 51.4738 51.7634 54.2632 49.8518 55.7807L49.8592 55.7732Z" fill="#376F80"/>
<path d="M23.5748 64.2368L18.6256 68.1595C18.2682 68.4428 18.2081 68.9621 18.4914 69.3194L23.8972 76.1399C24.1804 76.4972 24.6997 76.5573 25.0571 76.2741L30.0063 72.3514C30.3637 72.0682 30.4238 71.5488 30.1405 71.1915L24.7347 64.371C24.4515 64.0137 23.9321 63.9536 23.5748 64.2368Z" fill="#27515E"/>
<path d="M15.248 47.5688L18.1937 44.9504L19.8896 46.8547C20.4029 47.4274 20.3508 48.3126 19.7706 48.8259L17.8664 50.5218L15.248 47.5762V47.5688Z" fill="#D57D7B"/>
<path d="M7.76606 43.053L7.58677 49.9461C7.56743 50.6894 8.15434 51.3077 8.89766 51.327L16.6607 51.5289C17.4041 51.5483 18.0223 50.9614 18.0416 50.218L18.2209 43.3249C18.2403 42.5816 17.6534 41.9634 16.9101 41.944L9.14697 41.7421C8.40365 41.7228 7.7854 42.3097 7.76606 43.053Z" fill="#E49286"/>
<path d="M0.423828 50.1795C0.46102 49.7183 0.840359 49.3613 1.30898 49.3613C2.75947 49.3538 6.04725 49.1456 10.2128 47.7323C13.3369 46.676 15.4569 44.9057 16.7065 43.5668C17.257 42.9717 17.9562 42.5403 18.7223 42.2799L18.8934 42.2204L74.2948 23.4682C75.0088 23.2301 75.775 23.6095 76.013 24.3161L76.6453 26.1832L56.4797 33.0116C56.8665 34.1572 56.2566 35.3994 55.1111 35.7862L55.0292 35.8159C53.8837 36.2027 52.6415 35.5928 52.2547 34.4398L19.5331 45.5156C17.4652 46.2148 15.4941 47.167 13.5749 48.2083C12.7418 48.6546 11.8195 49.0712 10.793 49.4208C6.38942 50.9085 2.92312 51.1391 1.31642 51.1465C0.795735 51.1465 0.386621 50.7002 0.431251 50.1795H0.423828Z" fill="#92828F"/>
<path d="M9.27571 41.7295L16.7067 41.8634C17.5547 41.8783 18.2241 42.5849 18.1869 43.4329L18.053 46.8843C18.0233 47.7025 17.3389 48.3497 16.5133 48.3348L9.0823 48.2009C8.23432 48.186 7.56487 47.4794 7.60206 46.6314L7.73595 43.18C7.7657 42.3618 8.45004 41.7146 9.27571 41.7295Z" fill="#F5948D"/>
<path d="M55.0039 40.8577L3.21768 58.3863C3.06972 58.4364 2.90237 58.3596 2.8499 58.2046L2.4874 57.1336C2.43732 56.9856 2.51416 56.8183 2.66916 56.7658L54.4554 39.2371L55.0039 40.8577Z" fill="#92828F"/>
<path d="M47.8686 44.4286L50.1444 43.6583C50.2378 43.6267 50.2879 43.5254 50.2562 43.432L49.0638 39.9091C49.0322 39.8157 48.9309 39.7656 48.8375 39.7972L46.5617 40.5676C46.4683 40.5992 46.4182 40.7005 46.4498 40.7939L47.6423 44.3168C47.6739 44.4102 47.7752 44.4602 47.8686 44.4286Z" fill="#BB4058"/>
<path d="M60.8163 36.9912L63.1817 32.0372L82.5216 25.4914C84.0316 24.9782 85.6755 25.789 86.1887 27.3064L88.1524 33.1158C90.8823 32.1934 92.3403 29.2329 91.4179 26.503L90.7187 24.4277C89.5137 20.8722 85.6606 18.9679 82.105 20.1729L77.5081 21.7276C77.032 21.8912 76.7047 22.3375 76.7047 22.8433V23.2896C76.6973 23.7955 76.37 24.2418 75.8939 24.4054L61.813 29.1734C61.5081 29.2776 61.2626 29.5007 61.1212 29.7908L57.7665 36.835L54.1738 38.0475C53.8167 38.1665 53.6308 38.5533 53.7498 38.9103L54.5754 41.3576C54.6945 41.7146 55.0813 41.9006 55.4383 41.7815L77.4486 34.3283C77.8874 34.1795 78.1775 33.7481 78.1403 33.2869C78.1031 32.7364 78.4379 32.2381 78.9586 32.0595L80.6768 31.4793C80.9818 31.3752 81.3091 31.3975 81.5992 31.5389L85.6308 33.5323C86.0251 33.7257 86.4639 33.3464 86.3226 32.9298L85.0209 29.0916C84.6564 28.0056 83.4811 27.4254 82.3951 27.7973L64.6917 33.7927C64.3718 33.8968 64.1264 34.1497 64.0148 34.4621L63.4346 36.1135L60.8014 36.9912H60.8163Z" fill="#BB4058"/>
<path d="M34.2086 228.612C37.355 228.612 39.9138 226.061 39.9138 222.907V200.48C39.9138 185.41 41.8627 170.384 45.7158 155.813L54.3667 123.046C55.17 120.004 53.3551 116.88 50.3053 116.077C47.263 115.273 44.1389 117.088 43.3355 120.138L34.6846 152.904C30.5861 168.421 28.5107 184.428 28.5107 200.48V222.907C28.5107 226.054 31.0621 228.612 34.216 228.612H34.2086Z" fill="#3E869C"/>
<path d="M19.9046 235.166C26.6363 235.195 33.3755 235.225 40.1073 235.255C42.5025 232.629 41.3644 228.731 40.3082 225.659C36.3509 225.637 32.3639 225.622 28.4141 225.6C28.3769 226.187 28.2654 226.463 27.6331 226.782C25.9966 227.623 21.541 229.497 18.7144 231.603C17.197 232.733 18.0078 235.158 19.9046 235.166Z" fill="#703C49"/>
<path d="M40.4874 226.106C36.3665 226.106 32.2456 226.12 28.1248 226.128C27.9909 226.128 27.8867 226.024 27.8867 225.89C27.8867 225.287 27.8867 224.685 27.8867 224.082C27.8867 223.948 27.9909 223.844 28.1248 223.844C32.2456 223.844 36.3665 223.844 40.4874 223.844C40.6213 223.844 40.7254 223.948 40.7254 224.082C40.7254 224.677 40.7254 225.272 40.7254 225.867C40.7254 226.001 40.6213 226.106 40.4874 226.106Z" fill="#DEC2BE"/>
<path d="M68.1501 228.612C68.1947 228.612 68.2319 228.612 68.2766 228.612C71.423 228.545 73.9223 225.935 73.8554 222.788C73.8479 222.371 72.933 180.657 72.933 167.045C72.933 155.418 73.8479 120.74 73.8554 120.391C73.9372 117.244 71.4527 114.619 68.3063 114.537C65.145 114.455 62.5341 116.939 62.4523 120.086C62.4151 121.514 61.5225 155.27 61.5225 167.045C61.5225 180.783 62.4374 222.617 62.4523 223.041C62.5192 226.15 65.0632 228.62 68.1501 228.62V228.612Z" fill="#3E869C"/>
<path d="M53.9358 235.166C60.6676 235.195 67.4068 235.225 74.1386 235.255C76.5337 232.629 75.3957 228.731 74.3394 225.659C70.3822 225.637 66.3952 225.622 62.4454 225.6C62.4082 226.187 62.2966 226.463 61.6643 226.782C60.0279 227.623 55.5723 229.497 52.7457 231.603C51.2282 232.733 52.039 235.158 53.9358 235.166Z" fill="#703C49"/>
<path d="M74.5108 226.106C70.39 226.106 66.2691 226.12 62.1482 226.128C62.0143 226.128 61.9102 226.024 61.9102 225.89C61.9102 225.287 61.9102 224.685 61.9102 224.082C61.9102 223.948 62.0143 223.844 62.1482 223.844C66.2691 223.844 70.39 223.844 74.5108 223.844C74.6447 223.844 74.7489 223.948 74.7489 224.082C74.7489 224.677 74.7489 225.272 74.7489 225.867C74.7489 226.001 74.6447 226.106 74.5108 226.106Z" fill="#DEC2BE"/>
<path d="M44.0649 130.901C49.361 136.249 66.5512 135.535 71.3788 130.901C74.7409 127.673 74.3021 118.948 73.2309 111.182C73.1417 110.55 73.7442 109.003 73.6698 108.4C73.4243 106.496 72.5317 106.347 72.4201 105.678C71.8697 102.442 71.3788 100.248 71.3788 100.248H44.0649C44.0649 100.248 43.5293 102.672 42.964 106.191C42.8524 106.89 41.7813 107.418 41.2457 109.679C40.673 112.097 41.9375 113.644 41.759 116.419C41.3647 122.496 41.692 128.514 44.0649 130.901Z" fill="#3E869C"/>
<path d="M41.5955 51.0425C43.6336 48.439 49.5546 46.8026 53.192 46.3637C53.4523 46.3339 54.2557 46.2596 54.2557 46.2596V47.353L62.0734 45.605L66.1497 46.7654V46.0959C66.1497 46.0959 82.5663 47.3307 83.6672 52.8202C85.7871 63.3977 79.6355 74.2652 74.9493 83.2954C70.4193 92.0207 70.5904 95.8664 71.5351 100.947C71.5649 101.125 71.6393 101.951 71.6393 101.951H70.4045V102.903H43.7154C43.7154 102.903 43.9014 101.348 43.9386 100.582C44.2808 94.0737 42.5997 84.4856 39.9144 77.4637C38.2259 73.0453 38.6052 54.8658 41.6029 51.035L41.5955 51.0425Z" fill="#3E869C"/>
<path d="M71.5197 100.947C71.5494 101.125 71.6238 104.673 71.6238 104.673H45.515L43.8041 101.527C43.8041 101.527 42.2793 100.337 42.3239 99.5706C42.3983 98.1052 43.1347 95.9183 42.971 94.4604C42.4057 89.4394 41.3941 86.3153 40.6577 82.73C40.3453 81.1977 40.1296 80.0001 39.1031 75.6561C39.0361 75.3585 39.3411 75.0982 39.6535 75.1279H65.3904C66.1566 75.2098 66.7368 75.8569 66.7368 76.6305V92.0801C66.7368 93.724 68.0683 95.0555 69.7122 95.0555H70.5824C71.2668 95.0555 71.8024 95.658 71.7131 96.3423C71.6461 96.8407 71.5792 97.3242 71.5122 97.8151C71.4304 98.4994 71.9883 99.1838 72.0255 99.8756C72.0776 100.865 71.4527 100.575 71.5197 100.939V100.947Z" fill="#3E869C"/>
<path d="M57.0532 103.766C63.8147 103.766 68.7166 102.427 71.5358 100.954C71.7218 101.847 72.0565 103.528 72.421 105.678C68.2703 107.478 62.6469 108.4 57.0532 108.4C52.0174 108.4 46.9593 107.649 42.9648 106.191C43.2847 104.212 43.5897 102.583 43.798 101.534C46.7213 102.762 51.1843 103.766 57.0458 103.766H57.0532Z" fill="#376F80"/>
<path d="M50.8706 120.577C51.3169 120.599 51.6739 120.212 51.6144 119.766L51.2351 117.095C50.7218 113.436 50.64 109.709 51.0045 106.027C51.4954 101.029 51.2871 95.9853 50.3797 91.0387L49.6507 87.0815C49.011 83.5854 49.1449 78.9513 50.0524 73.2981C50.1119 72.9113 49.859 72.5468 49.4722 72.4799C49.0854 72.4129 48.7135 72.6807 48.6465 73.0675C47.7093 78.8844 47.5828 83.6821 48.2523 87.3344L48.9812 91.2916C49.859 96.082 50.0672 100.969 49.5986 105.819C49.2267 109.665 49.3011 113.54 49.8441 117.371L50.2086 119.959C50.2532 120.294 50.5359 120.554 50.878 120.569L50.8706 120.577Z" fill="#BAB9C7"/>
<path d="M49.9338 73.8263C51.1463 72.1154 52.3811 70.4195 53.6233 68.7309C54.2481 67.8904 54.8804 67.0499 55.5275 66.2242C56.1672 65.3911 56.8144 64.5729 57.4838 63.7695C58.1533 62.9736 58.8376 62.1851 59.574 61.4785C59.76 61.3074 59.9459 61.1363 60.1393 60.9875C60.3327 60.8313 60.5484 60.6677 60.7567 60.5115L62.0064 59.5445C63.6874 58.2725 65.3016 56.9187 67.005 55.6765C66.0603 56.1526 65.1528 56.703 64.2602 57.2683C63.3676 57.8262 62.4824 58.399 61.6047 58.9866L60.2881 59.8569C60.0649 60.0057 59.8492 60.1396 59.6261 60.3032C59.3955 60.4669 59.1872 60.6379 58.9789 60.8165C58.1533 61.5306 57.4243 62.3041 56.6953 63.0777C55.2523 64.6398 53.9059 66.2763 52.5968 67.935C51.2802 69.5938 50.0082 71.2749 48.7734 73.0006L49.9338 73.8263Z" fill="#BAB9C7"/>
<path d="M50.0091 72.8964L41.8789 54.3896L48.6851 73.4246L50.0091 72.8964Z" fill="#BAB9C7"/>
<path d="M47.6733 52.4631L46.6914 51.8531L50.5966 45.6123H69.6092L65.2131 50.5365L58.0945 53.3854C54.6877 54.7467 50.7974 54.4045 47.6807 52.4705L47.6733 52.4631Z" fill="#E49286"/>
<path d="M46.7358 53.9731C48.878 55.3046 51.3327 55.9815 53.8022 55.9815C55.4833 55.9815 57.1644 55.6691 58.7562 55.0294L62.5498 53.5119L56.8892 59.8494L49.6665 72.9485H49.2351L44.8018 54.8806L45.7539 53.3557L46.7432 53.9657L46.7358 53.9731Z" fill="#8BD2E8"/>
<path d="M49.086 73.1345H49.7628L57.0302 59.9611L63.1818 53.0731L58.6815 54.8732C57.1269 55.498 55.483 55.8105 53.7945 55.8105C51.3175 55.8105 48.9074 55.1261 46.8247 53.8244L45.6866 53.1178L44.6006 54.8583L44.6155 54.9327L49.086 73.1345ZM49.5546 72.7775H49.3686L44.9874 54.9178L45.8056 53.6012L46.6387 54.1219C48.781 55.4534 51.258 56.1601 53.8019 56.1601C55.5351 56.1601 57.2236 55.8328 58.8154 55.2005L61.9024 53.9657L56.7252 59.7751L49.5546 72.7849V72.7775Z" fill="#8BD2E8"/>
<path d="M53.8019 55.9815C51.3323 55.9815 48.8777 55.3046 46.7354 53.9732L45.7461 53.3632L46.6908 51.8532L47.6726 52.4632C50.7893 54.3972 54.6796 54.7468 58.0864 53.3781L65.205 50.5292L62.542 53.512L58.7484 55.0294C57.1566 55.6617 55.4755 55.9815 53.7945 55.9815H53.8019Z" fill="#5BE5E5"/>
<path d="M66.2692 47.472C66.2692 47.472 65.6072 44.6826 66.2692 44.1991C68.4486 42.6073 76.5416 47.472 76.5416 47.472C77.4714 47.7696 77.5309 49.0639 76.6309 49.4358L72.7332 51.0722C72.5472 51.4293 72.1976 51.6673 71.7959 51.7119L65.3394 52.3516L67.4221 53.4302C68.1883 53.8245 68.2255 54.903 67.4891 55.3493C66.0163 56.2345 63.6137 57.7519 60.3036 60.1099C57.1943 62.3191 49.6592 72.9709 49.6592 72.9709C49.6592 72.9709 54.7917 56.1973 66.2692 47.4869V47.472Z" fill="#27515E"/>
<path d="M42.3623 52.9839L45.7468 51.0797L44.0508 49.3614C43.5525 48.8556 43.6938 48.0076 44.3409 47.7026C46.3344 46.7431 50.3214 44.6529 53.9365 43.8718L53.9514 44.4818V46.8769C53.9514 46.8769 46.0369 52.2624 47.4725 61.5232C48.7594 69.8393 49.1238 72.5395 49.1238 72.5395L41.8937 54.3451C41.6929 53.8319 41.8937 53.2517 42.3772 52.9839H42.3623Z" fill="#27515E"/>
<path d="M64.1409 72.3832L67.7113 63.4199C67.265 62.7802 67.1311 61.9396 67.4435 61.166C67.8154 60.2362 68.7081 59.6709 69.6602 59.6709L68.961 61.4189L68.7229 62.0214C68.7155 62.4008 68.9386 62.7578 69.3106 62.9066C69.6825 63.0554 70.0916 62.9438 70.3445 62.6686L70.5825 62.0661L71.2817 60.318C71.9735 60.9652 72.2339 61.9917 71.8619 62.9289C71.5495 63.7025 70.8801 64.2306 70.1139 64.3794L66.5435 73.3427C66.8336 73.8634 66.8931 74.4957 66.655 75.0907C66.3352 75.8941 65.5616 76.3776 64.7508 76.3776L65.3533 74.8676L65.5616 74.3469C65.569 74.0196 65.3756 73.7146 65.0558 73.5807C64.7359 73.4468 64.3789 73.5435 64.1632 73.789L63.9549 74.3097L63.3524 75.8197C62.7573 75.2618 62.5342 74.3767 62.854 73.5733C63.0921 72.9782 63.5755 72.5617 64.1409 72.3832Z" fill="#B4A3B0"/>
<path d="M71.5205 67.4292L70.2783 78.6464C70.1667 79.6803 69.3039 80.4762 68.2625 80.506L60.4224 80.7514C59.195 80.7886 58.2057 79.777 58.2652 78.5497L58.8529 67.34L71.5205 67.4218V67.4292Z" fill="#376F80"/>
<path d="M71.6244 67.102L58.5476 66.9756L58.1757 69.3856C58.0195 70.3973 58.7782 71.3271 59.8047 71.3643L69.6829 71.751C70.6425 71.7882 71.4533 71.0295 71.4681 70.0625L71.5202 67.4219L71.6169 67.102H71.6244Z" fill="#27515E"/>
<path d="M64.446 70.6129H64.9816C65.187 70.6129 65.3535 70.4464 65.3535 70.241V69.3781C65.3535 69.1727 65.187 69.0062 64.9816 69.0062H64.446C64.2406 69.0062 64.0741 69.1727 64.0741 69.3781V70.241C64.0741 70.4464 64.2406 70.6129 64.446 70.6129Z" fill="#BAB9C7"/>
<path d="M42.0719 80.7589H40.309C39.3272 80.7589 38.5312 79.963 38.5312 78.9811V69.7649H42.1761L42.6893 80.1117C42.7042 80.4613 42.429 80.7589 42.0719 80.7589Z" fill="#376F80"/>
<path d="M42.0944 66.9756H38.6281C38.2339 66.9756 37.9141 67.2954 37.9141 67.6897V70.3601C37.9141 70.8659 38.3232 71.275 38.829 71.275H42.1019C42.2358 71.275 42.3474 71.1634 42.3474 71.0295V67.2136C42.3474 67.0797 42.2358 66.9681 42.1019 66.9681L42.0944 66.9756Z" fill="#27515E"/>
<path d="M39.2229 69.9062H38.7617C38.5534 69.9062 38.3898 69.7426 38.3898 69.5343V68.6715C38.3898 68.4632 38.5534 68.2996 38.7617 68.2996H39.2229C39.3196 68.2996 39.4014 68.3814 39.4014 68.4781V69.7203C39.4014 69.817 39.3196 69.8988 39.2229 69.8988V69.9062Z" fill="#BAB9C7"/>
<path d="M71.4755 116.463L76.0055 107.946C75.6261 107.262 75.5889 106.414 75.9832 105.678C76.4518 104.792 77.4039 104.324 78.3486 104.428L77.4634 106.094L77.1584 106.667C77.1063 107.039 77.2923 107.426 77.6419 107.612C77.9915 107.797 78.4155 107.738 78.6982 107.485L79.0031 106.912L79.8883 105.246C80.5057 105.968 80.6471 107.016 80.1784 107.902C79.7842 108.638 79.0627 109.084 78.2891 109.151L73.7591 117.676C73.9897 118.219 73.9822 118.858 73.6772 119.424C73.2756 120.19 72.4499 120.584 71.6466 120.495L72.4053 119.059L72.6656 118.568C72.7103 118.248 72.5541 117.914 72.2491 117.758C71.9441 117.594 71.5871 117.653 71.3416 117.869L71.0812 118.36L70.3225 119.796C69.7944 119.178 69.6679 118.271 70.0696 117.512C70.3671 116.947 70.8953 116.582 71.4755 116.471V116.463Z" fill="#B4A3B0"/>
<path d="M68.7604 116.85C68.7083 117.081 68.8571 117.319 69.0877 117.371C69.3183 117.423 69.5563 117.274 69.6084 117.043L71.4605 108.869C71.5126 108.638 71.3638 108.4 71.1333 108.348C70.9027 108.296 70.6646 108.445 70.6126 108.675L68.7604 116.85Z" fill="white"/>
<path d="M71.1244 103.028L69.4729 110.327C69.394 110.676 69.6127 111.022 69.9613 111.101L70.9697 111.329C71.3183 111.408 71.6648 111.189 71.7437 110.841L73.3952 103.542C73.4741 103.194 73.2554 102.847 72.9068 102.768L71.8984 102.54C71.5498 102.461 71.2033 102.68 71.1244 103.028Z" fill="#8BD2E8"/>
<path d="M71.1256 111.532C71.2819 111.532 71.4306 111.487 71.5645 111.405C71.7505 111.286 71.8844 111.1 71.929 110.884L73.5803 103.595C73.6324 103.379 73.5878 103.156 73.4762 102.97C73.3572 102.784 73.1712 102.65 72.9555 102.606L71.9513 102.375C71.7356 102.323 71.5124 102.367 71.3265 102.479C71.1405 102.598 71.0066 102.784 70.962 103L69.3107 110.289C69.2065 110.736 69.4892 111.182 69.9355 111.279L70.9397 111.509C70.9992 111.524 71.0661 111.532 71.1256 111.532ZM71.7728 102.71C71.7728 102.71 71.8397 102.71 71.8769 102.725L72.8811 102.955C73.0076 102.985 73.1117 103.059 73.1787 103.163C73.2456 103.268 73.2679 103.394 73.2382 103.52L71.5868 110.81C71.5571 110.937 71.4827 111.041 71.3785 111.108C71.2744 111.175 71.1479 111.197 71.0215 111.167L70.0173 110.937C69.7644 110.877 69.6008 110.624 69.6603 110.371L71.3116 103.082C71.3414 102.955 71.4157 102.851 71.5199 102.784C71.5943 102.739 71.6835 102.71 71.7728 102.71Z" fill="#8BD2E8"/>
<path d="M72.941 127.553L66.5081 126.849C64.1863 126.594 62.5147 124.503 62.7681 122.189L63.8031 112.739C63.8468 112.34 64.2077 112.05 64.607 112.094L76.704 113.418C77.3103 113.485 77.7514 114.035 77.685 114.641L76.591 124.63C76.3926 126.442 74.76 127.752 72.9484 127.554L72.941 127.553Z" fill="#27515E"/>
<path d="M74.4076 127.71L65.9338 126.782C63.93 126.563 62.4888 124.759 62.7075 122.762L63.5675 114.91L77.4834 116.434L76.4258 126.091C76.3156 127.096 75.4132 127.821 74.4076 127.71Z" fill="#376F80"/>
<path d="M42.964 127.017C41.8143 127.103 40.8091 126.239 40.7223 125.09L39.8342 113.333C39.8101 113.014 40.0501 112.735 40.369 112.711L46.1248 112.276C46.4809 112.249 46.792 112.517 46.8189 112.873L47.4896 121.751C47.6935 124.451 45.6639 126.813 42.964 127.017Z" fill="#27515E"/>
<path d="M43.6508 126.966L41.7372 127.111C41.2625 127.147 40.8476 126.79 40.8118 126.315L40.0072 115.664L46.9868 115.137L47.5387 122.443C47.7141 124.765 45.9724 126.791 43.6508 126.966Z" fill="#376F80"/>
<path d="M53.7949 46.0438H67.8535V43.8792H53.7949V46.0438Z" fill="#27515E"/>
<path d="M40.1817 14.3858C41.8537 14.3858 43.2092 13.0304 43.2092 11.3584C43.2092 9.68636 41.8537 8.33093 40.1817 8.33093C38.5097 8.33093 37.1543 9.68636 37.1543 11.3584C37.1543 13.0304 38.5097 14.3858 40.1817 14.3858Z" fill="#5A3D5B"/>
<path d="M53.3928 4.76058C54.6457 4.76058 55.6615 3.74484 55.6615 2.49186C55.6615 1.23888 54.6457 0.223145 53.3928 0.223145C52.1398 0.223145 51.124 1.23888 51.124 2.49186C51.124 3.74484 52.1398 4.76058 53.3928 4.76058Z" fill="#754962"/>
<path d="M41.1935 17.6365C42.5327 17.6365 43.6184 16.5508 43.6184 15.2115C43.6184 13.8723 42.5327 12.7866 41.1935 12.7866C39.8542 12.7866 38.7686 13.8723 38.7686 15.2115C38.7686 16.5508 39.8542 17.6365 41.1935 17.6365Z" fill="#5A3D5B"/>
<path d="M39.3273 9.24597C40.6665 9.24597 41.7522 8.16029 41.7522 6.82104C41.7522 5.48179 40.6665 4.39612 39.3273 4.39612C37.988 4.39612 36.9023 5.48179 36.9023 6.82104C36.9023 8.16029 37.988 9.24597 39.3273 9.24597Z" fill="#754962"/>
<path d="M65.2569 31.0107C66.5962 31.0107 67.6819 29.9251 67.6819 28.5858C67.6819 27.2466 66.5962 26.1609 65.2569 26.1609C63.9177 26.1609 62.832 27.2466 62.832 28.5858C62.832 29.9251 63.9177 31.0107 65.2569 31.0107Z" fill="#5A3D5B"/>
<path d="M58.407 51.1094L66.2694 47.1448V8.04102H53.9365V48.3647C53.9365 50.6557 56.354 52.1434 58.3996 51.1094H58.407Z" fill="#E49286"/>
<path d="M53.9431 33.3613H56.0408C58.4136 33.3613 60.3402 31.4347 60.3402 29.0619V27.5295H62.8395V35.0275V36.1953C62.8395 41.4989 58.9418 45.8876 53.8613 46.6686L53.9506 45.8355V33.3613H53.9431Z" fill="#D57D7B"/>
<path d="M55.8846 41.6031H46.8543C43.0161 41.6031 39.8994 38.4939 39.8994 34.6482V15.7546C39.8994 12.3181 42.6888 9.52869 46.1254 9.52869H56.6061C60.0427 9.52869 62.8321 12.3181 62.8321 15.7546V34.6482C62.8321 38.4864 59.7228 41.6031 55.8771 41.6031H55.8846Z" fill="#E49286"/>
<path d="M66.2614 10.8899H60.333V20.0615H66.2614V10.8899Z" fill="#CD896D"/>
<path d="M66.2614 10.8899H60.333V24.3757H66.2614V10.8899Z" fill="#5A3D5B"/>
<path d="M62.8317 34.6482C62.8317 38.4864 59.7224 41.6031 55.8768 41.6031H46.8465C43.0083 41.6031 39.8916 38.4938 39.8916 34.6482V31.7993C39.8916 29.7983 41.5132 28.1768 43.5141 28.1768H56.3528C59.9307 28.1768 62.8242 31.0777 62.8242 34.6482H62.8317Z" fill="#5A3D5B"/>
<path d="M45.6417 37.3854H51.0123C53.1025 37.3854 54.791 35.6895 54.791 33.6067C54.791 31.3231 52.9388 29.4784 50.6627 29.4784H45.6269C43.8565 29.4784 42.4209 30.914 42.4209 32.6843V34.1646C42.4209 35.9424 43.8639 37.3854 45.6417 37.3854Z" fill="#E49286"/>
<path d="M60.3405 35.4664H62.8398V22.1665H60.3405V35.4664Z" fill="#5A3D5B"/>
<path d="M65.2423 19.7639C66.5816 19.7639 67.6672 18.6782 67.6672 17.339C67.6672 15.9997 66.5816 14.9141 65.2423 14.9141C63.9031 14.9141 62.8174 15.9997 62.8174 17.339C62.8174 18.6782 63.9031 19.7639 65.2423 19.7639Z" fill="#5A3D5B"/>
<path d="M67.1839 27.0833C68.0918 27.0833 68.8278 26.3473 68.8278 25.4394C68.8278 24.5315 68.0918 23.7955 67.1839 23.7955C66.2761 23.7955 65.54 24.5315 65.54 25.4394C65.54 26.3473 66.2761 27.0833 67.1839 27.0833Z" fill="#5A3D5B"/>
<path d="M66.0528 22.4863C67.3921 22.4863 68.4778 21.4006 68.4778 20.0614C68.4778 18.7222 67.3921 17.6365 66.0528 17.6365C64.7136 17.6365 63.6279 18.7222 63.6279 20.0614C63.6279 21.4006 64.7136 22.4863 66.0528 22.4863Z" fill="#5A3D5B"/>
<path d="M66.0528 20.4408C67.3921 20.4408 68.4778 19.3551 68.4778 18.0159C68.4778 16.6766 67.3921 15.5909 66.0528 15.5909C64.7136 15.5909 63.6279 16.6766 63.6279 18.0159C63.6279 19.3551 64.7136 20.4408 66.0528 20.4408Z" fill="#5A3D5B"/>
<path d="M59.0313 14.5793C59.9104 14.5793 60.6231 13.8666 60.6231 12.9875C60.6231 12.1083 59.9104 11.3956 59.0313 11.3956C58.1521 11.3956 57.4395 12.1083 57.4395 12.9875C57.4395 13.8666 58.1521 14.5793 59.0313 14.5793Z" fill="#5A3D5B"/>
<path d="M61.4483 17.8596C62.7876 17.8596 63.8733 16.7739 63.8733 15.4347C63.8733 14.0954 62.7876 13.0098 61.4483 13.0098C60.1091 13.0098 59.0234 14.0954 59.0234 15.4347C59.0234 16.7739 60.1091 17.8596 61.4483 17.8596Z" fill="#5A3D5B"/>
<path d="M62.3859 21.1995C63.7251 21.1995 64.8108 20.1138 64.8108 18.7745C64.8108 17.4353 63.7251 16.3496 62.3859 16.3496C61.0466 16.3496 59.9609 17.4353 59.9609 18.7745C59.9609 20.1138 61.0466 21.1995 62.3859 21.1995Z" fill="#5A3D5B"/>
<path d="M66.9678 25.4393H62.832V23.3417C62.832 21.0581 64.6842 19.2059 66.9678 19.2059C68.6861 19.2059 70.0845 20.6044 70.0845 22.3226C70.0845 24.0409 68.6861 25.4393 66.9678 25.4393Z" fill="#E49286"/>
<path d="M66.9754 24.0038C66.0158 24.0038 65.2422 23.2302 65.2422 22.2706C65.2422 21.3111 66.0158 20.5375 66.9754 20.5375C67.9349 20.5375 68.7085 21.3111 68.7085 22.2706C68.7085 23.2302 67.9349 24.0038 66.9754 24.0038Z" fill="#D57D7B"/>
<path d="M51.6747 7.74338C53.4987 7.74338 54.9774 6.26473 54.9774 4.44072C54.9774 2.61671 53.4987 1.13806 51.6747 1.13806C49.8507 1.13806 48.3721 2.61671 48.3721 4.44072C48.3721 6.26473 49.8507 7.74338 51.6747 7.74338Z" fill="#5A3D5B"/>
<path d="M49.622 9.43197C51.446 9.43197 52.9247 7.95332 52.9247 6.12932C52.9247 4.30531 51.446 2.82666 49.622 2.82666C47.798 2.82666 46.3193 4.30531 46.3193 6.12932C46.3193 7.95332 47.798 9.43197 49.622 9.43197Z" fill="#5A3D5B"/>
<path d="M66.9751 17.3166C68.1706 17.3166 69.1397 16.3475 69.1397 15.152C69.1397 13.9565 68.1706 12.9874 66.9751 12.9874C65.7797 12.9874 64.8105 13.9565 64.8105 15.152C64.8105 16.3475 65.7797 17.3166 66.9751 17.3166Z" fill="#5A3D5B"/>
<path d="M66.4624 14.133C67.6579 14.133 68.627 13.1639 68.627 11.9684C68.627 10.7729 67.6579 9.80383 66.4624 9.80383C65.267 9.80383 64.2979 10.7729 64.2979 11.9684C64.2979 13.1639 65.267 14.133 66.4624 14.133Z" fill="#5A3D5B"/>
<path d="M64.8554 11.9609C66.6794 11.9609 68.1581 10.4823 68.1581 8.65825C68.1581 6.83424 66.6794 5.35559 64.8554 5.35559C63.0314 5.35559 61.5527 6.83424 61.5527 8.65825C61.5527 10.4823 63.0314 11.9609 64.8554 11.9609Z" fill="#5A3D5B"/>
<path d="M57.075 6.12184C58.632 6.12184 59.8942 4.85966 59.8942 3.30268C59.8942 1.7457 58.632 0.483521 57.075 0.483521C55.518 0.483521 54.2559 1.7457 54.2559 3.30268C54.2559 4.85966 55.518 6.12184 57.075 6.12184Z" fill="#754962"/>
<path d="M57.2606 9.54342C59.0847 9.54342 60.5633 8.06477 60.5633 6.24077C60.5633 4.41676 59.0847 2.93811 57.2606 2.93811C55.4366 2.93811 53.958 4.41676 53.958 6.24077C53.958 8.06477 55.4366 9.54342 57.2606 9.54342Z" fill="#5A3D5B"/>
<path d="M62.3857 7.6616C63.9838 7.6616 65.2793 6.36612 65.2793 4.76806C65.2793 3.17 63.9838 1.87451 62.3857 1.87451C60.7877 1.87451 59.4922 3.17 59.4922 4.76806C59.4922 6.36612 60.7877 7.6616 62.3857 7.6616Z" fill="#5A3D5B"/>
<path d="M60.5712 13.4264C62.3952 13.4264 63.8739 11.9477 63.8739 10.1237C63.8739 8.29969 62.3952 6.82104 60.5712 6.82104C58.7472 6.82104 57.2686 8.29969 57.2686 10.1237C57.2686 11.9477 58.7472 13.4264 60.5712 13.4264Z" fill="#5A3D5B"/>
<path d="M46.9218 6.60531C48.7458 6.60531 50.2245 5.12666 50.2245 3.30266C50.2245 1.47865 48.7458 0 46.9218 0C45.0978 0 43.6191 1.47865 43.6191 3.30266C43.6191 5.12666 45.0978 6.60531 46.9218 6.60531Z" fill="#5A3D5B"/>
<path d="M42.1386 9.37985C43.9626 9.37985 45.4413 7.9012 45.4413 6.07719C45.4413 4.25319 43.9626 2.77454 42.1386 2.77454C40.3146 2.77454 38.8359 4.25319 38.8359 6.07719C38.8359 7.9012 40.3146 9.37985 42.1386 9.37985Z" fill="#5A3D5B"/>
<path d="M43.9833 12.2214C45.8073 12.2214 47.286 10.7428 47.286 8.91875C47.286 7.09474 45.8073 5.61609 43.9833 5.61609C42.1593 5.61609 40.6807 7.09474 40.6807 8.91875C40.6807 10.7428 42.1593 12.2214 43.9833 12.2214Z" fill="#5A3D5B"/>
<path d="M43.2021 13.4263C44.5003 13.4263 45.5526 12.3739 45.5526 11.0758C45.5526 9.77759 44.5003 8.72522 43.2021 8.72522C41.9039 8.72522 40.8516 9.77759 40.8516 11.0758C40.8516 12.3739 41.9039 13.4263 43.2021 13.4263Z" fill="#5A3D5B"/>
<path d="M65.6588 17.3167C66.1025 17.3167 66.4622 16.957 66.4622 16.5133C66.4622 16.0696 66.1025 15.71 65.6588 15.71C65.2151 15.71 64.8555 16.0696 64.8555 16.5133C64.8555 16.957 65.2151 17.3167 65.6588 17.3167Z" fill="#754962"/>
<path d="M54.2558 12.6826C56.0798 12.6826 57.5584 11.2039 57.5584 9.37993C57.5584 7.55592 56.0798 6.07727 54.2558 6.07727C52.4318 6.07727 50.9531 7.55592 50.9531 9.37993C50.9531 11.2039 52.4318 12.6826 54.2558 12.6826Z" fill="#5A3D5B"/>
<path d="M48.3642 13.7909C50.1882 13.7909 51.6668 12.3122 51.6668 10.4882C51.6668 8.6642 50.1882 7.18555 48.3642 7.18555C46.5402 7.18555 45.0615 8.6642 45.0615 10.4882C45.0615 12.3122 46.5402 13.7909 48.3642 13.7909Z" fill="#5A3D5B"/>
<path d="M54.7463 20.8052H53.8537C52.9869 20.8052 52.2842 21.5079 52.2842 22.3747V23.8326C52.2842 24.6994 52.9869 25.4021 53.8537 25.4021H54.7463C55.6131 25.4021 56.3158 24.6994 56.3158 23.8326V22.3747C56.3158 21.5079 55.6131 20.8052 54.7463 20.8052Z" fill="#EBE8EF"/>
<path d="M56.3906 24.2938V22.888C56.3906 22.2718 55.8911 21.7722 55.2749 21.7722H54.3153C53.6991 21.7722 53.1995 22.2718 53.1995 22.888V24.2938C53.1995 24.91 53.6991 25.4096 54.3153 25.4096H55.2749C55.8911 25.4096 56.3906 24.91 56.3906 24.2938Z" fill="#432139"/>
<path d="M51.2949 20.1655H57.744C57.9248 20.1655 58.0713 20.019 58.0713 19.8382V18.7894C58.0713 18.6087 57.9248 18.4621 57.744 18.4621H51.2949C51.1141 18.4621 50.9676 18.6087 50.9676 18.7894V19.8382C50.9676 20.019 51.1141 20.1655 51.2949 20.1655Z" fill="#5A3D5B"/>
<path d="M45.4414 18.4622H38.9923C38.8116 18.4622 38.665 18.6087 38.665 18.7894V19.8383C38.665 20.019 38.8116 20.1656 38.9923 20.1656H45.4414C45.6222 20.1656 45.7687 20.019 45.7687 19.8383V18.7894C45.7687 18.6087 45.6222 18.4622 45.4414 18.4622Z" fill="#5A3D5B"/>
<path d="M45.2254 33.3315C44.8907 32.8257 44.6452 32.2232 44.5336 31.5612C44.4518 31.0851 44.8311 30.6537 45.3146 30.6537H50.6108C51.0943 30.6537 51.4811 31.0926 51.3844 31.5686C51.2505 32.2827 50.9604 32.9298 50.5736 33.458C49.9785 32.5802 49.1008 31.9852 48.0892 31.9033C46.9585 31.8141 45.9246 32.3794 45.2254 33.3315Z" fill="#D6FEE8"/>
<path d="M45.2256 33.3316C45.9248 32.3794 46.9587 31.8141 48.0894 31.9034C49.101 31.9852 49.9787 32.5803 50.5738 33.458C49.9267 34.3357 48.982 34.8936 47.9332 34.8936C46.8397 34.8936 45.8653 34.2837 45.2256 33.3316Z" fill="#C65567"/>
<path d="M40.3533 27.8271H42.8749C43.335 27.8271 43.708 27.4542 43.708 26.994C43.708 26.5339 43.335 26.1609 42.8749 26.1609H40.3533C39.8932 26.1609 39.5202 26.5339 39.5202 26.994C39.5202 27.4542 39.8932 27.8271 40.3533 27.8271Z" fill="#F5948D"/>
<path d="M53.2586 27.8271H55.7802C56.2403 27.8271 56.6133 27.4542 56.6133 26.994C56.6133 26.5339 56.2403 26.1609 55.7802 26.1609H53.2586C52.7985 26.1609 52.4254 26.5339 52.4254 26.994C52.4254 27.4542 52.7985 27.8271 53.2586 27.8271Z" fill="#F5948D"/>
<path d="M114.753 77.1512C116.106 77.1512 117.46 76.7942 118.695 76.0875C121.179 74.6594 122.66 72.0931 122.66 69.2293V45.6867C122.66 43.6188 120.986 41.9452 118.918 41.9452C116.85 41.9452 115.177 43.6188 115.177 45.6867V69.2293C115.177 69.2962 115.177 69.4748 114.961 69.6012C114.745 69.7277 114.589 69.631 114.537 69.6012L84.3889 52.054C82.6037 51.0126 80.3127 51.6226 79.2713 53.4078C78.2299 55.193 78.8398 57.484 80.6251 58.5254L110.773 76.0726C112.015 76.7942 113.384 77.1587 114.753 77.1587V77.1512Z" fill="#E49286"/>
<path d="M78.0361 57.9602L90.5698 65.2126C91.0013 65.4655 91.5369 67.221 92.4741 67.6227C93.3444 67.9871 94.5569 67.6152 95.0999 67.8161C95.8586 68.0913 95.2635 69.1847 96.8032 70.122C97.257 70.3972 98.4918 69.7724 98.9157 70.0178L100.27 70.8063C102.293 71.9816 104.948 71.4088 106.161 69.4079C107.396 67.3697 106.719 64.7217 104.666 63.5315L103.185 62.6761C102.419 62.1777 102.657 60.7719 101.504 60.4446C100.708 60.2214 99.9051 60.7347 99.4216 60.5041C98.2909 59.976 98.9529 58.704 97.9041 58.1536C97.1454 57.7519 96.2379 58.5775 94.8395 57.8783L82.1868 50.5589C80.1337 49.3688 77.4931 50.0829 76.3327 52.1656C75.1946 54.2112 76.0054 56.7998 78.0361 57.9825V57.9602Z" fill="#3E869C"/>
<path d="M103.108 62.7173L98.9364 69.8941C98.7073 70.2883 98.8411 70.7937 99.2353 71.0229L104.425 74.0397C104.819 74.2688 105.325 74.135 105.554 73.7408L109.726 66.564C109.955 66.1698 109.821 65.6645 109.427 65.4353L104.237 62.4185C103.843 62.1893 103.338 62.3231 103.108 62.7173Z" fill="#27515E"/>
<path d="M114.149 42.7709C114.149 44.147 114.849 45.2627 115.704 45.2627H122.443C123.306 45.2627 123.998 44.147 123.998 42.7709V37.5193C123.998 36.1432 123.299 35.0275 122.443 35.0275H115.704C114.841 35.0275 114.149 36.1432 114.149 37.5193V42.7709Z" fill="#E49286"/>
<path d="M115.593 25.8262C116.411 28.8462 117.237 31.8736 118.055 34.8936C118.449 36.359 116.188 36.9764 115.786 35.5184C114.968 32.4985 114.142 29.471 113.324 26.451C112.93 24.9857 115.191 24.3683 115.593 25.8262Z" fill="#E49286"/>
<path d="M121.35 27.1873C120.532 30.2073 119.706 33.2348 118.888 36.2548C118.494 37.7127 116.225 37.0953 116.619 35.63C117.437 32.61 118.263 29.5825 119.081 26.5625C119.475 25.1046 121.744 25.722 121.35 27.1873Z" fill="#E49286"/>
<path d="M40.5992 24.1376C40.7926 24.1376 40.9563 23.9814 40.9563 23.7806V22.6499C40.9563 21.9805 41.4993 21.4375 42.1687 21.4375H43.0613C43.7308 21.4375 44.2738 21.9805 44.2738 22.6499V23.7806C44.2738 23.974 44.43 24.1376 44.6308 24.1376C44.8317 24.1376 44.9879 23.9814 44.9879 23.7806V22.6499C44.9879 21.5862 44.125 20.7234 43.0613 20.7234H42.1687C41.105 20.7234 40.2422 21.5862 40.2422 22.6499V23.7806C40.2422 23.974 40.3984 24.1376 40.5992 24.1376Z" fill="#4D3857"/>
<path d="M17.4956 18.2464L14.9219 19.2655L17.4956 20.2845L18.5146 22.8582L19.5263 20.2845L22.1074 19.2655L19.5263 18.2464L18.5146 15.6727L17.4956 18.2464Z" fill="#5BE5E5"/>
<path d="M27.4696 20.8573L22.6123 22.7764L27.4696 24.6881L29.3813 29.5454L31.3004 24.6881L36.1577 22.7764L31.3004 20.8573L29.3813 16L27.4696 20.8573Z" fill="#5BE5E5"/>
<g style="mix-blend-mode:multiply">
<path d="M17.9573 232.48H79.2573C80.2466 232.48 81.0574 233.723 81.0574 235.255C81.0574 236.787 80.2541 238.029 79.2573 238.029H17.9573C16.968 238.029 16.1572 236.787 16.1572 235.255C16.1572 233.723 16.9606 232.48 17.9573 232.48Z" fill="#E8E0E4"/>
</g>
</svg>
