<svg width="288" height="170" viewBox="0 0 288 170" fill="none" xmlns="http://www.w3.org/2000/svg">
<path fill-rule="evenodd" clip-rule="evenodd" d="M205.287 128.115L168.816 141.117C168.392 141.266 168.161 141.742 168.318 142.173L169.158 144.524C169.307 144.948 169.783 145.179 170.214 145.022L206.685 132.02C207.109 131.871 207.34 131.395 207.183 130.964L206.343 128.613C206.194 128.189 205.718 127.959 205.287 128.115Z" fill="#222222"/>
<path fill-rule="evenodd" clip-rule="evenodd" d="M175.808 99.2983C167.827 99.2983 159.838 99.2983 151.856 99.2983C143.875 99.2983 135.886 99.2983 127.897 99.2983C125.963 99.2983 124.379 100.883 124.379 102.817C124.379 104.78 124.379 106.752 124.379 108.708V114.599C124.379 116.533 125.792 118.118 127.518 118.118C134.636 118.118 141.748 118.118 148.859 118.118C155.97 118.118 163.088 118.118 170.2 118.118C171.925 118.118 173.837 116.541 174.454 114.599C175.079 112.635 175.704 110.672 176.329 108.708C176.954 106.744 177.586 104.78 178.211 102.817C178.828 100.883 177.75 99.2983 175.816 99.2983" fill="#302727"/>
<path fill-rule="evenodd" clip-rule="evenodd" d="M37.9301 121.926C31.2429 121.926 25.8203 127.349 25.8203 134.036C25.8203 140.723 31.2429 146.146 37.9301 146.146C44.6172 146.146 50.0398 140.723 50.0398 134.036C50.0398 127.349 44.6172 121.926 37.9301 121.926Z" fill="black"/>
<path d="M38.8081 110.813C38.8081 110.3 38.3915 109.876 37.8708 109.876C37.3501 109.876 36.9336 110.292 36.9336 110.813V156.961C36.9336 157.474 37.3501 157.898 37.8708 157.898C38.3915 157.898 38.8081 157.482 38.8081 156.961V110.813Z" fill="white"/>
<path d="M22.2126 116.913C21.8482 116.548 21.2531 116.548 20.8886 116.913C20.5241 117.277 20.5241 117.872 20.8886 118.237L53.5209 150.869C53.8854 151.233 54.4805 151.233 54.845 150.869C55.2095 150.504 55.2095 149.909 54.845 149.545L22.2126 116.913Z" fill="white"/>
<path d="M14.7966 132.957C14.2834 132.957 13.8594 133.374 13.8594 133.894C13.8594 134.408 14.2759 134.832 14.7966 134.832H60.9446C61.4578 134.832 61.8818 134.415 61.8818 133.894C61.8818 133.381 61.4652 132.957 60.9446 132.957H14.7966Z" fill="white"/>
<path d="M20.8964 149.545C20.5319 149.909 20.5319 150.504 20.8964 150.869C21.2609 151.233 21.856 151.233 22.2204 150.869L54.8528 118.237C55.2173 117.872 55.2173 117.277 54.8528 116.913C54.4883 116.548 53.8932 116.548 53.5287 116.913L20.8964 149.545Z" fill="white"/>
<path d="M26.2585 122.171C23.246 125.184 21.3864 129.342 21.3864 133.932C21.3864 138.521 23.246 142.687 26.2585 145.692C29.2711 148.704 33.4292 150.564 38.0187 150.564C42.6156 150.564 46.7737 148.704 49.7788 145.692C52.7914 142.679 54.651 138.521 54.651 133.932C54.651 129.335 52.7914 125.177 49.7788 122.171C46.7663 119.159 42.6082 117.299 38.0187 117.299C33.4217 117.299 29.2636 119.159 26.2585 122.171ZM57.6784 114.272C62.7068 119.3 65.8235 126.255 65.8235 133.932C65.8235 141.608 62.7142 148.555 57.6784 153.591C52.65 158.62 45.6951 161.736 38.0187 161.736C30.3422 161.736 23.3947 158.627 18.3589 153.591C13.3306 148.563 10.2139 141.608 10.2139 133.932C10.2139 126.255 13.3231 119.308 18.3589 114.272C23.3873 109.243 30.3422 106.127 38.0187 106.127C45.6951 106.127 52.6426 109.236 57.6784 114.272Z" fill="#A49595"/>
<path d="M24.6147 120.528C21.1856 123.957 19.0656 128.695 19.0656 133.932C19.0656 139.168 21.1856 143.906 24.6147 147.336C28.0438 150.765 32.7821 152.885 38.0187 152.885C43.2554 152.885 47.9936 150.765 51.4227 147.336C54.8518 143.906 56.9718 139.168 56.9718 133.932C56.9718 128.695 54.8518 123.957 51.4227 120.528C47.9936 117.098 43.2554 114.978 38.0187 114.978C32.7821 114.978 28.0438 117.098 24.6147 120.528ZM60.4232 111.527C66.1582 117.262 69.7064 125.184 69.7064 133.932C69.7064 142.679 66.1582 150.601 60.4232 156.336C54.6882 162.071 46.7663 165.619 38.0187 165.619C29.2711 165.619 21.3492 162.071 15.6142 156.336C9.87918 150.601 6.33105 142.679 6.33105 133.932C6.33105 125.184 9.87918 117.262 15.6142 111.527C21.3492 105.792 29.2711 102.244 38.0187 102.244C46.7663 102.244 54.6882 105.792 60.4232 111.527Z" fill="black"/>
<path fill-rule="evenodd" clip-rule="evenodd" d="M37.9305 126.382C33.7055 126.382 30.2764 129.811 30.2764 134.036C30.2764 138.261 33.7055 141.69 37.9305 141.69C42.1555 141.69 45.5846 138.261 45.5846 134.036C45.5846 129.811 42.1555 126.382 37.9305 126.382Z" fill="#A49595"/>
<path fill-rule="evenodd" clip-rule="evenodd" d="M37.9304 130.108C35.7584 130.108 34.0029 131.871 34.0029 134.036C34.0029 136.2 35.7658 137.963 37.9304 137.963C40.1024 137.963 41.8579 136.2 41.8579 134.036C41.8579 131.864 40.095 130.108 37.9304 130.108Z" fill="white"/>
<path d="M57.0095 156.009C58.036 155.131 58.1624 153.576 57.2772 152.55C56.3921 151.523 54.8449 151.397 53.8184 152.282C46.38 158.627 35.8546 159.907 27.107 155.548C22.7258 153.361 19.2074 149.976 16.8718 145.93V145.922C11.9847 137.457 12.6319 126.873 18.5082 119.062C19.6017 117.612 20.8587 116.288 22.2497 115.105C21.4017 113.684 20.6356 112.182 19.981 110.62C17.9429 112.211 16.1279 114.056 14.5807 116.109V116.117C7.50679 125.511 6.73319 138.201 12.617 148.384C15.4361 153.264 19.6612 157.333 24.9053 159.951C35.4306 165.203 48.0536 163.648 56.9946 156.016" fill="#222222"/>
<path d="M124.848 105.985C128.262 104.148 129.534 99.8934 127.697 96.4792C125.86 93.0649 121.605 91.793 118.198 93.6303C113.81 96.0031 108.952 97.1635 104.103 97.1263C99.2527 97.0817 94.4102 95.832 90.0513 93.3848C85.6924 90.9301 82.122 87.4564 79.578 83.3429C77.0341 79.2295 75.5167 74.4838 75.2638 69.5075C75.0852 65.6395 71.7975 62.6493 67.9295 62.8278C64.0615 63.0063 61.0713 66.2941 61.2498 70.1621C61.6217 77.5707 63.883 84.6223 67.6617 90.7293C71.4404 96.8437 76.744 102.006 83.2005 105.636C89.6497 109.266 96.8054 111.118 103.976 111.177C111.139 111.237 118.332 109.511 124.856 105.985" fill="#222222"/>
<path d="M182.815 6.00565C181.759 4.45846 179.647 4.06423 178.1 5.12792C176.552 6.18418 176.158 8.29668 177.222 9.84388L249.099 114.919C249.493 115.655 249.56 116.459 249.367 117.21C249.151 118.051 248.608 118.817 247.812 119.33C246.243 120.356 245.804 122.462 246.83 124.031C247.857 125.601 249.962 126.039 251.532 125.013C253.778 123.548 255.325 121.338 255.95 118.891C256.567 116.474 256.3 113.833 254.938 111.46C254.894 111.386 254.842 111.304 254.79 111.229L182.815 6.01309V6.00565Z" fill="#797979"/>
<path fill-rule="evenodd" clip-rule="evenodd" d="M246.369 110.486C237.555 111.304 231.076 119.114 231.894 127.929C232.712 136.743 240.522 143.222 249.337 142.404C258.152 141.586 264.63 133.775 263.812 124.961C262.994 116.146 255.184 109.668 246.369 110.486Z" fill="black"/>
<path fill-rule="evenodd" clip-rule="evenodd" d="M15.3467 87.4192H14.9748C13.8144 87.4192 12.8623 88.3713 12.8623 89.5317V117.47C12.8623 118.631 13.8144 119.583 14.9748 119.583H15.3467C16.5071 119.583 17.4592 118.631 17.4592 117.47V89.5317C17.4592 88.3713 16.5071 87.4192 15.3467 87.4192Z" fill="black"/>
<path fill-rule="evenodd" clip-rule="evenodd" d="M97.5417 106.104L63.8085 100.541C62.2836 100.288 60.8256 101.329 60.5727 102.861L59.2859 110.657C59.033 112.182 60.0744 113.64 61.6067 113.892L95.3399 119.456C96.8648 119.709 98.3227 118.668 98.5756 117.136L99.8625 109.34C100.115 107.815 99.074 106.357 97.5417 106.104Z" fill="#424242"/>
<path fill-rule="evenodd" clip-rule="evenodd" d="M98.5309 100.117L64.7977 94.5526C63.2728 94.2997 61.8149 95.3411 61.562 96.8734L60.2752 104.669C60.0222 106.194 61.0636 107.652 62.5959 107.905L96.3292 113.469C97.854 113.721 99.312 112.68 99.5649 111.148L100.852 103.352C101.105 101.827 100.063 100.369 98.5309 100.117Z" fill="#BFBFBF"/>
<path d="M160.686 151.799C162.412 151.553 163.617 149.954 163.371 148.228C163.126 146.503 161.527 145.298 159.801 145.543L106.326 153.242H106.304C103.968 153.591 101.64 153.502 99.4456 152.959C97.3406 152.438 95.3619 151.501 93.6213 150.132C91.851 148.742 90.408 147.008 89.374 145.045C88.3401 143.088 87.7152 140.924 87.5665 138.677C87.5888 131.098 85.8333 123.734 82.5753 117.106C79.2875 110.419 74.46 104.475 68.3605 99.8413C66.9769 98.7925 64.9983 99.0603 63.9495 100.444C62.9007 101.827 63.1685 103.806 64.552 104.855C69.8556 108.886 74.0509 114.049 76.9147 119.866C79.7487 125.63 81.2736 132.05 81.2587 138.648C81.2513 138.781 81.2513 138.915 81.2587 139.057C81.467 142.211 82.3373 145.245 83.7803 147.983C85.2234 150.713 87.2392 153.145 89.7311 155.094C92.1932 157.02 94.9826 158.344 97.9282 159.081C100.933 159.825 104.095 159.959 107.234 159.49L160.686 151.791V151.799Z" fill="#473A3A"/>
<path fill-rule="evenodd" clip-rule="evenodd" d="M112.232 111.936H98.6722C90.9958 111.936 84.7178 118.214 84.7178 125.891C84.7178 133.567 90.9958 139.845 98.6722 139.845H112.232C119.909 139.845 126.187 133.567 126.187 125.891C126.187 118.214 119.909 111.936 112.232 111.936Z" fill="#9C9393"/>
<path fill-rule="evenodd" clip-rule="evenodd" d="M174.737 125.058L161.809 118.155C160.508 117.455 158.871 117.954 158.179 119.256L156.089 123.176C155.39 124.477 155.888 126.114 157.19 126.813L170.118 133.716C171.42 134.415 173.056 133.917 173.748 132.615L175.838 128.695C176.537 127.393 176.039 125.757 174.737 125.065" fill="#424242"/>
<path fill-rule="evenodd" clip-rule="evenodd" d="M171.792 110.091L163.52 105.673C160.984 104.319 157.8 105.286 156.446 107.823L145.802 127.758C144.448 130.294 145.415 133.478 147.952 134.832L156.223 139.25C158.76 140.604 161.943 139.637 163.297 137.1L173.941 117.165C175.295 114.629 174.328 111.445 171.792 110.091Z" fill="#424242"/>
<path fill-rule="evenodd" clip-rule="evenodd" d="M172.833 120.572L154.229 110.634C153.939 110.478 153.567 110.59 153.418 110.88L152.95 111.758C152.793 112.048 152.905 112.42 153.195 112.568L171.799 122.506C172.089 122.662 172.461 122.551 172.609 122.261L173.078 121.383C173.234 121.093 173.123 120.721 172.833 120.572Z" fill="#B9AFAF"/>
<path fill-rule="evenodd" clip-rule="evenodd" d="M170.817 124.336L152.213 114.398C151.923 114.242 151.551 114.354 151.403 114.644L150.934 115.521C150.778 115.812 150.889 116.176 151.179 116.332L169.783 126.27C170.073 126.426 170.445 126.315 170.594 126.024L171.062 125.147C171.219 124.857 171.107 124.485 170.817 124.336Z" fill="#B9AFAF"/>
<path fill-rule="evenodd" clip-rule="evenodd" d="M168.832 128.063L150.228 118.125C149.938 117.969 149.566 118.08 149.417 118.37L148.949 119.248C148.792 119.538 148.904 119.91 149.194 120.059L167.798 129.997C168.088 130.153 168.46 130.041 168.608 129.751L169.077 128.873C169.233 128.583 169.122 128.219 168.832 128.063Z" fill="#B9AFAF"/>
<path fill-rule="evenodd" clip-rule="evenodd" d="M166.824 131.827L148.22 121.889C147.93 121.733 147.566 121.844 147.409 122.134L146.941 123.012C146.785 123.302 146.896 123.674 147.186 123.823L165.79 133.761C166.08 133.917 166.444 133.805 166.601 133.515L167.069 132.637C167.225 132.347 167.114 131.975 166.824 131.827Z" fill="#B9AFAF"/>
<path fill-rule="evenodd" clip-rule="evenodd" d="M164.778 135.65L146.174 125.712C145.884 125.556 145.512 125.668 145.364 125.958L144.895 126.835C144.739 127.126 144.85 127.497 145.14 127.646L163.744 137.584C164.034 137.74 164.406 137.629 164.555 137.338L165.023 136.461C165.18 136.171 165.068 135.799 164.778 135.65Z" fill="#B9AFAF"/>
<path fill-rule="evenodd" clip-rule="evenodd" d="M116.271 112.449L124.111 107.302C126.514 105.725 129.772 106.402 131.349 108.805L143.749 127.698C145.326 130.101 144.649 133.359 142.246 134.936L134.406 140.083C132.003 141.66 128.745 140.983 127.168 138.581L114.769 119.687C113.192 117.284 113.869 114.026 116.271 112.449Z" fill="#424242"/>
<path fill-rule="evenodd" clip-rule="evenodd" d="M112.403 114.993L127.979 104.773C128.819 104.223 129.965 104.461 130.515 105.301L132.182 107.838C132.732 108.678 132.494 109.824 131.654 110.374L116.077 120.594C115.237 121.145 114.091 120.907 113.541 120.066L111.875 117.53C111.324 116.689 111.562 115.544 112.403 114.993Z" fill="#B9AFAF"/>
<path fill-rule="evenodd" clip-rule="evenodd" d="M116.174 122.99L133.811 111.416C134.086 111.237 134.465 111.311 134.644 111.587L135.187 112.42C135.365 112.695 135.291 113.074 135.016 113.253L117.379 124.827C117.104 125.006 116.725 124.931 116.546 124.656L116.003 123.823C115.825 123.548 115.899 123.168 116.174 122.99Z" fill="#B9AFAF"/>
<path fill-rule="evenodd" clip-rule="evenodd" d="M118.518 126.553L136.154 114.979C136.43 114.8 136.809 114.874 136.988 115.15L137.531 115.983C137.709 116.258 137.635 116.637 137.36 116.816L119.723 128.39C119.448 128.569 119.068 128.494 118.89 128.219L118.347 127.386C118.168 127.111 118.243 126.731 118.518 126.553Z" fill="#B9AFAF"/>
<path fill-rule="evenodd" clip-rule="evenodd" d="M120.832 130.078L138.468 118.504C138.743 118.326 139.123 118.4 139.301 118.675L139.844 119.508C140.023 119.784 139.948 120.163 139.673 120.342L122.037 131.916C121.761 132.094 121.382 132.02 121.203 131.745L120.66 130.912C120.482 130.636 120.556 130.257 120.832 130.078Z" fill="#B9AFAF"/>
<path fill-rule="evenodd" clip-rule="evenodd" d="M123.174 133.649L140.811 122.075C141.086 121.896 141.465 121.971 141.644 122.246L142.187 123.079C142.365 123.354 142.291 123.733 142.016 123.912L124.379 135.486C124.104 135.665 123.725 135.59 123.546 135.315L123.003 134.482C122.825 134.207 122.899 133.827 123.174 133.649Z" fill="#B9AFAF"/>
<path fill-rule="evenodd" clip-rule="evenodd" d="M125.555 137.279L143.192 125.705C143.467 125.526 143.846 125.601 144.025 125.876L144.568 126.709C144.746 126.984 144.672 127.363 144.397 127.542L126.76 139.116C126.485 139.295 126.106 139.22 125.927 138.945L125.384 138.112C125.206 137.837 125.28 137.457 125.555 137.279Z" fill="#B9AFAF"/>
<path fill-rule="evenodd" clip-rule="evenodd" d="M143.86 106.528C138.229 106.528 133.662 111.096 133.662 116.727C133.662 122.357 138.229 126.925 143.86 126.925C149.491 126.925 154.058 122.357 154.058 116.727C154.058 111.096 149.491 106.528 143.86 106.528Z" fill="#9C9393"/>
<path fill-rule="evenodd" clip-rule="evenodd" d="M143.861 109.548C139.896 109.548 136.683 112.762 136.683 116.727C136.683 120.691 139.896 123.905 143.861 123.905C147.825 123.905 151.039 120.691 151.039 116.727C151.039 112.762 147.825 109.548 143.861 109.548Z" fill="#E4E4E4"/>
<path fill-rule="evenodd" clip-rule="evenodd" d="M143.861 111.973C141.235 111.973 139.107 114.101 139.107 116.727C139.107 119.352 141.235 121.48 143.861 121.48C146.486 121.48 148.614 119.352 148.614 116.727C148.614 114.101 146.486 111.973 143.861 111.973Z" fill="#424242"/>
<path fill-rule="evenodd" clip-rule="evenodd" d="M143.861 115.507C143.184 115.507 142.641 116.05 142.641 116.726C142.641 117.403 143.184 117.946 143.861 117.946C144.537 117.946 145.08 117.403 145.08 116.726C145.08 116.05 144.537 115.507 143.861 115.507Z" fill="#E4E4E4"/>
<path fill-rule="evenodd" clip-rule="evenodd" d="M98.776 113.164C92.1335 113.164 86.748 118.549 86.748 125.199C86.748 131.841 92.1335 137.227 98.776 137.227C105.418 137.227 110.811 131.841 110.811 125.199C110.811 118.556 105.426 113.164 98.776 113.164Z" fill="#E4E4E4"/>
<path fill-rule="evenodd" clip-rule="evenodd" d="M98.7764 115.782C93.577 115.782 89.3594 119.999 89.3594 125.199C89.3594 130.398 93.577 134.616 98.7764 134.616C103.976 134.616 108.193 130.398 108.193 125.199C108.193 119.999 103.976 115.782 98.7764 115.782Z" fill="#424242"/>
<path fill-rule="evenodd" clip-rule="evenodd" d="M98.776 120.795C96.3436 120.795 94.3799 122.767 94.3799 125.192C94.3799 127.616 96.3511 129.588 98.776 129.588C101.201 129.588 103.172 127.616 103.172 125.192C103.172 122.759 101.201 120.795 98.776 120.795Z" fill="#E4E4E4"/>
<path fill-rule="evenodd" clip-rule="evenodd" d="M98.7766 123.681C97.9435 123.681 97.2666 124.358 97.2666 125.191C97.2666 126.024 97.9435 126.701 98.7766 126.701C99.6097 126.701 100.287 126.024 100.287 125.191C100.287 124.358 99.6097 123.681 98.7766 123.681Z" fill="#424242"/>
<path fill-rule="evenodd" clip-rule="evenodd" d="M116.956 133.292C116.621 133.292 116.346 133.567 116.346 133.902C116.346 134.237 116.621 134.512 116.956 134.512C117.29 134.512 117.566 134.237 117.566 133.902C117.566 133.567 117.29 133.292 116.956 133.292Z" fill="white"/>
<path d="M124.216 105.725C123.345 104.446 121.597 104.118 120.318 104.989C119.039 105.859 118.711 107.607 119.582 108.886L143.727 144.04C144.597 145.32 146.345 145.647 147.624 144.777C148.904 143.906 149.231 142.158 148.361 140.879L124.216 105.725Z" fill="#424242"/>
<path d="M214.474 73.7251C214.206 73.3085 212.622 73.7771 212.458 73.3383L173.682 145.446C172.759 147.165 173.399 149.299 175.117 150.222C176.836 151.144 178.97 150.504 179.893 148.786L217.531 79.3931C215.82 78.7385 216.222 76.5219 215.448 74.878C215.3 74.5954 214.585 74.0226 214.481 73.7251" fill="#222222"/>
<path fill-rule="evenodd" clip-rule="evenodd" d="M175.869 112.271L159.43 103.494C158.545 103.018 157.429 103.36 156.953 104.245L155.525 106.915C155.049 107.8 155.391 108.916 156.276 109.392L172.715 118.17C173.6 118.646 174.716 118.304 175.192 117.418L176.62 114.748C177.096 113.863 176.754 112.747 175.869 112.271Z" fill="white"/>
<path d="M64.9316 137.071C64.3291 140.083 66.2854 143.006 69.2905 143.609C72.3031 144.211 75.2263 142.255 75.8289 139.25C77.6141 130.428 76.2603 121.495 72.37 113.833C68.502 106.216 62.1422 99.8339 53.8781 96.0254C48.515 93.5484 42.832 92.3954 37.2309 92.4326C31.4364 92.4773 25.746 93.8087 20.5689 96.2857C17.8018 97.6098 16.6265 100.927 17.9505 103.702C19.2746 106.469 22.5921 107.644 25.3666 106.32C29.0784 104.542 33.1472 103.583 37.2755 103.553C41.2774 103.523 45.3462 104.356 49.2142 106.142C55.1277 108.872 59.6726 113.424 62.4248 118.854C65.2217 124.366 66.2035 130.77 64.9241 137.078" fill="#A69999"/>
<path d="M138.504 97.461C139.791 96.2783 139.873 94.2848 138.69 92.998C137.508 91.7111 135.514 91.6293 134.227 92.812C128.753 97.8478 121.991 100.883 114.969 101.783C107.932 102.683 100.62 101.455 94.0449 97.9668C94.0077 97.9445 93.9705 97.9296 93.9259 97.9073C90.1695 95.7874 87.6777 94.4559 81.474 93.7269C75.6497 93.0426 66.3368 92.9236 48.7301 93.1988C46.9895 93.2211 45.5985 94.6493 45.6134 96.3899C45.6283 100.02 45.6357 101.835 45.6357 101.835C46.7812 102.132 47.9863 101.679 48.6557 100.712C48.9086 100.34 49.0723 99.9231 49.1318 99.4991C66.1434 99.2388 75.1514 99.3504 80.7302 100.012C85.7511 100.607 87.7892 101.686 90.8241 103.397C90.9134 103.456 91.0026 103.508 91.0993 103.561C98.8353 107.667 107.456 109.11 115.758 108.038C124.066 106.967 132.048 103.397 138.504 97.461Z" fill="black"/>
<path d="M138.504 103.337C139.791 102.155 139.873 100.161 138.69 98.8743C137.508 97.5875 135.514 97.5057 134.227 98.6884C128.753 103.724 121.991 106.759 114.969 107.659C107.932 108.559 100.62 107.332 94.0449 103.843C94.0077 103.821 93.9705 103.806 93.9259 103.784C90.1695 101.664 87.6777 100.34 81.474 99.6033C75.6497 98.919 66.3368 98.7999 48.7301 99.0752C46.9895 99.0975 45.5985 100.526 45.6134 102.266C45.6357 104.007 47.0639 105.398 48.8045 105.383C66.0318 105.115 75.1142 105.227 80.7302 105.889C85.7511 106.484 87.7892 107.562 90.8241 109.273C90.9134 109.333 91.0026 109.385 91.0993 109.437C98.8353 113.543 107.456 114.986 115.758 113.915C124.066 112.844 132.048 109.273 138.504 103.337Z" fill="#424242"/>
<path fill-rule="evenodd" clip-rule="evenodd" d="M154.699 101.634L186.766 94.151L199.329 91.2202C200.222 91.012 201.092 90.6772 201.888 90.3723C211.112 86.7721 216.534 76.8492 214.221 66.9264C211.677 56.044 200.795 49.275 189.912 51.8189C188.12 52.2355 186.438 52.8826 184.899 53.7157L183.723 54.2959C181.641 54.11 179.498 54.2513 177.349 54.7497C175.556 55.1662 173.875 55.8134 172.335 56.6465C146.45 69.4703 133.507 75.8822 133.507 75.8822C126.544 79.1774 122.386 85.9464 124.119 93.3625C125.994 101.403 134.109 106.447 142.143 104.565L154.706 101.634H154.699Z" fill="#424242"/>
<path fill-rule="evenodd" clip-rule="evenodd" d="M145.073 68.7264C138.111 72.0216 133.953 78.7906 135.686 86.2067C137.56 94.2476 145.676 99.2908 153.709 97.4089L198.34 86.9951C199.232 86.7869 200.103 86.4521 200.898 86.1472C210.122 82.547 215.545 72.6241 213.231 62.7013C210.687 51.8189 199.805 45.0499 188.923 47.5938C181.038 49.446 177.103 50.3684 177.103 50.3684C177.691 50.9932 178.375 51.499 179.119 51.8635L145.081 68.7264H145.073Z" fill="#424242"/>
<path fill-rule="evenodd" clip-rule="evenodd" d="M132.51 71.6646C125.547 74.9598 121.389 81.7288 123.122 89.1449C124.997 97.1858 133.112 102.229 141.146 100.347L185.776 89.9334C186.669 89.7251 187.539 89.3904 188.335 89.0854C197.559 85.4852 202.981 75.5624 200.668 65.6395C198.124 54.7571 187.242 47.9881 176.359 50.5321C174.566 50.9486 172.885 51.5958 171.346 52.4289C145.46 65.2527 132.517 71.6646 132.517 71.6646H132.51Z" fill="#B9AFAF"/>
<path d="M207.474 70.7944C208.396 69.0761 207.756 66.9413 206.038 66.0189C204.32 65.0965 202.185 65.7362 201.263 67.4545L161.512 140.968C160.589 142.687 161.229 144.822 162.947 145.744C164.666 146.666 166.8 146.027 167.723 144.308L207.474 70.7944Z" fill="#222222"/>
<path d="M246.236 97.1561C246.176 96.5089 245.596 96.0254 244.949 96.0924C244.302 96.1519 243.818 96.7321 243.885 97.3792L249.285 155.391C249.345 156.039 249.925 156.522 250.572 156.455C251.219 156.396 251.703 155.815 251.636 155.168L246.236 97.1561Z" fill="white"/>
<path d="M226.092 106.759C225.587 106.342 224.843 106.409 224.426 106.915C224.01 107.421 224.077 108.165 224.582 108.581L269.421 145.781C269.927 146.198 270.671 146.131 271.087 145.625C271.504 145.119 271.437 144.375 270.931 143.959L226.092 106.759Z" fill="white"/>
<path d="M218.647 127.787C218 127.847 217.516 128.427 217.583 129.074C217.643 129.721 218.223 130.205 218.87 130.138L276.882 124.738C277.53 124.678 278.013 124.098 277.946 123.451C277.887 122.804 277.306 122.32 276.659 122.387L218.647 127.787Z" fill="white"/>
<path d="M228.249 147.931C227.833 148.436 227.9 149.18 228.406 149.597C228.911 150.013 229.655 149.946 230.072 149.441L267.271 104.602C267.688 104.096 267.621 103.352 267.115 102.936C266.609 102.519 265.865 102.586 265.449 103.092L228.249 147.931Z" fill="white"/>
<path d="M231.79 112.896C228.361 117.032 226.509 122.476 227.044 128.249C227.58 134.021 230.406 139.034 234.542 142.464C238.678 145.893 244.123 147.745 249.895 147.209C255.667 146.674 260.681 143.847 264.11 139.711C267.539 135.576 269.391 130.131 268.856 124.358C268.32 118.586 265.493 113.573 261.358 110.144C257.222 106.714 251.777 104.862 246.005 105.398C240.233 105.933 235.219 108.76 231.79 112.896ZM270.358 99.2909C277.268 105.026 281.999 113.402 282.892 123.049C283.792 132.697 280.69 141.801 274.955 148.712C269.22 155.622 260.844 160.353 251.197 161.246C241.549 162.146 232.445 159.044 225.534 153.309C218.624 147.574 213.893 139.198 213.001 129.55C212.1 119.903 215.202 110.798 220.937 103.888C226.672 96.9776 235.048 92.2468 244.696 91.3541C254.343 90.4541 263.448 93.5559 270.358 99.2909Z" fill="#A49595"/>
<path d="M229.529 111.021C225.616 115.737 223.504 121.941 224.121 128.524C224.731 135.107 227.959 140.812 232.668 144.725C237.384 148.637 243.587 150.75 250.17 150.133C256.753 149.523 262.459 146.294 266.371 141.586C270.284 136.87 272.396 130.666 271.779 124.083C271.169 117.5 267.941 111.795 263.232 107.882C258.516 103.97 252.313 101.857 245.73 102.475C239.147 103.085 233.441 106.313 229.529 111.021ZM273.49 95.5197C281.367 102.058 286.752 111.602 287.779 122.596C288.805 133.589 285.272 143.966 278.734 151.843C272.195 159.721 262.652 165.106 251.658 166.133C240.664 167.159 230.287 163.626 222.41 157.087C214.533 150.549 209.147 141.006 208.121 130.012C207.094 119.018 210.628 108.641 217.166 100.764C223.704 92.8865 233.248 87.5011 244.242 86.4745C255.243 85.448 265.612 88.9813 273.49 95.5197Z" fill="black"/>
<path d="M176.337 140.968C176.27 141.422 176.114 141.824 175.921 142.24C175.095 143.631 173.131 143.914 171.659 143.899H171.629V143.884H105.546C105.427 143.884 105.308 143.884 105.196 143.899C101.812 143.929 98.8514 143.564 96.3 142.769C93.8899 142.017 91.8741 140.864 90.2526 139.287C86.7565 135.628 82.4869 132.898 77.5775 131.603L10.5574 113.647C8.68288 113.149 6.75633 114.257 6.25796 116.132C5.75958 118.006 6.8679 119.933 8.74239 120.431L75.7625 138.387H75.7774C79.4445 139.354 82.5984 141.43 85.2019 144.16C85.2019 144.16 85.2539 144.212 85.2837 144.241C87.7384 146.651 90.7137 148.385 94.2172 149.478C97.4529 150.49 101.142 150.958 105.286 150.914C105.375 150.914 105.457 150.921 105.546 150.921H171.629V150.906C174.002 150.928 176.055 150.49 177.758 149.656C179.64 148.734 181.09 147.365 182.065 145.617C182.124 145.513 182.184 145.409 182.236 145.305C183.292 143.14 183.627 140.782 183.151 138.625C182.682 136.528 181.485 134.683 179.461 133.426C179.573 133.902 179.64 134.4 179.64 134.906V135.233C179.64 136.49 179.268 137.748 178.524 138.826C178.264 139.228 177.951 139.607 177.602 139.942L177.513 140.031C177.148 140.396 176.754 140.701 176.33 140.961" fill="#424242"/>
<path d="M93.5025 153.115C94.6108 153.45 95.7861 152.825 96.1208 151.717C96.4555 150.608 95.8307 149.433 94.7224 149.098L38.5475 132.035C37.4391 131.7 36.2639 132.325 35.9291 133.433C35.5944 134.541 36.2192 135.717 37.3276 136.052L93.5025 153.115Z" fill="#424242"/>
<path d="M179.141 128.747C177.46 127.802 175.325 128.397 174.373 130.078C173.428 131.76 174.023 133.894 175.704 134.847C176.046 135.04 176.247 135.33 176.322 135.65C176.448 136.223 176.307 136.966 175.927 137.74V137.755C175.652 138.216 175.236 138.588 174.693 138.856C173.919 139.235 172.907 139.429 171.665 139.421H171.635V139.406H105.553C105.433 139.406 105.314 139.406 105.203 139.421C101.818 139.451 98.8579 139.086 96.3065 138.29C93.8965 137.539 91.8807 136.386 90.2591 134.809C88.6376 133.113 86.6813 131.44 84.3679 130.026C82.9992 129.193 81.5041 128.449 79.8825 127.847C79.5553 127.728 79.2205 127.609 78.8858 127.497L77.3386 126.992L4.9851 102.906C0.91629 101.597 0.00880563 102.564 1.48905 106.216C2.41885 108.507 4.27102 114.473 8.53323 115.871C8.53323 115.886 8.6225 115.908 8.7787 115.945H8.78614L75.8063 133.902H75.8212C77.6584 134.385 79.2949 135.129 80.7528 136.014C82.5083 137.085 84.0034 138.365 85.2456 139.674C85.2456 139.674 85.2977 139.726 85.3275 139.756C87.7821 142.166 90.7575 143.899 94.261 144.993C97.4967 146.004 101.186 146.473 105.329 146.428C105.419 146.428 105.5 146.436 105.59 146.436H171.673V146.421C174.045 146.443 176.098 146.004 177.802 145.171C179.684 144.249 181.134 142.88 182.109 141.132C182.168 141.028 182.228 140.924 182.28 140.82C183.336 138.655 183.671 136.297 183.195 134.14C182.704 131.923 181.395 130.004 179.178 128.747" fill="#BFBFBF"/>
<path fill-rule="evenodd" clip-rule="evenodd" d="M176.5 124.626L177.802 125.318C178.234 125.549 178.397 126.092 178.167 126.523L173.242 135.739C173.012 136.171 172.469 136.334 172.037 136.104L170.736 135.412C170.304 135.181 170.141 134.638 170.371 134.207L175.295 124.991C175.526 124.559 176.069 124.396 176.5 124.626Z" fill="#B9AFAF"/>
<path fill-rule="evenodd" clip-rule="evenodd" d="M153.894 134.028C149.721 134.028 146.337 137.413 146.337 141.586C146.337 145.759 149.721 149.143 153.894 149.143C158.067 149.143 161.452 145.759 161.452 141.586C161.452 137.413 158.067 134.028 153.894 134.028Z" fill="#B1B1B1"/>
<path fill-rule="evenodd" clip-rule="evenodd" d="M94.1125 144.851C90.6611 144.851 87.8643 147.648 87.8643 151.099C87.8643 154.551 90.6611 157.348 94.1125 157.348C97.5639 157.348 100.361 154.551 100.361 151.099C100.361 147.648 97.5639 144.851 94.1125 144.851Z" fill="#CACACA"/>
<path fill-rule="evenodd" clip-rule="evenodd" d="M94.1122 147.894C92.3419 147.894 90.9062 149.329 90.9062 151.1C90.9062 152.87 92.3419 154.305 94.1122 154.305C95.8825 154.305 97.3182 152.87 97.3182 151.1C97.3182 149.329 95.8825 147.894 94.1122 147.894Z" fill="#473A3A"/>
<path fill-rule="evenodd" clip-rule="evenodd" d="M94.112 149.85C93.4202 149.85 92.8623 150.408 92.8623 151.1C92.8623 151.791 93.4202 152.349 94.112 152.349C94.8037 152.349 95.3616 151.791 95.3616 151.1C95.3616 150.408 94.8037 149.85 94.112 149.85Z" fill="white"/>
<path fill-rule="evenodd" clip-rule="evenodd" d="M224.151 54.1396C215.716 54.1396 208.88 59.0118 208.88 65.0295C208.88 71.0397 215.716 75.9193 224.151 75.9193C224.939 75.9193 225.713 75.8747 226.472 75.7929C226.472 75.6813 226.464 75.5623 226.464 75.4433V60.9309C226.464 60.3359 226.561 59.711 226.628 59.116C226.687 58.5878 226.821 58.0969 226.978 57.6134C227.059 56.4679 227.454 55.3967 228.071 54.5041C226.821 54.2661 225.512 54.1396 224.158 54.1396" fill="#222222"/>
<path fill-rule="evenodd" clip-rule="evenodd" d="M228.391 53.619H224.806C223.645 53.619 222.693 54.5711 222.693 55.7315V74.335C222.693 75.4954 223.645 76.4475 224.806 76.4475H228.391C229.552 76.4475 230.504 75.4954 230.504 74.335V55.7315C230.504 54.5711 229.552 53.619 228.391 53.619Z" fill="#B9AFAF"/>
<path fill-rule="evenodd" clip-rule="evenodd" d="M220.134 70.7199C219.241 70.6753 218.49 71.3671 218.445 72.2523C218.401 73.1449 219.093 73.8961 219.978 73.9408C220.87 73.9854 221.622 73.2936 221.666 72.4085C221.711 71.5159 221.019 70.7646 220.134 70.7199Z" fill="white"/>
<path fill-rule="evenodd" clip-rule="evenodd" d="M153.895 137.993C151.916 137.993 150.31 139.6 150.31 141.578C150.31 143.557 151.916 145.164 153.895 145.164C155.873 145.164 157.48 143.557 157.48 141.578C157.48 139.6 155.873 137.993 153.895 137.993Z" fill="#473A3A"/>
<path fill-rule="evenodd" clip-rule="evenodd" d="M152.526 141.668C152.526 140.284 153.657 139.161 155.041 139.161L168.869 139.183C170.252 139.183 171.375 140.314 171.375 141.697C171.375 143.081 170.245 144.204 168.861 144.204L155.033 144.182C153.65 144.182 152.526 143.051 152.526 141.668Z" fill="#E4E4E4"/>
<path fill-rule="evenodd" clip-rule="evenodd" d="M181.528 0.664916C178.709 -0.145871 175.771 1.48314 174.96 4.29486C174.149 7.11402 175.778 10.0522 178.59 10.863C181.409 11.6738 184.347 10.0448 185.158 7.23304C185.969 4.41388 184.34 1.4757 181.528 0.664916Z" fill="#797979"/>
<path fill-rule="evenodd" clip-rule="evenodd" d="M165.536 92.2244C145.296 78.9468 137.68 79.1551 137.516 79.1625C134.221 80.0328 130.643 78.6269 128.88 75.5549C128.88 75.5549 129.482 75.3094 130.695 74.8259C133.603 74.9226 137.04 73.3159 140.997 70.0133C141.51 69.4479 142.053 68.9868 142.604 68.6074C144.233 67.4768 145.899 67.0751 147.03 66.9784C149.767 66.7404 152.482 67.6255 154.55 69.4331C160.434 74.1788 168.08 76.1723 175.526 74.8929C178.531 74.4466 181.589 75.2053 184.028 77.0128C186.468 78.8203 188.09 81.5279 188.536 84.5256C188.819 86.11 187.19 86.4522 187.19 86.4522C176.218 89.3606 165.544 92.2318 165.544 92.2318" fill="#222222"/>
<path fill-rule="evenodd" clip-rule="evenodd" d="M181.842 56.1407C176.241 57.4498 172.759 63.0435 174.069 68.6447C175.378 74.2458 180.971 77.727 186.573 76.4178C192.174 75.1086 195.655 69.515 194.346 63.9138C193.037 58.3127 187.443 54.8315 181.842 56.1407Z" fill="white"/>
<path fill-rule="evenodd" clip-rule="evenodd" d="M182.562 59.2574C178.679 60.1648 176.269 64.0402 177.177 67.9231C178.084 71.806 181.959 74.216 185.842 73.3085C189.725 72.401 192.135 68.5256 191.228 64.6428C190.32 60.7599 186.445 58.3499 182.562 59.2574Z" fill="#B9AFAF"/>
<path fill-rule="evenodd" clip-rule="evenodd" d="M183.715 64.1666C182.548 64.4419 181.826 65.6022 182.094 66.7701C182.369 67.9379 183.529 68.6594 184.697 68.3917C185.865 68.1164 186.587 66.956 186.319 65.7882C186.044 64.6204 184.876 63.8988 183.715 64.1666Z" fill="white"/>
<path fill-rule="evenodd" clip-rule="evenodd" d="M27.5981 87.4043C27.5163 87.6274 27.4717 87.8729 27.4717 88.1258V109.489H32.0612V88.1258C32.0612 87.8729 32.0166 87.6274 31.9347 87.4043H27.5981Z" fill="black"/>
<path d="M280.14 146.316C280.958 145 280.557 143.267 279.24 142.448C277.923 141.63 276.19 142.032 275.372 143.349C271.37 149.79 265.397 154.402 258.643 156.775C251.881 159.148 244.331 159.274 237.183 156.745C230.035 154.216 224.24 149.374 220.476 143.289C216.713 137.204 214.972 129.855 215.902 122.32C216.839 114.792 220.32 108.105 225.46 103.122C230.6 98.1304 237.399 94.8501 244.934 94.1509C246.474 94.0095 247.612 92.6483 247.47 91.1085C247.329 89.5688 245.968 88.4307 244.428 88.572C235.562 89.3977 227.58 93.2508 221.548 99.1048C215.508 104.959 211.416 112.814 210.316 121.643C209.222 130.465 211.275 139.079 215.701 146.235C220.127 153.39 226.918 159.081 235.301 162.041C243.684 165.009 252.543 164.853 260.473 162.071C268.417 159.289 275.424 153.874 280.125 146.316" fill="#222222"/>
<path fill-rule="evenodd" clip-rule="evenodd" d="M201.984 133.463L166.733 149.485C166.317 149.671 166.138 150.162 166.324 150.579L167.358 152.855C167.544 153.272 168.035 153.45 168.452 153.264L203.702 137.242C204.119 137.056 204.298 136.565 204.112 136.148L203.078 133.872C202.892 133.456 202.401 133.277 201.984 133.463Z" fill="#222222"/>
<path fill-rule="evenodd" clip-rule="evenodd" d="M111.302 122.923C110.968 122.923 110.692 123.198 110.692 123.533C110.692 123.867 110.968 124.143 111.302 124.143C111.637 124.143 111.912 123.867 111.912 123.533C111.912 123.198 111.637 122.923 111.302 122.923Z" fill="white"/>
<path fill-rule="evenodd" clip-rule="evenodd" d="M247.649 124.217C246.421 124.329 245.514 125.422 245.625 126.649C245.737 127.877 246.831 128.784 248.058 128.673C249.285 128.561 250.193 127.468 250.081 126.24C249.97 125.013 248.876 124.105 247.649 124.217Z" fill="#A49595"/>
<path d="M245.417 127.773C246.392 129.216 248.355 129.587 249.791 128.613C251.234 127.639 251.606 125.675 250.632 124.239L179.052 18.8741C179.052 18.8741 179.007 18.8071 178.985 18.7774C172.647 10.1265 166.994 9.11487 158.15 7.53792C156.826 7.29989 155.427 7.05443 153.947 6.75689C152.244 6.42217 150.585 7.53048 150.25 9.23388C149.915 10.9373 151.024 12.596 152.727 12.9308C154.259 13.2358 155.68 13.4887 157.026 13.7267C164.361 15.0358 169.047 15.869 173.904 22.504L245.417 127.773Z" fill="#797979"/>
<path fill-rule="evenodd" clip-rule="evenodd" d="M155.189 5.03123C152.586 4.27995 149.871 5.78994 149.119 8.38595C148.368 10.9894 149.871 13.7044 152.474 14.4557C155.077 15.207 157.792 13.7044 158.544 11.101C159.295 8.49753 157.785 5.78251 155.189 5.03123Z" fill="#797979"/>
<path fill-rule="evenodd" clip-rule="evenodd" d="M246.958 116.823C241.646 117.322 237.734 122.03 238.232 127.341C238.731 132.652 243.439 136.565 248.75 136.066C254.061 135.568 257.974 130.859 257.475 125.548C256.977 120.237 252.269 116.325 246.958 116.823Z" fill="#A49595"/>
<path fill-rule="evenodd" clip-rule="evenodd" d="M247.396 121.502C244.666 121.755 242.665 124.172 242.918 126.902C243.171 129.632 245.588 131.633 248.318 131.38C251.048 131.127 253.049 128.71 252.796 125.98C252.543 123.25 250.126 121.249 247.396 121.502Z" fill="white"/>
<g style="mix-blend-mode:multiply">
<path d="M265.679 159.46H22.5172C18.5823 159.46 15.3838 161.67 15.3838 164.392C15.3838 167.114 18.5749 169.324 22.5172 169.324H265.679C269.614 169.324 272.813 167.114 272.813 164.392C272.813 161.67 269.621 159.46 265.679 159.46Z" fill="#E8E0E4"/>
</g>
</svg>
