<?xml version="1.0" encoding="UTF-8"?>
<svg id="Layer_1" xmlns="http://www.w3.org/2000/svg" version="1.1" viewBox="0 0 94 50">
  <!-- Generator: Adobe Illustrator 29.1.0, SVG Export Plug-In . SVG Version: 2.1.0 Build 142)  -->
  <defs>
    <style>
      .st0 {
        fill: #ff760d;
      }

      .st1 {
        fill: #2e15c2;
      }
    </style>
  </defs>
  <path class="st0" d="M44.6,39.6c-.3.3-.5.6-.6.9-.1.3-.2.7-.2,1s0,.7.2,1c.1.3.3.6.6.9,4.2,4.2,9.8,6.5,15.8,6.5s11.6-2.3,15.8-6.5c.3-.3.5-.6.6-.9.1-.3.2-.7.2-1,0-.4,0-.7-.2-1-.1-.3-.3-.6-.6-.9-.3-.3-.6-.5-.9-.6-.3-.1-.7-.2-1-.2-.4,0-.7,0-1,.2-.3.1-.6.3-.9.6-3.2,3.2-7.4,4.9-11.9,4.9s-8.7-1.8-11.9-4.9c-.3-.3-.6-.5-.9-.6-.3-.1-.7-.2-1-.2s-.7,0-1,.2c-.3.1-.6.3-.9.6"/>
  <path class="st1" d="M38.2,43.1c-.2,0-.4-.1-.6-.3,0,0-.1-.1-.2-.2,0,0,0-.1,0-.2,0,0,0-.1,0-.2,0,0,0,0,0-.1,0,0,0,0,.1,0,0,0,.1,0,.2,0,0,0,.1,0,.2,0,0,0,.1,0,.2,0,.2.2.5.3.7.3,0,0,.1,0,.2,0,0,0,.1,0,.2,0,0,0,.1,0,.1-.1,0,0,0-.1,0-.2,0,0,0-.1,0-.2,0,0,0-.1-.2-.1-.2,0-.4-.2-.7-.2-.1,0-.3,0-.4-.1-.1,0-.3-.1-.4-.2-.1,0-.2-.2-.3-.3,0-.1,0-.3,0-.5,0-.2,0-.4.1-.5,0-.1.2-.3.3-.4.1,0,.3-.2.5-.2.2,0,.4,0,.6,0,.2,0,.4,0,.6,0,.2,0,.3.1.5.2,0,0,.1.1.2.2,0,0,0,.1,0,.2,0,.1,0,.2-.1.3,0,0,0,0-.1,0,0,0-.1,0-.2,0-.1,0-.2,0-.3-.1,0,0-.2-.1-.3-.2-.1,0-.2,0-.3,0-.1,0-.3,0-.4,0,0,0-.1,0-.1.1,0,0,0,.1,0,.2,0,0,0,.1,0,.2,0,0,0,0,.2.1.2,0,.4.1.6.2.1,0,.3,0,.4.1.1,0,.3.1.4.2.1,0,.2.2.3.3,0,.1.1.3.1.5,0,.2,0,.4-.1.6,0,.2-.2.3-.3.4-.2.1-.3.2-.5.2-.2,0-.4,0-.6,0-.2,0-.4,0-.6,0ZM35.6,43.2c0,0-.1,0-.1,0,0,0,0,0-.1-.2,0,0,0-.2,0-.3v-4.7c0,0,0-.2,0-.3,0,0,0-.1.1-.2,0,0,0,0,.1,0,0,0,0,0,.1,0,0,0,0,0,.1,0,0,0,.1,0,.1,0,0,0,0,0,.1.2,0,0,0,.2,0,.3v4.7c0,0,0,.2,0,.3,0,0,0,.1-.1.2,0,0,0,0-.1,0,0,0,0,0-.1,0,0,0,0,0-.1,0ZM31.1,42.9c-.3-.2-.5-.4-.6-.7-.2-.3-.2-.7-.2-1s0-.7.2-1c.1-.3.4-.5.6-.7.3-.2.6-.3.9-.3.4,0,.9.2,1.2.5h0c0,0,0-.1,0-.2,0,0,0-.1,0-.1,0,0,.2-.1.3-.1s.2,0,.3.1c0,0,0,0,0,.1,0,0,0,.1,0,.2v3.1c0,0,0,.1,0,.2,0,0,0,.1,0,.1,0,0-.2.1-.3.1s-.2,0-.3-.1c0,0,0,0,0-.1,0,0,0-.1,0-.2,0,0-.1.1-.2.2-.1,0-.3.2-.4.2-.2,0-.3,0-.5,0-.3,0-.6,0-.9-.3ZM31.5,40.1c-.2.1-.3.3-.4.4,0,.2-.1.4-.1.6,0,.2,0,.4.1.6,0,.2.2.3.4.4.2.1.4.2.6.2.2,0,.4,0,.6-.2.2-.1.3-.3.4-.4,0-.2.1-.4.1-.6,0-.2,0-.4-.1-.6,0-.2-.2-.3-.4-.4-.2-.1-.4-.2-.6-.2-.2,0-.4,0-.6.2ZM28.3,43.2c-.1,0-.2,0-.3-.1-.1,0-.2-.2-.3-.3,0-.2-.1-.4-.1-.6v-2h-.3c0,0-.1,0-.2,0s0,0-.1,0c0,0,0,0,0-.1,0,0,0-.1,0-.2,0,0,0-.1,0-.2,0,0,0,0,0-.1,0,0,0,0,.1,0,0,0,.1,0,.2,0h.3v-.5c0,0,0-.1,0-.2,0,0,0-.1,0-.1,0,0,0,0,.1,0,0,0,.1,0,.2,0,0,0,.1,0,.2,0,0,0,.1,0,.1,0,0,0,.1.2.1.3v.5h.5c0,0,.1,0,.2,0,0,0,0,0,.1,0,0,0,0,0,0,.1,0,0,0,.1,0,.2,0,0,0,.1,0,.2,0,0,0,0,0,.1,0,0-.2.1-.3.1h-.5v2c0,0,0,.1,0,.2,0,0,0,0,.1,0,0,0,0,0,.1,0,0,0,.1,0,.2,0,0,0,.1,0,.2,0,0,0,0,0,.1,0,0,0,0,0,0,0,0,0,0,0,0,.2,0,0,0,.1,0,.2,0,0,0,.1,0,.2,0,0,0,0-.1.1-.1,0-.3.1-.5.1-.1,0-.2,0-.3,0ZM25.4,43.1s0,0,0-.1c0,0,0-.1,0-.2v-1.9c0-.1,0-.3,0-.4,0-.1-.1-.2-.2-.3-.1,0-.3-.1-.5-.1-.2,0-.3,0-.5.1-.1,0-.2.2-.3.3,0,.1-.1.3-.1.4v1.9c0,0,0,.1,0,.2,0,0,0,.1,0,.1,0,0,0,0-.1,0,0,0-.1,0-.2,0s-.1,0-.2,0c0,0-.1,0-.1,0,0,0,0,0,0-.1,0,0,0-.1,0-.2v-3c0,0,0-.1,0-.2,0,0,0-.1,0-.1,0,0,.2-.1.3-.1s.2,0,.3.1c0,0,0,0,0,.1,0,0,0,.1,0,.2h0c0,0,0,0,0,0,0,0,.2-.2.3-.3.1,0,.2-.1.4-.2.1,0,.3,0,.5,0,.3,0,.6,0,.8.2.2.2.3.4.4.6,0,.3.1.5.1.8v1.9c0,0,0,.1,0,.2,0,0,0,.1,0,.1,0,0,0,0-.1,0,0,0-.1,0-.2,0s-.1,0-.2,0c0,0-.1,0-.1,0h0ZM19.2,42.9c-.3-.2-.5-.4-.7-.7-.2-.3-.2-.6-.2-1,0-.4,0-.8.3-1.1.2-.3.4-.5.7-.7.3-.2.6-.2.9-.2.2,0,.5,0,.7.2.2,0,.4.2.6.4.2.2.3.4.4.6,0,.2.1.5.1.7,0,0,0,.1,0,.2,0,0,0,0-.1.1,0,0-.2.1-.3.1h-2.4c0,.1,0,.2.1.4,0,.2.2.3.4.4.2,0,.4.1.5.1.1,0,.3,0,.4,0,0,0,.2,0,.3-.1,0,0,.1,0,.2-.1,0,0,.2,0,.2,0,0,0,0,0,.1,0,0,0,0,0,.1,0,0,0,0,0,0,.1,0,0,0,0,0,.1,0,0,0,.1,0,.2s0,.1-.1.2c-.2.1-.3.2-.5.3-.2,0-.5.1-.7.1-.4,0-.7,0-1.1-.3h0ZM19.7,40c-.1,0-.2.1-.3.2,0,.1-.2.2-.2.4,0,0,0,.1,0,.2h1.9c0-.2,0-.3-.1-.4,0-.1-.2-.2-.3-.3-.1,0-.3,0-.4,0-.1,0-.3,0-.4,0h0ZM15.5,43.1s0,0,0-.1,0-.1,0-.2v-3c0,0,0-.1,0-.2,0,0,0-.1,0-.1,0,0,.2-.1.3-.1s.2,0,.3.1c0,0,0,0,0,.1,0,0,0,.1,0,.2h0s0,0,.2-.1c0,0,.2-.2.3-.2.1,0,.2-.1.3-.1.1,0,.2,0,.4,0,.1,0,.3,0,.4.1,0,0,0,0,.1.1,0,0,0,.1,0,.2,0,0,0,.1,0,.2,0,0,0,.1,0,.2,0,0-.2.1-.3.1,0,0-.2,0-.2,0,0,0-.2,0-.3,0,0,0-.2,0-.3,0,0,0-.2.1-.2.2,0,0-.1.2-.2.3,0,.1,0,.3,0,.5v1.7c0,0,0,.1,0,.2,0,0,0,.1,0,.1,0,0,0,0-.1,0,0,0-.1,0-.2,0s-.1,0-.2,0c0,0-.1,0-.1,0h0ZM5.8,42.9c-.3-.2-.5-.4-.6-.7-.2-.3-.2-.7-.2-1s0-.7.2-1c.1-.3.4-.5.6-.7.3-.2.6-.3.9-.3.2,0,.4,0,.6,0,.2,0,.3.1.5.2,0,0,0,0,.1.1h0c0,0,0-.1,0-.2,0,0,0-.1,0-.1,0,0,.2-.1.3-.1s.2,0,.3.1c0,0,0,0,0,.1,0,0,0,.1,0,.2v3.1c0,0,0,.1,0,.2,0,0,0,.1,0,.1,0,0-.2.1-.3.1s-.2,0-.3-.1c0,0,0,0,0-.1,0,0,0-.1,0-.2,0,0-.1.1-.2.2-.1,0-.3.2-.4.2-.2,0-.3,0-.5,0-.3,0-.6,0-.9-.3h0ZM6.2,40.1c-.2.1-.3.3-.4.4,0,.2-.1.4-.1.6,0,.2,0,.4.1.6,0,.2.2.3.4.4.2.1.4.2.6.2.2,0,.4,0,.6-.2.2-.1.3-.3.4-.4,0-.2.1-.4.1-.6,0-.2,0-.4-.1-.6,0-.2-.2-.3-.4-.4-.2-.1-.4-.2-.6-.2-.2,0-.4,0-.6.2h0ZM1.9,42.9c-.3-.2-.5-.4-.6-.7-.2-.3-.2-.7-.2-1,0-.4,0-.7.2-1,.2-.3.4-.5.7-.7.3-.2.6-.3,1-.3.2,0,.5,0,.7,0,.2,0,.3.1.5.2,0,0,0,.1.1.2,0,0,0,.1,0,.2,0,0,0,.2,0,.3,0,0,0,0-.1,0s0,0-.1,0c0,0-.1,0-.2,0,0,0,0,0-.1,0,0,0,0,0-.1,0,0,0-.1,0-.2,0,0,0-.1,0-.2,0-.2,0-.4,0-.6.2-.2.1-.3.3-.4.4,0,.2-.1.4-.1.6,0,.2,0,.4.1.6,0,.2.2.3.4.4.2.1.4.2.6.2.1,0,.2,0,.3,0,0,0,.1,0,.2,0,0,0,.1,0,.2-.1,0,0,.2,0,.2,0,0,0,.1,0,.2,0,0,0,0,0,.1,0,0,0,.1.2.1.3,0,0,0,.1,0,.2,0,0,0,.1-.1.1-.2.1-.3.2-.5.2-.2,0-.5,0-.7,0-.4,0-.7,0-1-.3h0ZM9.8,43s0,0,0-.1c0,0,0-.1,0-.2v-3c0,0,0-.1,0-.2,0,0,0-.1,0-.1,0,0,0,0,.1,0,0,0,.1,0,.2,0s.1,0,.2,0c0,0,.1,0,.1,0,0,0,0,0,0,.1s0,.1,0,.2h0s0,0,.2-.1c0,0,.2-.2.3-.2.1,0,.2-.1.3-.1.1,0,.2,0,.4,0,.1,0,.3,0,.4.1,0,0,0,0,.1.1,0,0,0,.1,0,.2,0,0,0,.1,0,.2,0,0,0,.1,0,.2,0,0-.2.1-.3.1,0,0-.2,0-.2,0,0,0-.2,0-.3,0,0,0-.2,0-.3,0,0,0-.2.1-.2.2,0,0-.1.2-.2.3,0,.1,0,.3,0,.4v1.7c0,0,0,.1,0,.2,0,0,0,.1,0,.1,0,0-.2.1-.3.1s-.2,0-.3-.1Z"/>
  <path class="st1" d="M40.5,29.6c1,0,2-.2,2.9-.5.9-.4,1.8-.9,2.5-1.6.7-.7,1.3-1.6,1.6-2.5.4-.9.5-1.9.5-2.9,0-1-.1-2-.5-2.9-.4-.9-.9-1.8-1.7-2.5-.7-.7-1.5-1.2-2.5-1.6-.9-.4-1.9-.5-2.9-.5-1,0-1.9.2-2.8.5-.9.4-1.7.9-2.4,1.6-.7.7-1.3,1.5-1.6,2.5-.4.9-.5,1.9-.5,2.9,0,1,.1,2,.5,3,.4.9.9,1.8,1.6,2.5.7.7,1.5,1.2,2.4,1.6.9.4,1.9.5,2.8.5M87.8,22c0-2-.8-3.8-2.2-5.2-1.4-1.4-3.3-2.1-5.2-2.1s-3.8.8-5.2,2.1c-1.4,1.4-2.2,3.2-2.2,5.2,0,1,.1,2,.5,2.9s.9,1.8,1.6,2.5c.7.7,1.5,1.3,2.5,1.6.9.4,1.9.6,2.9.5,4.4,0,7.4-3.2,7.4-7.6ZM80.5,9.3c7.5,0,13,5.2,13,12.7v9.9c0,.4,0,.7-.2,1-.1.3-.3.6-.6.9-.3.3-.6.5-.9.6-.3.1-.7.2-1.1.2-.4,0-.7,0-1-.2-.3-.1-.6-.3-.8-.6-.5-.5-.8-1.2-.8-1.9v-1c-.8,1.3-2.1,2.3-3.5,3-1.5.7-3.1,1.1-4.7,1.1-7.3,0-12.2-5.6-12.2-12.8s5.4-12.7,12.9-12.7M6.4,2.7v10.8c.7-1.4,1.8-2.5,3.2-3.1,1.4-.7,2.9-1.1,4.5-1.1,1.4,0,2.7.1,4,.6,1.3.5,2.4,1.3,3.3,2.3,1.7,1.9,2.6,4.7,2.6,8.2v11.5c0,.4,0,.7-.2,1-.1.3-.3.6-.6.9-.3.3-.6.5-.9.6-.3.1-.7.2-1.1.2-.4,0-.7,0-1-.2-.3-.1-.6-.3-.8-.6-.5-.5-.8-1.2-.8-1.9v-11.2c0-1.6-.5-3.2-1.5-4.4-.5-.5-1.1-1-1.8-1.3-.7-.3-1.4-.4-2.1-.4-1.7,0-3.4.5-4.8,1.6-.7.6-1.3,1.4-1.6,2.2-.4.9-.5,1.8-.4,2.7v10.7c0,.4,0,.7-.2,1-.1.3-.3.6-.6.9-.3.3-.6.5-.9.6-.3.1-.7.2-1.1.2-.4,0-.7,0-1-.2-.3-.1-.6-.3-.8-.6-.5-.5-.8-1.2-.8-1.9V2.7c0-.4,0-.7.2-1,.1-.3.3-.6.6-.9.3-.3.6-.5.9-.6C3.1,0,3.4,0,3.8,0c.4,0,.7,0,1,.2.3.1.6.3.8.6.5.5.8,1.2.8,1.9ZM63.1,32.1c0,.7-.3,1.4-.8,1.9-.2.3-.5.5-.8.6-.3.1-.7.2-1,.2-.4,0-.7,0-1.1-.2-.3-.1-.6-.3-.9-.6-.3-.2-.5-.5-.6-.9-.1-.3-.2-.7-.2-1V2.7c0-.4,0-.7.2-1,.1-.3.3-.6.6-.9.3-.3.6-.5.9-.6.3-.1.7-.2,1.1-.2.4,0,.7,0,1,.2.3.1.6.3.8.6.5.5.8,1.2.8,1.9v29.4ZM40.5,9.3c3.4,0,6.7,1.2,9.1,3.5,1.2,1.2,2.2,2.6,2.8,4.2.6,1.6.9,3.3.9,5,0,1.7-.2,3.4-.9,5-.6,1.6-1.6,3-2.9,4.2-1.2,1.2-2.6,2.1-4.2,2.7s-3.2.9-4.9.9c-1.7,0-3.3-.3-4.9-.9-1.6-.6-3-1.5-4.2-2.7-1.2-1.2-2.2-2.6-2.8-4.2-.6-1.6-.9-3.3-.9-5,0-1.7.2-3.4.9-5,.6-1.6,1.6-3,2.8-4.2,1.2-1.2,2.6-2.1,4.2-2.7,1.6-.6,3.2-.9,4.9-.9Z"/>
</svg>