<?xml version="1.0" encoding="UTF-8"?>
<svg id="Layer_1" xmlns="http://www.w3.org/2000/svg" version="1.1" viewBox="0 0 156 28">
  <!-- Generator: Adobe Illustrator 29.1.0, SVG Export Plug-In . SVG Version: 2.1.0 Build 142)  -->
  <path d="M.7,27.7v-.3c2.2,0,2.4-.8,2.4-2V2.6c0-1.2-.1-2-2.4-2v-.3h5.1l11.7,24.3L29.1.3h5.1v.3c-2.2,0-2.4.8-2.4,2v22.8c0,1.3.1,2,2.4,2v.3h-7.9v-.3c2.2,0,2.4-.8,2.4-2V2.1l-12.3,25.8h-.8L3.6,2.4v22.9c0,1.3.1,2,2.4,2v.3H.7ZM36.4.3h7.9v.2c-2.2,0-2.4.8-2.4,2v22.8c0,1.2.2,2,2.4,2v.3h-7.9v-.3c2.2,0,2.4-.8,2.4-2V2.6c0-1.2-.1-2-2.4-2v-.2h0ZM46.4.3h7.9v.2c-2.2,0-2.4.8-2.4,2v24.6h5c7,0,9-3,9.7-8.3h.4l-1.3,8.7h-19.3v-.2c2.2,0,2.4-.8,2.4-2V2.6c0-1.2-.1-2-2.4-2v-.2h0ZM69.2.3h7.9v.2c-2.2,0-2.4.8-2.4,2v24.6h5c7,0,9-3,9.7-8.3h.4l-1.3,8.7h-19.3v-.2c2.2,0,2.4-.8,2.4-2V2.6c0-1.2-.1-2-2.4-2v-.2h0ZM92.1.4h7.9v.2c-2.2,0-2.4.8-2.4,2v22.8c0,1.2.2,2,2.4,2v.3h-7.9v-.3c2.2,0,2.4-.8,2.4-2V2.8c0-1.2-.1-2-2.4-2v-.2h0ZM115.6,0c6.6,0,13.3,4.7,13.3,14s-6.6,14-13.3,14-13.3-4.8-13.3-14S109,0,115.6,0ZM105.6,14c0,9.5,5,13.5,10,13.5s10-3.9,10-13.5S120.5.5,115.6.5s-10,3.9-10,13.5ZM131.3.3h5.1l16,22.8V2.6c0-1.2-.2-2-2.4-2v-.3h5.3v.3c-2.2,0-2.4.8-2.4,2v25.3h-.8l-17.9-25.5v22.9c0,1.3.2,2,2.4,2v.3h-5.3v-.3c2.2,0,2.4-.8,2.4-2V2.6c0-1.2-.1-2-2.4-2v-.3h0Z"/>
</svg>