<svg width="128" height="32" viewBox="0 0 128 32" fill="none" xmlns="http://www.w3.org/2000/svg">
<path d="M15.1668 0.00683594C16.6176 0.00683594 17.9348 0.140458 19.131 0.401345C20.3273 0.662232 21.3454 1.10129 22.1981 1.69942C23.0507 2.30392 23.7125 3.09932 24.177 4.09833C24.6478 5.09733 24.8769 6.32541 24.8769 7.79529C24.8769 9.3797 24.527 10.6969 23.8334 11.7531C23.1398 12.8094 22.109 13.6748 20.7409 14.3493C22.618 14.9092 24.0179 15.8828 24.9406 17.2763C25.8632 18.6698 26.3277 20.3497 26.3277 22.3159C26.3277 23.9003 26.0287 25.2747 25.4305 26.4328C24.8324 27.5909 24.0306 28.539 23.0253 29.2708C22.0135 30.0025 20.8682 30.5497 19.5765 30.8997C18.2848 31.2497 16.9549 31.4278 15.5932 31.4278H0.849854V0.00683594H15.1668ZM14.3142 12.7267C15.5104 12.7267 16.4903 12.434 17.2539 11.8486C18.0239 11.2632 18.4056 10.3087 18.4056 8.99154C18.4056 8.25978 18.2784 7.65529 18.0239 7.18442C17.7693 6.71355 17.4257 6.35086 16.9994 6.08361C16.5731 5.82272 16.0831 5.63818 15.5295 5.53637C14.9759 5.43456 14.4033 5.38367 13.8051 5.38367H7.54385V12.733H14.3205L14.3142 12.7267ZM14.7023 26.0574C15.3577 26.0574 15.9813 25.9938 16.5794 25.8601C17.1776 25.7265 17.6994 25.5102 18.1575 25.1984C18.6093 24.8929 18.972 24.473 19.2456 23.9448C19.5128 23.4167 19.6528 22.7422 19.6528 21.9214C19.6528 20.3115 19.2138 19.1598 18.3293 18.4662C17.4512 17.779 16.2867 17.429 14.8359 17.429H7.55018V26.051H14.7087L14.7023 26.0574Z" fill="white"/>
<path d="M32.557 8.67289V12.898H32.6397C32.926 12.1917 33.3078 11.5427 33.7914 10.9382C34.275 10.34 34.8286 9.82462 35.4522 9.39829C36.0757 8.97196 36.7438 8.64108 37.4565 8.40565C38.1692 8.17021 38.9073 8.05566 39.6709 8.05566C40.0654 8.05566 40.5108 8.13203 40.9944 8.27838V14.0879C40.7081 14.0306 40.3708 13.9797 39.97 13.9352C39.5691 13.8906 39.1873 13.8716 38.8182 13.8716C37.7111 13.8716 36.7757 14.0624 36.0057 14.4442C35.2358 14.826 34.6186 15.3478 34.1541 16.0032C33.6832 16.665 33.3523 17.4349 33.1551 18.313C32.9578 19.1911 32.856 20.1456 32.856 21.17V31.421H26.8047V8.67289H32.557Z" fill="white"/>
<path d="M41.4159 15.6723C41.4986 14.2088 41.855 12.9871 42.4785 12.0199C43.1021 11.0527 43.8975 10.2764 44.8647 9.68464C45.8319 9.09923 46.9136 8.67927 48.1226 8.4311C49.3316 8.18294 50.547 8.05566 51.7687 8.05566C52.8759 8.05566 53.9958 8.13839 55.1348 8.29747C56.2738 8.45654 57.311 8.77471 58.2463 9.24558C59.1817 9.71645 59.9516 10.3655 60.5498 11.2054C61.1479 12.039 61.447 13.1462 61.447 14.5269V26.3623C61.447 27.3868 61.5042 28.3731 61.6188 29.3084C61.7333 30.2502 61.9306 30.9501 62.2169 31.421H56.0829C55.9683 31.071 55.8792 30.7083 55.8029 30.3456C55.7329 29.9766 55.682 29.6075 55.6566 29.2257C54.6894 30.2502 53.5567 30.9692 52.2459 31.3828C50.9415 31.7964 49.6052 32 48.2435 32C47.1936 32 46.2137 31.8664 45.3038 31.6055C44.3938 31.3446 43.5985 30.931 42.9176 30.3711C42.2368 29.8111 41.7022 29.1112 41.3205 28.2585C40.9387 27.4059 40.7478 26.3941 40.7478 25.2233C40.7478 23.9316 40.9641 22.869 41.4096 22.0354C41.8486 21.2018 42.4149 20.5337 43.1149 20.031C43.8084 19.5347 44.6038 19.1593 45.501 18.9111C46.3982 18.663 47.2954 18.4657 48.2053 18.3194C49.1153 18.173 50.0061 18.0585 50.8906 17.9694C51.7687 17.8803 52.5514 17.7467 53.2322 17.5749C53.9131 17.3967 54.4539 17.1422 54.8484 16.8049C55.2429 16.4677 55.4338 15.9777 55.402 15.3287C55.402 14.6542 55.2938 14.1197 55.0839 13.7252C54.8739 13.3307 54.5876 13.0189 54.2312 12.8026C53.8749 12.5798 53.4613 12.4335 52.9968 12.3635C52.5259 12.2935 52.0232 12.2553 51.4824 12.2553C50.2861 12.2553 49.3507 12.5162 48.6699 13.0444C47.989 13.5725 47.5881 14.4506 47.4736 15.685H41.4223L41.4159 15.6723ZM55.3956 20.2919C55.1411 20.5274 54.823 20.7119 54.4348 20.8392C54.0531 20.9728 53.6395 21.0809 53.2004 21.17C52.7613 21.2591 52.2968 21.3291 51.8132 21.3927C51.3296 21.45 50.846 21.5264 50.3624 21.6155C49.9107 21.7045 49.4589 21.8191 49.0198 21.9654C48.5808 22.1118 48.1926 22.309 47.8681 22.5572C47.5436 22.8053 47.2764 23.1235 47.0791 23.5053C46.8818 23.8871 46.78 24.3707 46.78 24.9561C46.78 25.5415 46.8818 25.9805 47.0791 26.3623C47.2764 26.7441 47.5499 27.0432 47.8872 27.2659C48.2308 27.4886 48.6253 27.6413 49.0835 27.7304C49.5416 27.8195 50.0061 27.864 50.4897 27.864C51.686 27.864 52.6086 27.6604 53.2576 27.2468C53.913 26.8332 54.3967 26.3432 54.7085 25.7706C55.0202 25.1979 55.2111 24.6188 55.2811 24.0334C55.3511 23.448 55.3893 22.9772 55.3893 22.6272V20.2919H55.3956Z" fill="white"/>
<path d="M68.4773 8.67289V11.8417H68.6046C69.3745 10.5246 70.3672 9.56373 71.5889 8.95923C72.8106 8.3611 74.0578 8.05566 75.3368 8.05566C76.953 8.05566 78.2829 8.28474 79.3201 8.73652C80.3572 9.19466 81.1717 9.82461 81.7698 10.6264C82.368 11.4345 82.788 12.4144 83.0298 13.5725C83.2716 14.7306 83.3924 16.0159 83.3924 17.4222V31.4146H77.3411V18.5675C77.3411 16.6904 77.0548 15.2905 76.4885 14.3679C75.9222 13.4452 74.9104 12.9807 73.466 12.9807C71.818 12.9807 70.6281 13.4898 69.8899 14.5015C69.1518 15.5132 68.7828 17.1804 68.7828 19.4965V31.421H62.7314V8.67289H68.4837H68.4773Z" fill="white"/>
<path d="M95.1071 12.7707C94.1399 12.7707 93.3317 12.9998 92.6763 13.4515C92.0209 13.9097 91.4928 14.4951 91.0792 15.2141C90.6656 15.9331 90.3729 16.7285 90.2075 17.5876C90.0356 18.4529 89.9529 19.312 89.9529 20.1646C89.9529 21.0173 90.0356 21.8254 90.2075 22.6717C90.3793 23.5243 90.6529 24.2943 91.041 24.9815C91.4228 25.6687 91.9446 26.235 92.5936 26.6741C93.249 27.1131 94.0444 27.3358 94.9798 27.3358C96.4306 27.3358 97.5441 26.9159 98.3268 26.0823C99.1094 25.2487 99.5994 24.1225 99.7967 22.7162H105.632C105.231 25.7387 104.098 28.0421 102.221 29.6266C100.344 31.211 97.945 32 95.018 32C93.3699 32 91.8555 31.7137 90.4811 31.141C89.1003 30.5683 87.9295 29.7729 86.9623 28.7421C85.9951 27.7176 85.2442 26.4895 84.7034 25.0706C84.1625 23.6452 83.8953 22.0863 83.8953 20.3873C83.8953 18.6884 84.1434 16.9894 84.6397 15.4814C85.1361 13.9733 85.8678 12.6625 86.835 11.5681C87.8022 10.4672 88.9794 9.60822 90.3729 8.991C91.7664 8.37378 93.3572 8.06836 95.1452 8.06836C96.4497 8.06836 97.7096 8.24652 98.9185 8.59649C100.128 8.94646 101.203 9.48734 102.157 10.2C103.112 10.919 103.882 11.8162 104.48 12.8852C105.078 13.9542 105.415 15.2268 105.504 16.6904H99.5803C99.1858 14.0815 97.6905 12.7771 95.1071 12.7771V12.7707Z" fill="white"/>
<path d="M112.534 0.0063499V11.8417H112.661C113.431 10.5246 114.411 9.56374 115.601 8.95924C116.797 8.36111 117.962 8.05567 119.095 8.05567C120.711 8.05567 122.041 8.28475 123.078 8.73653C124.115 9.19467 124.93 9.82462 125.528 10.6264C126.126 11.4345 126.546 12.4144 126.788 13.5725C127.029 14.7306 127.15 16.0159 127.15 17.4222V31.4146H121.099V18.5675C121.099 16.6904 120.813 15.2905 120.246 14.3679C119.68 13.4452 118.668 12.9807 117.224 12.9807C115.576 12.9807 114.386 13.4898 113.648 14.5015C112.91 15.5132 112.541 17.1804 112.541 19.4965V31.421H106.489V0H112.541L112.534 0.0063499Z" fill="white"/>
</svg>
