<?xml version="1.0" encoding="UTF-8"?>
<svg id="Layer_1" xmlns="http://www.w3.org/2000/svg" version="1.1" viewBox="0 0 128 32">
  <!-- Generator: Adobe Illustrator 29.1.0, SVG Export Plug-In . SVG Version: 2.1.0 Build 142)  -->
  <defs>
    <style>
      .st0 {
        fill: #041c24;
      }
    </style>
  </defs>
  <path class="st0" d="M15.2,0c1.5,0,2.8.1,4,.4,1.2.3,2.2.7,3.1,1.3.9.6,1.5,1.4,2,2.4.5,1,.7,2.2.7,3.7s-.3,2.9-1,4c-.7,1.1-1.7,1.9-3.1,2.6,1.9.6,3.3,1.5,4.2,2.9.9,1.4,1.4,3.1,1.4,5s-.3,3-.9,4.1c-.6,1.2-1.4,2.1-2.4,2.8-1,.7-2.2,1.3-3.4,1.6s-2.6.5-4,.5H.8V0h14.3ZM14.3,12.7c1.2,0,2.2-.3,2.9-.9.8-.6,1.2-1.5,1.2-2.9s-.1-1.3-.4-1.8c-.3-.5-.6-.8-1-1.1-.4-.3-.9-.4-1.5-.5-.6-.1-1.1-.2-1.7-.2h-6.3v7.3h6.8,0ZM14.7,26.1c.7,0,1.3,0,1.9-.2.6-.1,1.1-.3,1.6-.7.5-.3.8-.7,1.1-1.3.3-.5.4-1.2.4-2,0-1.6-.4-2.8-1.3-3.5-.9-.7-2-1-3.5-1h-7.3v8.6h7.2,0Z"/>
  <path class="st0" d="M32.6,8.7v4.2h0c.3-.7.7-1.4,1.2-2,.5-.6,1-1.1,1.7-1.5.6-.4,1.3-.8,2-1,.7-.2,1.5-.3,2.2-.3s.8,0,1.3.2v5.8c-.3,0-.6-.1-1-.2-.4,0-.8,0-1.2,0-1.1,0-2,.2-2.8.6-.8.4-1.4.9-1.9,1.6-.5.7-.8,1.4-1,2.3-.2.9-.3,1.8-.3,2.9v10.3h-6.1V8.7h5.8Z"/>
  <path class="st0" d="M41.4,15.7c0-1.5.4-2.7,1.1-3.7.6-1,1.4-1.7,2.4-2.3,1-.6,2-1,3.3-1.3,1.2-.2,2.4-.4,3.6-.4s2.2,0,3.4.2c1.1.2,2.2.5,3.1.9.9.5,1.7,1.1,2.3,2,.6.8.9,1.9.9,3.3v11.8c0,1,0,2,.2,2.9.1.9.3,1.6.6,2.1h-6.1c-.1-.4-.2-.7-.3-1.1,0-.4-.1-.7-.1-1.1-1,1-2.1,1.7-3.4,2.2-1.3.4-2.6.6-4,.6s-2-.1-2.9-.4c-.9-.3-1.7-.7-2.4-1.2-.7-.6-1.2-1.3-1.6-2.1-.4-.9-.6-1.9-.6-3s.2-2.4.7-3.2c.4-.8,1-1.5,1.7-2,.7-.5,1.5-.9,2.4-1.1.9-.2,1.8-.4,2.7-.6.9-.1,1.8-.3,2.7-.4.9,0,1.7-.2,2.3-.4.7-.2,1.2-.4,1.6-.8.4-.3.6-.8.6-1.5,0-.7-.1-1.2-.3-1.6-.2-.4-.5-.7-.9-.9-.4-.2-.8-.4-1.2-.4-.5,0-1-.1-1.5-.1-1.2,0-2.1.3-2.8.8-.7.5-1.1,1.4-1.2,2.6h-6.1ZM55.4,20.3c-.3.2-.6.4-1,.5-.4.1-.8.2-1.2.3-.4,0-.9.2-1.4.2-.5,0-1,.1-1.5.2-.5,0-.9.2-1.3.3-.4.1-.8.3-1.2.6-.3.2-.6.6-.8.9s-.3.9-.3,1.5.1,1,.3,1.4c.2.4.5.7.8.9.3.2.7.4,1.2.5.5,0,.9.1,1.4.1,1.2,0,2.1-.2,2.8-.6.7-.4,1.1-.9,1.5-1.5.3-.6.5-1.2.6-1.7s.1-1.1.1-1.4v-2.3h0Z"/>
  <path class="st0" d="M68.5,8.7v3.2h.1c.8-1.3,1.8-2.3,3-2.9,1.2-.6,2.5-.9,3.7-.9s2.9.2,4,.7c1,.5,1.9,1.1,2.4,1.9.6.8,1,1.8,1.3,2.9s.4,2.4.4,3.8v14h-6.1v-12.8c0-1.9-.3-3.3-.9-4.2-.6-.9-1.6-1.4-3-1.4s-2.8.5-3.6,1.5c-.7,1-1.1,2.7-1.1,5v11.9h-6.1V8.7h5.8,0Z"/>
  <path class="st0" d="M95.1,12.8c-1,0-1.8.2-2.4.7-.7.5-1.2,1-1.6,1.8s-.7,1.5-.9,2.4c-.2.9-.3,1.7-.3,2.6s0,1.7.3,2.5c.2.9.4,1.6.8,2.3.4.7.9,1.3,1.6,1.7.7.4,1.5.7,2.4.7,1.5,0,2.6-.4,3.3-1.3.8-.8,1.3-2,1.5-3.4h5.8c-.4,3-1.5,5.3-3.4,6.9-1.9,1.6-4.3,2.4-7.2,2.4s-3.2-.3-4.5-.9c-1.4-.6-2.6-1.4-3.5-2.4-1-1-1.7-2.3-2.3-3.7-.5-1.4-.8-3-.8-4.7s.2-3.4.7-4.9c.5-1.5,1.2-2.8,2.2-3.9,1-1.1,2.1-2,3.5-2.6s3-.9,4.8-.9,2.6.2,3.8.5c1.2.3,2.3.9,3.2,1.6,1,.7,1.7,1.6,2.3,2.7.6,1.1.9,2.3,1,3.8h-5.9c-.4-2.6-1.9-3.9-4.5-3.9h0Z"/>
  <path class="st0" d="M112.5,0v11.8h.1c.8-1.3,1.8-2.3,2.9-2.9,1.2-.6,2.4-.9,3.5-.9,1.6,0,2.9.2,4,.7,1,.5,1.9,1.1,2.4,1.9.6.8,1,1.8,1.3,2.9.2,1.2.4,2.4.4,3.8v14h-6.1v-12.8c0-1.9-.3-3.3-.9-4.2-.6-.9-1.6-1.4-3-1.4s-2.8.5-3.6,1.5-1.1,2.7-1.1,5v11.9h-6.1V0h6.1,0Z"/>
</svg>