<?xml version="1.0" encoding="UTF-8"?>
<svg id="Layer_1" xmlns="http://www.w3.org/2000/svg" xmlns:svgjs="http://svgjs.dev/svgjs" version="1.1" viewBox="0 0 81 68">
  <!-- Generator: Adobe Illustrator 29.1.0, SVG Export Plug-In . SVG Version: 2.1.0 Build 142)  -->
  <defs>
    <style>
      .st0 {
        fill: #fff;
      }
    </style>
  </defs>
  <path class="st0" d="M69.1,32.8c.4-.4.9-.6,1.4-.6s1.1.2,1.4.6c.4.4.6.9.6,1.4,0,2.2,1.8,3.9,4,3.9s4-1.8,4-4v-15.5c0-2.2-1.8-4-4-4s-3.9,1.7-4,3.9c0,.6-.2,1.1-.6,1.4-.4.4-.9.6-1.4.6-1.1,0-2-.9-2-2v-2.7c0-2.2-1.8-4-4-4s-4,1.8-4,4v14.2c0,.6-.2,1-.6,1.4-.4.4-.9.6-1.4.6-1.1,0-2-.9-2-2V11.8c0-2.2-1.8-4-4-4s-4,1.7-4,3.9h0c0,.6-.2,1.1-.6,1.4-.4.4-.9.6-1.4.6-1.1,0-2-.9-2-2v-7.8c0-2.2-1.8-4-4-4s-4,1.8-4,4v44.3c0,.6-.2,1-.6,1.4-.4.4-.9.6-1.4.6-1.1,0-2-.9-2-2V11.8c0-2.2-1.8-4-4-4s-4,1.8-4,4v6.9c0,.5-.2,1-.6,1.4-.4.4-.9.6-1.4.6-1.1,0-2-.9-2-2h0c0-2.1-1.8-3.8-4-3.8s-4,1.8-4,4v2.6c0,.6-.2,1.1-.6,1.4-.4.4-.9.6-1.4.6-1.1,0-2-.9-2-2h-.1c-.4-1.8-2-3.1-3.9-3.1s-4,1.8-4,4v23.2c0,2.2,1.8,4,4,4s4-1.8,4-4v-16.1c0-.5.2-1,.6-1.4.4-.4.9-.6,1.4-.6s1.1.2,1.4.6c.4.4.6.9.6,1.4v19.6c0,2.2,1.8,4,4,4s4-1.8,4-4v-22.3c0-.6.2-1.1.6-1.4.4-.4.9-.6,1.4-.6s1.1.2,1.4.6c.4.4.6.8.6,1.4v29.4c0,2.2,1.8,4,4,4s3.9-1.7,4-3.9c0-.6.2-1.1.6-1.4.4-.4.9-.6,1.4-.6s1.1.2,1.4.6c.4.4.6.9.6,1.4v7.8c0,2.2,1.8,4,4,4s4-1.8,4-4V19.7c0-.5.2-1,.6-1.4.4-.4.9-.6,1.4-.6s1.1.2,1.4.6c.4.4.6.9.6,1.4v36.4c0,2.2,1.8,4,4,4s4-1.8,4-4v-18.2c0-.5.2-1,.6-1.4.4-.4.9-.6,1.4-.6s1.1.2,1.4.6c.4.4.6.9.6,1.4v14.2c0,2.2,1.8,4,4,4s4-1.8,4-4v-2.8c0-.6.2-1.1.6-1.4.4-.4.9-.6,1.4-.6s1.1.2,1.4.6c.4.4.6.9.6,1.4h0c0,2.1,1.8,3.9,4,3.9s4-1.8,4-4v-5.8c0-2.2-1.8-4-4-4s-4,1.8-4,4c0,.5-.2,1-.6,1.4-.4.4-.9.6-1.4.6-1.1,0-2-.9-2-2v-9.2c0-.6.2-1.1.6-1.4h0ZM69.1,25c.4-.4.9-.6,1.4-.6s1.1.2,1.4.6c.4.4.6.8.6,1.4v1.8c0,.5-.2,1-.6,1.4-.4.4-.9.6-1.4.6-1.1,0-2-.9-2-2v-1.7c0-.6.2-1.1.6-1.4Z"/>
</svg>