<svg width="174" height="32" viewBox="0 0 174 32" fill="none" xmlns="http://www.w3.org/2000/svg">
<path d="M1.94658 31.9901C1.24658 23.7552 0.596582 15.5105 -0.00341797 7.26572C2.55658 6.76093 3.83658 6.51349 6.39658 6.0483C9.23658 11.3831 12.0266 16.7378 14.7466 22.1419C15.4966 16.1637 16.2966 10.1855 17.1866 4.21723C19.7266 3.82133 21.0066 3.62337 23.5466 3.26706C25.7666 11.2347 27.9366 19.2122 30.0666 27.2095C27.5666 27.546 26.3166 27.7242 23.8266 28.1003C22.3866 22.9832 20.9266 17.8661 19.4466 12.749C19.8366 12.6995 20.0266 12.6797 20.4166 12.6303C19.8966 18.0344 19.4066 23.4484 18.9566 28.8624C16.5266 29.2583 15.3166 29.4662 12.8966 29.8918C10.6366 24.943 8.33658 20.004 6.00658 15.0849C6.42658 14.9958 6.64658 14.9463 7.06658 14.8572C7.40658 20.1624 7.76658 25.4675 8.14658 30.7727C5.66658 31.2478 4.42658 31.4853 1.94658 32V31.9901ZM40.5266 26.0911C38.9166 26.2692 37.5466 26.2593 36.3966 26.0614C35.2466 25.8634 34.2966 25.4477 33.5266 24.8143C32.7566 24.1808 32.1566 23.2999 31.7066 22.1914C31.2566 21.0829 30.9266 19.7071 30.7066 18.0641C30.4666 16.2924 30.4266 14.7978 30.5866 13.5903C30.7466 12.3828 31.1266 11.3831 31.7266 10.6012C32.3366 9.81932 33.1966 9.21556 34.3166 8.79986C35.4366 8.37426 36.8166 8.06743 38.4766 7.88927C40.1566 7.70121 41.5866 7.71111 42.7766 7.89917C43.9566 8.08722 44.9266 8.50292 45.6866 9.12648C46.4366 9.75003 47.0266 10.6408 47.4466 11.789C47.8666 12.9371 48.1566 14.3821 48.3166 16.1142C48.4766 17.8265 48.4666 19.2815 48.2866 20.4692C48.1066 21.6569 47.7266 22.6368 47.1266 23.3989C46.5266 24.161 45.6966 24.7549 44.6166 25.1706C43.5366 25.5863 42.1766 25.8832 40.5266 26.0713V26.0911ZM39.9566 21.0235C40.3866 20.974 40.7366 20.9047 40.9966 20.7958C41.2566 20.687 41.4566 20.4989 41.5866 20.2119C41.7166 19.9347 41.7866 19.5091 41.7966 18.9549C41.7966 18.4006 41.7566 17.6583 41.6666 16.7378C41.5666 15.8173 41.4566 15.0849 41.3266 14.5603C41.1966 14.0258 41.0366 13.6398 40.8566 13.3924C40.6666 13.1449 40.4266 12.9965 40.1466 12.9569C39.8666 12.9074 39.4966 12.9074 39.0666 12.9569C38.6266 13.0064 38.2766 13.0855 38.0066 13.1944C37.7366 13.3033 37.5366 13.5013 37.4066 13.7784C37.2766 14.0555 37.2066 14.4712 37.2066 15.0156C37.2066 15.56 37.2566 16.2924 37.3566 17.2129C37.4666 18.1334 37.5866 18.8658 37.7166 19.4003C37.8466 19.9446 38.0066 20.3306 38.1966 20.5781C38.3866 20.8255 38.6166 20.9641 38.8966 21.0136C39.1766 21.0631 39.5266 21.0631 39.9566 21.0136V21.0235ZM51.6066 24.8539C51.0966 18.9252 50.5966 12.9965 50.0866 7.06776C52.3566 6.87971 53.4866 6.79063 55.7566 6.63227C56.2566 7.28551 56.5066 7.61213 56.9966 8.27528C57.5466 7.73091 58.2966 7.21623 59.2466 6.73124C60.1966 6.25615 61.1866 5.97902 62.1866 5.92953C63.8266 5.84045 65.0766 6.0681 65.9466 6.61247C66.8166 7.15684 67.4266 7.92886 67.7666 8.91863C68.1166 9.9084 68.3066 11.0268 68.3666 12.2541C68.5366 16.0944 68.6966 19.9347 68.8666 23.7651C66.2566 23.874 64.9566 23.9433 62.3466 24.0918C62.1366 20.5385 61.9266 16.9951 61.7166 13.4419C61.6866 12.9767 61.5866 12.6303 61.4166 12.4026C61.2366 12.1651 61.0166 12.0067 60.7466 11.9275C60.4766 11.8483 60.1566 11.8186 59.7866 11.8384C59.4866 11.8582 59.1766 11.9176 58.8566 12.0265C58.5366 12.1354 58.2566 12.2739 57.9966 12.4521C57.7466 12.6204 57.5166 12.8183 57.3266 13.0262C57.5866 16.8071 57.8466 20.5781 58.1166 24.359C55.5066 24.5372 54.2066 24.6361 51.6066 24.8539ZM79.2766 23.4484C77.7266 23.4781 76.4866 23.2999 75.5466 22.9139C74.6066 22.5279 73.9166 21.8549 73.4966 20.8849C73.0666 19.9149 72.8466 18.5788 72.8366 16.8764C72.8366 14.4613 72.8366 13.2538 72.8366 10.8487C71.6866 10.8883 71.1066 10.9081 69.9566 10.9476C69.8966 9.30464 69.8566 8.48313 69.7966 6.84012C71.0566 6.39472 71.6866 6.17697 72.9466 5.73158C73.2166 3.72235 73.3566 2.71279 73.6366 0.70356C75.8266 0.634276 76.9166 0.61448 79.1066 0.57489C79.1466 2.57422 79.1566 3.57388 79.1966 5.57321C80.7266 5.54352 81.4966 5.53362 83.0266 5.52373C83.0466 7.56265 83.0566 8.58211 83.0666 10.621C81.5566 10.6309 80.7966 10.6408 79.2866 10.6705C79.3266 13.0658 79.3466 14.2634 79.3966 16.6685C79.3966 16.9555 79.4266 17.203 79.4766 17.4108C79.5266 17.6187 79.6066 17.7968 79.7066 17.9354C79.8066 18.074 79.9466 18.1828 80.1066 18.262C80.2666 18.3412 80.4466 18.3808 80.6566 18.4006C81.5966 18.4798 82.0666 18.5194 83.0066 18.6084C83.0266 20.5187 83.0366 21.4689 83.0466 23.3791C81.5366 23.389 80.7866 23.3989 79.2766 23.4286V23.4484ZM93.4366 23.5969C91.3766 23.5672 89.7166 23.2999 88.4566 22.7853C87.1966 22.2706 86.2866 21.36 85.7066 20.0535C85.1266 18.7371 84.8266 16.8962 84.8166 14.5108C84.8066 12.0562 85.0566 10.1657 85.5866 8.82955C86.1166 7.49336 87.0066 6.55308 88.2566 6.02851C89.5066 5.50393 91.2266 5.24659 93.4066 5.27628C95.4166 5.30598 97.0066 5.52373 98.1666 5.89984C99.3266 6.28585 100.147 6.93909 100.617 7.87937C101.087 8.80975 101.297 10.1162 101.237 11.789C101.197 13.0954 100.897 14.105 100.347 14.8275C99.7966 15.5501 99.0366 16.0548 98.0766 16.332C97.1066 16.619 95.9766 16.7477 94.6766 16.718C93.3666 16.6982 92.7066 16.6883 91.3966 16.6685C91.4566 17.203 91.5866 17.6286 91.7966 17.9453C91.9966 18.2719 92.3666 18.4996 92.9166 18.6381C93.4566 18.7767 94.2666 18.8559 95.3266 18.8757C97.3266 18.9153 98.3266 18.945 100.327 19.0044C100.277 20.4989 100.257 21.2511 100.207 22.7457C99.4166 22.9436 98.4666 23.1317 97.3766 23.3296C96.2866 23.5276 94.9766 23.6068 93.4466 23.5771L93.4366 23.5969ZM91.3666 12.9371C92.4266 12.947 92.9566 12.9569 94.0266 12.9767C94.4866 12.9767 94.8266 12.8876 95.0366 12.6995C95.2466 12.5016 95.3566 12.1651 95.3666 11.6801C95.3666 11.2644 95.3166 10.918 95.1766 10.6507C95.0366 10.3835 94.8266 10.1855 94.5266 10.0569C94.2266 9.92819 93.8366 9.85891 93.3466 9.85891C92.9066 9.85891 92.5366 9.93809 92.2466 10.1063C91.9566 10.2845 91.7366 10.5913 91.5966 11.0466C91.4566 11.5019 91.3766 12.1354 91.3666 12.947V12.9371ZM112.107 24.1412C112.487 17.9849 112.857 11.8186 113.237 5.66229C113.307 4.47457 113.567 3.4947 114.017 2.72268C114.467 1.95067 115.027 1.3667 115.697 0.951001C116.367 0.545197 117.097 0.268062 117.897 0.139392C118.697 0.0107225 119.457 -0.0288682 120.197 0.0206202C120.927 0.0800062 121.947 0.159188 123.257 0.27796C124.557 0.396732 125.977 0.564992 127.497 0.772843C129.017 0.990592 130.457 1.25783 131.807 1.57455C131.587 3.72235 131.477 4.8012 131.257 6.94899C127.447 6.56298 125.537 6.39472 121.717 6.08789C121.137 6.0384 120.697 6.15718 120.417 6.43431C120.137 6.71145 119.987 7.01827 119.957 7.3449C119.867 8.45344 119.827 9.00771 119.747 10.1162C123.477 10.5319 125.337 10.7596 129.057 11.2545C128.857 13.2835 128.757 14.303 128.557 16.332C124.857 16.1043 123.007 16.0153 119.307 15.8668C119.037 19.3508 118.907 21.1027 118.637 24.5866C116.027 24.3887 114.727 24.2996 112.117 24.1412H112.107ZM131.307 25.7249C131.947 19.8061 132.587 13.8873 133.227 7.97835C135.337 8.20599 136.397 8.31487 138.507 8.57221C138.987 9.63126 139.227 10.1558 139.707 11.2149C140.347 10.5616 141.077 10.0074 141.877 9.55208C142.677 9.09679 143.607 8.93842 144.657 9.07699C144.847 9.09679 145.067 9.14627 145.317 9.19576C145.567 9.25515 145.807 9.32443 146.027 9.42341C145.667 12.0364 145.487 13.3429 145.127 15.9559C144.747 15.8569 144.357 15.7777 143.957 15.6985C143.557 15.6194 143.197 15.5699 142.877 15.5204C142.327 15.4511 141.817 15.4313 141.347 15.4709C140.877 15.5105 140.447 15.6095 140.067 15.7579C139.687 15.9064 139.347 16.134 139.057 16.431C138.557 20.4395 138.307 22.4487 137.817 26.4573C135.217 26.1406 133.917 25.9921 131.317 25.715L131.307 25.7249ZM145.687 27.4966C146.537 21.6074 147.377 15.7084 148.227 9.81932C150.927 10.1954 152.277 10.4033 154.977 10.819C154.037 16.6982 153.097 22.5774 152.157 28.4566C149.567 28.0508 148.277 27.8628 145.687 27.4966ZM150.307 7.03807C151.537 5.30598 152.157 4.43498 153.407 2.70289C155.587 3.02951 156.677 3.19777 158.857 3.55409C157.017 5.17731 156.107 5.98892 154.297 7.63193C152.697 7.38449 151.897 7.26572 150.297 7.03807H150.307ZM163.147 30.4956C161.557 30.1986 160.237 29.8027 159.197 29.288C158.157 28.7734 157.367 28.1003 156.817 27.2689C156.267 26.4375 155.947 25.4279 155.847 24.2402C155.747 23.0525 155.827 21.6371 156.097 20.004C156.387 18.2422 156.787 16.7972 157.287 15.6787C157.787 14.5603 158.447 13.719 159.257 13.1548C160.067 12.5808 161.067 12.2541 162.267 12.175C163.457 12.0958 164.887 12.1948 166.527 12.5016C168.187 12.8084 169.567 13.2241 170.647 13.7487C171.727 14.2733 172.537 14.9463 173.077 15.7678C173.617 16.5893 173.917 17.6088 173.987 18.8262C174.057 20.0436 173.907 21.5085 173.547 23.2208C173.197 24.9034 172.757 26.2989 172.237 27.3877C171.717 28.4764 171.057 29.2979 170.267 29.8621C169.467 30.4263 168.497 30.743 167.337 30.842C166.177 30.9311 164.787 30.8222 163.147 30.5252V30.4956ZM164.087 25.4774C164.517 25.5566 164.867 25.5863 165.147 25.5566C165.427 25.5269 165.677 25.3983 165.887 25.1706C166.097 24.943 166.287 24.557 166.457 24.0324C166.627 23.5078 166.807 22.7853 166.977 21.8747C167.157 20.9641 167.257 20.2317 167.287 19.6873C167.317 19.1429 167.287 18.7272 167.177 18.4303C167.067 18.1433 166.887 17.9354 166.627 17.8067C166.367 17.6781 166.017 17.5791 165.587 17.4999C165.157 17.4207 164.787 17.391 164.507 17.4207C164.217 17.4504 163.967 17.5791 163.767 17.8067C163.557 18.0344 163.377 18.4105 163.207 18.9351C163.037 19.4596 162.877 20.1723 162.707 21.0829C162.537 21.9935 162.437 22.7259 162.407 23.2802C162.377 23.8344 162.407 24.26 162.527 24.5471C162.637 24.8341 162.817 25.0419 163.077 25.1706C163.327 25.2993 163.677 25.3983 164.097 25.4774H164.087Z" fill="#F4EEE5"/>
</svg>
