<?xml version="1.0" encoding="UTF-8"?>
<svg id="Layer_1" xmlns="http://www.w3.org/2000/svg" version="1.1" viewBox="0 0 174 32">
  <!-- Generator: Adobe Illustrator 29.1.0, SVG Export Plug-In . SVG Version: 2.1.0 Build 142)  -->
  <defs>
    <style>
      .st0 {
        fill: #1f90a7;
      }
    </style>
  </defs>
  <path class="st0" d="M1.9,32C1.2,23.8.6,15.5,0,7.3c2.6-.5,3.8-.8,6.4-1.2,2.8,5.3,5.6,10.7,8.4,16.1.8-6,1.6-12,2.4-17.9,2.5-.4,3.8-.6,6.4-1,2.2,8,4.4,15.9,6.5,23.9-2.5.3-3.8.5-6.2.9-1.4-5.1-2.9-10.2-4.4-15.4.4,0,.6,0,1-.1-.5,5.4-1,10.8-1.5,16.2-2.4.4-3.6.6-6.1,1-2.3-4.9-4.6-9.9-6.9-14.8.4,0,.6-.1,1.1-.2.3,5.3.7,10.6,1.1,15.9-2.5.5-3.7.7-6.2,1.2h0ZM40.5,26.1c-1.6.2-3,.2-4.1,0-1.1-.2-2.1-.6-2.9-1.2-.8-.6-1.4-1.5-1.8-2.6-.5-1.1-.8-2.5-1-4.1-.2-1.8-.3-3.3-.1-4.5.2-1.2.5-2.2,1.1-3,.6-.8,1.5-1.4,2.6-1.8,1.1-.4,2.5-.7,4.2-.9,1.7-.2,3.1-.2,4.3,0,1.2.2,2.2.6,2.9,1.2.8.6,1.3,1.5,1.8,2.7.4,1.1.7,2.6.9,4.3.2,1.7.1,3.2,0,4.4-.2,1.2-.6,2.2-1.2,2.9-.6.8-1.4,1.4-2.5,1.8-1.1.4-2.4.7-4.1.9h0ZM40,21c.4,0,.8-.1,1-.2.3-.1.5-.3.6-.6.1-.3.2-.7.2-1.3,0-.6,0-1.3-.1-2.2,0-.9-.2-1.7-.3-2.2-.1-.5-.3-.9-.5-1.2-.2-.2-.4-.4-.7-.4-.3,0-.6,0-1.1,0-.4,0-.8.1-1.1.2s-.5.3-.6.6c-.1.3-.2.7-.2,1.2s0,1.3.2,2.2c.1.9.2,1.7.4,2.2.1.5.3.9.5,1.2.2.2.4.4.7.4.3,0,.6,0,1.1,0h0ZM51.6,24.9c-.5-5.9-1-11.9-1.5-17.8,2.3-.2,3.4-.3,5.7-.4.5.7.8,1,1.2,1.6.5-.5,1.3-1.1,2.2-1.5,1-.5,1.9-.8,2.9-.8,1.6,0,2.9.1,3.8.7.9.5,1.5,1.3,1.8,2.3.3,1,.5,2.1.6,3.3.2,3.8.3,7.7.5,11.5-2.6.1-3.9.2-6.5.3-.2-3.6-.4-7.1-.6-10.6,0-.5-.1-.8-.3-1-.2-.2-.4-.4-.7-.5s-.6-.1-1,0c-.3,0-.6,0-.9.2-.3.1-.6.2-.9.4-.2.2-.5.4-.7.6.3,3.8.5,7.6.8,11.3-2.6.2-3.9.3-6.5.5ZM79.3,23.4c-1.6,0-2.8-.1-3.7-.5s-1.6-1.1-2.1-2c-.4-1-.6-2.3-.7-4v-6c-1.2,0-1.7,0-2.9,0,0-1.6,0-2.5-.2-4.1,1.3-.4,1.9-.7,3.2-1.1.3-2,.4-3,.7-5,2.2,0,3.3,0,5.5-.1,0,2,0,3,0,5,1.5,0,2.3,0,3.8,0,0,2,0,3.1,0,5.1-1.5,0-2.3,0-3.8,0,0,2.4,0,3.6.1,6,0,.3,0,.5,0,.7,0,.2.1.4.2.5.1.1.2.2.4.3.2,0,.3.1.6.1.9,0,1.4.1,2.3.2,0,1.9,0,2.9,0,4.8-1.5,0-2.3,0-3.8,0h0ZM93.4,23.6c-2.1,0-3.7-.3-5-.8-1.3-.5-2.2-1.4-2.8-2.7-.6-1.3-.9-3.2-.9-5.5,0-2.5.2-4.3.8-5.7.5-1.3,1.4-2.3,2.7-2.8,1.2-.5,3-.8,5.2-.8,2,0,3.6.2,4.8.6,1.2.4,2,1,2.5,2,.5.9.7,2.2.6,3.9,0,1.3-.3,2.3-.9,3-.6.7-1.3,1.2-2.3,1.5-1,.3-2.1.4-3.4.4-1.3,0-2,0-3.3,0,0,.5.2,1,.4,1.3.2.3.6.6,1.1.7.5.1,1.3.2,2.4.2,2,0,3,0,5,.1,0,1.5,0,2.2-.1,3.7-.8.2-1.7.4-2.8.6-1.1.2-2.4.3-3.9.2h0ZM91.4,12.9c1.1,0,1.6,0,2.7,0,.5,0,.8,0,1-.3.2-.2.3-.5.3-1,0-.4,0-.8-.2-1-.1-.3-.3-.5-.6-.6-.3-.1-.7-.2-1.2-.2s-.8,0-1.1.2c-.3.2-.5.5-.6.9-.1.5-.2,1.1-.2,1.9h0ZM112.1,24.1c.4-6.2.8-12.3,1.1-18.5,0-1.2.3-2.2.8-2.9.5-.8,1-1.4,1.7-1.8.7-.4,1.4-.7,2.2-.8.8-.1,1.6-.2,2.3-.1.7,0,1.8.1,3.1.3,1.3.1,2.7.3,4.2.5,1.5.2,3,.5,4.3.8-.2,2.1-.3,3.2-.6,5.4-3.8-.4-5.7-.6-9.5-.9-.6,0-1,0-1.3.3-.3.3-.4.6-.5.9,0,1.1-.1,1.7-.2,2.8,3.7.4,5.6.6,9.3,1.1-.2,2-.3,3-.5,5.1-3.7-.2-5.6-.3-9.3-.5-.3,3.5-.4,5.2-.7,8.7-2.6-.2-3.9-.3-6.5-.4h0ZM131.3,25.7c.6-5.9,1.3-11.8,1.9-17.7,2.1.2,3.2.3,5.3.6.5,1.1.7,1.6,1.2,2.6.6-.7,1.4-1.2,2.2-1.7.8-.5,1.7-.6,2.8-.5.2,0,.4,0,.7.1.2,0,.5.1.7.2-.4,2.6-.5,3.9-.9,6.5-.4,0-.8-.2-1.2-.3-.4,0-.8-.1-1.1-.2-.6,0-1.1,0-1.5,0-.5,0-.9.1-1.3.3-.4.1-.7.4-1,.7-.5,4-.8,6-1.2,10-2.6-.3-3.9-.5-6.5-.7h0ZM145.7,27.5c.9-5.9,1.7-11.8,2.5-17.7,2.7.4,4,.6,6.8,1l-2.8,17.6c-2.6-.4-3.9-.6-6.5-1ZM150.3,7c1.2-1.7,1.8-2.6,3.1-4.3,2.2.3,3.3.5,5.4.9-1.8,1.6-2.8,2.4-4.6,4.1-1.6-.2-2.4-.4-4-.6h0ZM163.1,30.5c-1.6-.3-2.9-.7-3.9-1.2-1-.5-1.8-1.2-2.4-2s-.9-1.8-1-3,0-2.6.2-4.2c.3-1.8.7-3.2,1.2-4.3.5-1.1,1.2-2,2-2.5.8-.6,1.8-.9,3-1,1.2,0,2.6,0,4.3.3,1.7.3,3,.7,4.1,1.2s1.9,1.2,2.4,2c.5.8.8,1.8.9,3.1,0,1.2,0,2.7-.4,4.4-.3,1.7-.8,3.1-1.3,4.2-.5,1.1-1.2,1.9-2,2.5-.8.6-1.8.9-2.9,1-1.2,0-2.6,0-4.2-.3h0ZM164.1,25.5c.4,0,.8.1,1.1,0,.3,0,.5-.2.7-.4.2-.2.4-.6.6-1.1.2-.5.4-1.2.5-2.2.2-.9.3-1.6.3-2.2,0-.5,0-1-.1-1.3-.1-.3-.3-.5-.6-.6-.3-.1-.6-.2-1-.3-.4,0-.8-.1-1.1,0-.3,0-.5.2-.7.4-.2.2-.4.6-.6,1.1-.2.5-.3,1.2-.5,2.1-.2.9-.3,1.6-.3,2.2,0,.6,0,1,.1,1.3.1.3.3.5.6.6.2.1.6.2,1,.3h0Z"/>
</svg>