<svg xmlns="http://www.w3.org/2000/svg" version="1.1" xmlns:xlink="http://www.w3.org/1999/xlink" xmlns:svgjs="http://svgjs.dev/svgjs" width="81" height="68"><svg fill="none" height="68" viewBox="0 0 81 68" width="81" xmlns="http://www.w3.org/2000/svg"><path d="m69.0891 32.7759c.3636-.3641.863-.5881 1.4144-.5881s1.0548.224 1.4144.5881c.3636.36.5873.8601.5873 1.4121.0519 2.1683 1.8179 3.9125 3.9954 3.9125s3.9994-1.7922 3.9994-4.0045v-15.5498c0-2.2123-1.7899-4.0045-3.9994-4.0045s-3.9435 1.7442-3.9954 3.9125c0 .556-.2237 1.0561-.5873 1.4161-.3596.3641-.859.5881-1.4144.5881-1.1027 0-2.0017-.8961-2.0017-2.0042v-2.6723c0-2.2123-1.7899-4.0045-3.9994-4.0045s-3.9994 1.7922-3.9994 4.0045v14.2416c0 .5521-.2237 1.0482-.5873 1.4042-.3596.364-.859.5881-1.4144.5881-1.0987 0-1.9937-.8881-2.0017-1.9923v-18.1741c0-2.21227-1.7899-4.00448-3.9994-4.00448s-3.9515 1.74821-3.9954 3.92448h-.004c0 .556-.2237 1.0561-.5873 1.4162-.3596.364-.859.588-1.4144.588-1.0947 0-1.9857-.8841-1.9977-1.9802v-7.78893c0-2.21226-1.7899-4.00447-3.9994-4.00447s-3.9994 1.79221-3.9994 4.00447v44.25323c0 .552-.2237 1.0481-.5873 1.4041-.3596.3641-.859.5881-1.4144.5881-1.0987 0-1.9937-.8881-2.0017-1.9922v-36.4083c0-2.21227-1.7899-4.00448-3.9994-4.00448s-3.9994 1.79221-3.9994 4.00448v6.9328c-.008.5441-.2277 1.0361-.5833 1.3922-.3596.364-.859.588-1.4144.588-1.1027 0-2.0017-.8961-2.0017-2.0042h-.008c-.0839-2.1402-1.8379-3.8484-3.9914-3.8484s-3.9994 1.7922-3.9994 4.0044v2.5883c0 .5521-.2237 1.0522-.5873 1.4122-.3596.364-.859.5881-1.4144.5881-1.10273 0-2.0017-.8961-2.0017-2.0043h-.10787c-.41553-1.7682-1.99771-3.0843-3.89153-3.0843-2.20946 0-3.9994 1.7922-3.9994 4.0044v23.1668c0 2.2122 1.78994 4.0044 3.9994 4.0044s3.9994-1.7922 3.9994-4.0044v-16.1099c.004-.5441.22774-1.0362.58733-1.3922.36358-.364.863-.5881 1.41437-.5881.5514 0 1.0548.2241 1.4144.5881.3636.36.5873.8561.5873 1.4082v19.6023c0 2.2122 1.7899 4.0044 3.9994 4.0044s3.9994-1.7922 3.9994-4.0044v-22.3387c0-.552.2237-1.0521.5873-1.4121.3636-.3641.863-.5881 1.4144-.5881s1.0548.224 1.4144.5881c.3596.356.5793.8441.5833 1.3881v29.4235c0 2.2123 1.7899 4.0045 3.9994 4.0045s3.9475-1.7442 3.9954-3.9165c0-.552.2238-1.0521.5873-1.4122.3636-.364.863-.588 1.4144-.588s1.0548.224 1.4144.588c.3596.3561.5833.8521.5873 1.4002v7.7649c0 2.2123 1.7899 4.0045 3.9994 4.0045s3.9994-1.7922 3.9994-4.0045v-44.2492c.008-.54.2277-1.0321.5833-1.3881.3636-.3641.863-.5881 1.4144-.5881s1.0548.224 1.4144.5881c.3636.36.5873.8601.5873 1.4121v36.3883c0 2.2123 1.7899 4.0045 3.9994 4.0045s3.9994-1.7922 3.9994-4.0045v-18.1661c0-.5481.2237-1.0442.5873-1.4002.3636-.364.863-.5881 1.4144-.5881s1.0548.2241 1.4144.5881c.3596.356.5833.8521.5873 1.4002v14.2416c0 2.2123 1.7899 4.0045 3.9994 4.0045s3.9994-1.7922 3.9994-4.0045v-2.8363c0-.5521.2237-1.0521.5873-1.4122.3636-.364.863-.588 1.4144-.588s1.0548.224 1.4144.588c.3636.3601.5873.8601.5873 1.4122h.004c.0799 2.1403 1.8339 3.8525 3.9914 3.8525s3.9994-1.7922 3.9994-4.0045v-5.8247c0-2.2123-1.7899-4.0045-3.9994-4.0045s-3.9954 1.7882-3.9994 3.9965c-.004.5481-.2277 1.0401-.5873 1.3962-.3596.364-.859.588-1.4144.588-1.1027 0-2.0017-.8961-2.0017-2.0042v-9.2051c0-.552.2238-1.0521.5873-1.4121zm0-7.741c.3636-.364.863-.588 1.4144-.588s1.0548.224 1.4144.588c.3596.3561.5793.8441.5833 1.3882v1.7842c-.008.5441-.2277 1.0361-.5833 1.3922-.3596.364-.859.5881-1.4144.5881-1.1027 0-2.0017-.8962-2.0017-2.0043v-1.7362c0-.5521.2237-1.0521.5873-1.4122z" fill="#232021"></path></svg><style>@media (prefers-color-scheme: light) { :root { filter: none; } }
@media (prefers-color-scheme: dark) { :root { filter: none; } }
</style></svg>