<svg width="194" height="35" viewBox="0 0 194 35" fill="none" xmlns="http://www.w3.org/2000/svg">
<path d="M0 0.00688718H10.829V3.5675H4.61899V6.97392H9.57442V10.3593H4.61899V16.0297H0V-0.00012207V0.00688718ZM12.9738 0.00688718H19.254C23.4454 0.00688718 25.7794 1.7101 25.7794 5.09549V5.1866C25.7794 7.47157 24.5669 8.75423 22.8847 9.39907L26.7186 16.0367H21.8754L18.6231 10.2962H17.5508V16.0367H12.9808V0.00688718H12.9738ZM19.0297 7.31036C20.5787 7.31036 21.3357 6.65851 21.3357 5.36183V5.27071C21.3357 3.97403 20.5296 3.45536 19.0507 3.45536H17.5508V7.31036H19.0297ZM28.6041 0.00688718H39.6785V3.54648H33.181V6.30105H38.3607V9.57429H33.181V12.4901H40.0429V16.0297H28.6111V-0.00012207L28.6041 0.00688718ZM42.3209 0.00688718H48.1524C53.8438 0.00688718 56.7386 2.85258 56.7386 7.82903V8.01127C56.7386 13.0087 53.7807 16.0367 48.1314 16.0367H42.3279V0.00688718H42.3209ZM47.9912 12.4901C50.7248 12.4901 51.9374 11.0532 51.9374 8.07435V7.89211C51.9374 4.84316 50.7248 3.54648 47.9492 3.54648H46.9399V12.4901H47.9912ZM61.5328 9.17478L56.311 0.00688718H61.3085L64.021 5.41089L66.7335 0.00688718H71.1283L66.1518 9.17478V16.0367H61.5328V9.17478ZM77.2752 0.00688718H83.261L86.331 8.55097L89.4009 0.00688718H95.2746V16.0367H90.7046V6.06274L86.7795 16.0367H85.2586L81.3825 6.06274V16.0367H77.2822V0.00688718H77.2752ZM98.2745 9.53224V0.00688718H102.872V9.32898C102.872 11.5929 103.433 12.6933 105.382 12.6933C107.33 12.6933 107.891 11.663 107.891 9.26589V0.00688718H112.531V9.46916C112.531 14.1302 109.797 16.31 105.382 16.31C100.966 16.31 98.2745 14.0251 98.2745 9.53925V9.53224ZM115.517 0.00688718H120.697L125.827 9.0416V0.00688718H129.836V16.0367H125.4L119.547 5.97162V16.0367H115.51V0.00688718H115.517ZM132.934 0.00688718H144.009V3.54648H137.511V6.30105H142.691V9.57429H137.511V12.4901H144.373V16.0297H132.941V-0.00012207L132.934 0.00688718ZM145.376 0.00688718H150.331L153.583 11.2635L156.856 0.00688718H161.16L155.917 16.0367H150.695L145.383 0.00688718H145.376ZM165.106 0.00688718H171.05L176.138 16.0367H171.274L170.426 13.0578H165.113L164.265 16.0367H159.982L165.113 0.00688718H165.106ZM166.003 9.8897H169.522L167.777 3.7217L166.003 9.8897ZM177.975 0.00688718H184.255C188.446 0.00688718 190.78 1.7101 190.78 5.09549V5.1866C190.78 7.47157 189.568 8.75423 187.886 9.39907L191.72 16.0367H186.876L183.624 10.2962H182.552V16.0367H177.982V0.00688718H177.975ZM184.031 7.31036C185.58 7.31036 186.337 6.65851 186.337 5.36183V5.27071C186.337 3.97403 185.531 3.45536 184.052 3.45536H182.552V7.31036H184.031ZM0 29.9253V24.6825H0.630819V29.8552C0.630819 31.6005 1.41584 32.3925 2.93681 32.3925C4.45778 32.3925 5.29187 31.6425 5.29187 29.708V24.6825H5.9297V29.7991C5.9297 31.7547 4.96244 32.9252 2.92981 32.9252C1.09342 32.9252 0.00701059 31.8738 0.00701059 29.9253H0ZM12.5042 28.6216L9.92487 24.6825H10.6188L12.9037 28.145L15.1677 24.6825H15.8265L13.2262 28.6356L16.0088 32.8481H15.2868L12.8126 29.1052L10.3384 32.8481H9.68657L12.5042 28.6216ZM22.5132 23.9886H23.0809L19.7586 34.5373H19.1909L22.5132 23.9886ZM26.957 29.9253V24.6825H27.5878V29.8552C27.5878 31.6005 28.3728 32.3925 29.8938 32.3925C31.4147 32.3925 32.2488 31.6425 32.2488 29.708V24.6825H32.8867V29.7991C32.8867 31.7547 31.9194 32.9252 29.8868 32.9252C28.0504 32.9252 26.964 31.8738 26.964 29.9253H26.957ZM37.4215 24.6825H38.0594V32.8481H37.4215V24.6825ZM48.0613 24.6825H52.7504V25.2082H48.6992V28.3903H51.9864V28.916H48.6992V32.3154H52.9607V32.8411H48.0613V24.6755V24.6825ZM56.8928 26.8763H57.4956V28.0399C57.7689 27.388 58.5469 26.7852 59.6053 26.7852C60.874 26.7852 61.7291 27.4721 61.7291 29.1683V32.8481H61.1263V29.1403C61.1263 27.8716 60.5305 27.3109 59.4721 27.3109C58.4768 27.3109 57.4956 27.9698 57.4956 29.2314V32.8481H56.8928V26.8763ZM65.7383 33.1915H66.3551C66.5163 33.9555 67.1541 34.4812 68.4017 34.4812C69.6493 34.4812 70.5675 33.8995 70.5675 32.4275V31.208C70.2451 31.9299 69.411 32.6588 68.3036 32.6588C66.7826 32.6588 65.6121 31.5374 65.6121 29.8061V29.729C65.6121 28.0258 66.8107 26.7922 68.3877 26.7922C69.5652 26.7922 70.2241 27.4441 70.5675 28.173V26.8834H71.1703V32.4556C71.1563 34.2149 70.0068 34.9999 68.4087 34.9999C66.6845 34.9999 65.8855 34.1518 65.7383 33.1985V33.1915ZM70.5815 29.7641V29.673C70.5815 28.166 69.6914 27.2969 68.4438 27.2969C67.1962 27.2969 66.2429 28.2081 66.2429 29.694V29.7851C66.2429 31.271 67.1821 32.1402 68.3667 32.1402C69.5512 32.1402 70.5815 31.264 70.5815 29.7641ZM75.4458 25.1591C75.4458 24.9278 75.6421 24.7386 75.8804 24.7386C76.1187 24.7386 76.301 24.9348 76.301 25.1591C76.301 25.3974 76.1187 25.5937 75.8804 25.5937C75.6421 25.5937 75.4458 25.3974 75.4458 25.1591ZM75.579 26.8763H76.1818V32.8481H75.579V26.8763ZM80.5905 26.8763H81.1933V28.0399C81.4667 27.388 82.2447 26.7852 83.303 26.7852C84.5717 26.7852 85.4268 27.4721 85.4268 29.1683V32.8481H84.824V29.1403C84.824 27.8716 84.2282 27.3109 83.1699 27.3109C82.1746 27.3109 81.1933 27.9698 81.1933 29.2314V32.8481H80.5905V26.8763ZM89.3168 29.9253V29.8342C89.3168 28.0328 90.4593 26.7852 92.0574 26.7852C93.4943 26.7852 94.6718 27.7244 94.6718 29.694V29.9113H89.9477C89.9687 31.5094 90.7327 32.4205 92.1485 32.4205C93.1438 32.4205 93.8167 32.007 94.0199 31.1729H94.6227C94.3704 32.3154 93.4242 32.9322 92.1485 32.9322C90.4243 32.9322 89.3168 31.7126 89.3168 29.9183V29.9253ZM94.041 29.4206C93.9849 27.9698 93.2209 27.2969 92.0574 27.2969C90.8939 27.2969 90.0808 28.117 89.9687 29.4206H94.048H94.041ZM98.1483 29.9253V29.8342C98.1483 28.0328 99.2908 26.7852 100.889 26.7852C102.326 26.7852 103.503 27.7244 103.503 29.694V29.9113H98.7791C98.8001 31.5094 99.5641 32.4205 100.98 32.4205C101.975 32.4205 102.648 32.007 102.851 31.1729H103.454C103.202 32.3154 102.256 32.9322 100.98 32.9322C99.2557 32.9322 98.1483 31.7126 98.1483 29.9183V29.9253ZM102.872 29.4206C102.816 27.9698 102.052 27.2969 100.889 27.2969C99.7253 27.2969 98.9123 28.117 98.8001 29.4206H102.879H102.872ZM107.428 26.8763H108.031V28.131C108.361 27.402 108.956 26.8273 110.05 26.7922V27.36C108.893 27.402 108.031 27.9417 108.031 29.5258V32.8341H107.428V26.8623V26.8763ZM119.014 29.3996H121.404V29.9674H119.014V29.3996ZM131 24.6825H133.124C135.815 24.6825 137.189 26.4208 137.189 28.6917V28.7968C137.189 31.0608 135.885 32.8481 133.103 32.8481H131V24.6825ZM133.082 32.3224C135.402 32.3224 136.53 30.8575 136.53 28.7828V28.6917C136.53 26.6801 135.472 25.2082 133.068 25.2082H131.638V32.3224H133.075H133.082ZM140.785 29.9253V29.8342C140.785 28.0328 141.927 26.7852 143.525 26.7852C144.962 26.7852 146.14 27.7244 146.14 29.694V29.9113H141.415C141.436 31.5094 142.2 32.4205 143.616 32.4205C144.612 32.4205 145.284 32.007 145.488 31.1729H146.09C145.838 32.3154 144.892 32.9322 143.616 32.9322C141.892 32.9322 140.785 31.7126 140.785 29.9183V29.9253ZM145.509 29.4206C145.453 27.9698 144.689 27.2969 143.525 27.2969C142.362 27.2969 141.549 28.117 141.436 29.4206H145.516H145.509ZM149.616 31.0678H150.198C150.303 31.8808 150.801 32.4416 151.908 32.4416C152.91 32.4416 153.429 31.986 153.429 31.264C153.429 30.5 152.98 30.2617 151.866 30.0515C150.401 29.7921 149.812 29.4136 149.812 28.3833C149.812 27.353 150.773 26.7852 151.775 26.7852C152.847 26.7852 153.695 27.2338 153.85 28.4043H153.268C153.121 27.6403 152.63 27.2969 151.761 27.2969C150.892 27.2969 150.366 27.7174 150.366 28.3553C150.366 29.0422 150.78 29.2945 151.999 29.5118C153.275 29.7431 154.011 30.0515 154.011 31.215C154.011 32.2173 153.268 32.9532 151.908 32.9532C150.548 32.9532 149.693 32.2103 149.616 31.0678ZM157.824 25.1591C157.824 24.9278 158.02 24.7386 158.258 24.7386C158.497 24.7386 158.679 24.9348 158.679 25.1591C158.679 25.3974 158.497 25.5937 158.258 25.5937C158.02 25.5937 157.824 25.3974 157.824 25.1591ZM157.964 26.8763H158.567V32.8481H157.964V26.8763ZM162.653 33.1915H163.27C163.431 33.9555 164.069 34.4812 165.316 34.4812C166.564 34.4812 167.482 33.8995 167.482 32.4275V31.208C167.16 31.9299 166.326 32.6588 165.218 32.6588C163.697 32.6588 162.527 31.5374 162.527 29.8061V29.729C162.527 28.0258 163.725 26.7922 165.302 26.7922C166.48 26.7922 167.139 27.4441 167.482 28.173V26.8834H168.085V32.4556C168.071 34.2149 166.921 34.9999 165.323 34.9999C163.599 34.9999 162.8 34.1518 162.653 33.1985V33.1915ZM167.496 29.7641V29.673C167.496 28.166 166.606 27.2969 165.358 27.2969C164.111 27.2969 163.158 28.2081 163.158 29.694V29.7851C163.158 31.271 164.097 32.1402 165.281 32.1402C166.466 32.1402 167.496 31.264 167.496 29.7641ZM172.473 26.8763H173.075V28.0399C173.349 27.388 174.127 26.7852 175.185 26.7852C176.454 26.7852 177.309 27.4721 177.309 29.1683V32.8481H176.706V29.1403C176.706 27.8716 176.11 27.3109 175.052 27.3109C174.057 27.3109 173.075 27.9698 173.075 29.2314V32.8481H172.473V26.8763ZM181.192 29.9253V29.8342C181.192 28.0328 182.334 26.7852 183.933 26.7852C185.369 26.7852 186.547 27.7244 186.547 29.694V29.9113H181.823C181.844 31.5094 182.608 32.4205 184.024 32.4205C185.019 32.4205 185.692 32.007 185.895 31.1729H186.498C186.246 32.3154 185.299 32.9322 184.024 32.9322C182.299 32.9322 181.192 31.7126 181.192 29.9183V29.9253ZM185.916 29.4206C185.86 27.9698 185.096 27.2969 183.933 27.2969C182.769 27.2969 181.956 28.117 181.844 29.4206H185.923H185.916ZM190.472 26.8763H191.075V28.131C191.404 27.402 192 26.8273 193.093 26.7922V27.36C191.937 27.402 191.075 27.9417 191.075 29.5258V32.8341H190.472V26.8623V26.8763Z" fill="#F9F9F9"/>
</svg>
