<svg width="32" height="32" viewBox="0 0 32 32" fill="none" xmlns="http://www.w3.org/2000/svg">
<path id="light" d="M26.0006 16.0006C26.0006 21.5206 21.5206 26.0006 16.0006 26.0006C10.4806 26.0006 6.00065 21.5206 6.00065 16.0006C6.00065 10.4806 10.4806 6.00065 16.0006 6.00065C21.5206 6.00065 26.0006 10.4806 26.0006 16.0006ZM16.3406 0.000645209C15.0606 -0.0293548 14.0106 0.990645 13.9806 2.26065C13.9506 3.53065 14.9706 4.59064 16.2406 4.62065C17.5106 4.65065 18.5706 3.63065 18.6006 2.36065C18.6306 1.09065 17.6206 0.0306452 16.3406 0.000645209ZM27.5606 4.93064C26.6806 4.01064 25.2106 3.98065 24.2906 4.86065C23.3706 5.74065 23.3406 7.21065 24.2206 8.13065C25.1006 9.05065 26.5706 9.08065 27.4906 8.20065C28.4106 7.32065 28.4406 5.85065 27.5606 4.93064ZM32.0006 16.3406C32.0306 15.0606 31.0106 14.0106 29.7406 13.9806C28.4706 13.9506 27.4106 14.9706 27.3806 16.2406C27.3506 17.5106 28.3706 18.5706 29.6406 18.6006C30.9106 18.6306 31.9706 17.6106 32.0006 16.3406ZM27.0706 27.5606C27.9906 26.6806 28.0206 25.2106 27.1406 24.2906C26.2606 23.3706 24.7906 23.3406 23.8706 24.2206C22.9506 25.1006 22.9206 26.5706 23.8006 27.4906C24.6806 28.4106 26.1506 28.4406 27.0706 27.5606ZM15.6606 32.0006C16.9406 32.0306 17.9906 31.0106 18.0206 29.7406C18.0506 28.4706 17.0306 27.4106 15.7606 27.3806C14.4906 27.3506 13.4306 28.3706 13.4006 29.6406C13.3706 30.9106 14.3906 31.9706 15.6606 32.0006ZM4.44065 27.0706C5.32065 27.9906 6.79065 28.0206 7.71065 27.1406C8.63064 26.2606 8.66065 24.7906 7.78065 23.8706C6.90065 22.9506 5.43065 22.9206 4.51065 23.8006C3.59065 24.6806 3.56065 26.1506 4.44065 27.0706ZM0.000645209 15.6606C-0.0293548 16.9406 0.990645 17.9906 2.26065 18.0206C3.53065 18.0506 4.59064 17.0306 4.62065 15.7606C4.65065 14.4906 3.63065 13.4306 2.36065 13.4006C1.09065 13.3706 0.0306452 14.3806 0.000645209 15.6606ZM4.93064 4.44065C4.01064 5.32065 3.98065 6.79065 4.86065 7.71065C5.74065 8.63064 7.21065 8.66065 8.13065 7.78065C9.05065 6.90065 9.08065 5.43065 8.20065 4.51065C7.32065 3.59065 5.85065 3.56065 4.93064 4.44065Z" fill="black"/>
</svg>
